<svg xmlns="http://www.w3.org/2000/svg" xmlns:xlink="http://www.w3.org/1999/xlink" width="1316" height="769" viewBox="0 0 1316 769">
  <defs>
    <clipPath id="clip-path">
      <rect id="Rectángulo_7775" data-name="Rectángulo 7775" width="552.241" height="50.799" fill="none"/>
    </clipPath>
    <clipPath id="clip-path-2">
      <path id="Trazado_103817" data-name="Trazado 103817" d="M575.765,410.182c0,14.03-123.621,25.4-276.12,25.4s-276.122-11.371-276.122-25.4,123.623-25.4,276.122-25.4,276.12,11.371,276.12,25.4" transform="translate(-23.523 -384.784)" fill="none"/>
    </clipPath>
    <radialGradient id="radial-gradient" cx="0.5" cy="0.5" r="4.704" gradientTransform="matrix(0.092, 0, 0, -0.128, -0.071, 1.128)" gradientUnits="objectBoundingBox">
      <stop offset="0"/>
      <stop offset="0.099" stop-color="#2d2d2d"/>
      <stop offset="0.232" stop-color="#646464"/>
      <stop offset="0.367" stop-color="#939393"/>
      <stop offset="0.5" stop-color="#bababa"/>
      <stop offset="0.631" stop-color="#d8d8d8"/>
      <stop offset="0.759" stop-color="#ededed"/>
      <stop offset="0.884" stop-color="#fafafa"/>
      <stop offset="1" stop-color="#fff"/>
    </radialGradient>
    <clipPath id="clip-path-3">
      <rect id="Rectángulo_7777" data-name="Rectángulo 7777" width="606.836" height="50.799" fill="none"/>
    </clipPath>
    <clipPath id="clip-path-4">
      <path id="Trazado_103818" data-name="Trazado 103818" d="M618.635,410.182c0,14.03-135.842,25.4-303.42,25.4S11.8,424.211,11.8,410.182s135.845-25.4,303.415-25.4,303.42,11.371,303.42,25.4" transform="translate(-11.799 -384.784)" fill="none"/>
    </clipPath>
    <radialGradient id="radial-gradient-2" cx="0.5" cy="0.5" r="5.766" gradientTransform="matrix(0.075, 0, 0, -0.105, -0.03, 1.105)" gradientUnits="objectBoundingBox">
      <stop offset="0"/>
      <stop offset="0.332"/>
      <stop offset="0.343" stop-color="#0d0d0d"/>
      <stop offset="0.393" stop-color="#3f3f3f"/>
      <stop offset="0.446" stop-color="#6c6c6c"/>
      <stop offset="0.501" stop-color="#949494"/>
      <stop offset="0.56" stop-color="#b5b5b5"/>
      <stop offset="0.622" stop-color="#d0d0d0"/>
      <stop offset="0.69" stop-color="#e5e5e5"/>
      <stop offset="0.766" stop-color="#f3f3f3"/>
      <stop offset="0.857" stop-color="#fcfcfc"/>
      <stop offset="1" stop-color="#fff"/>
    </radialGradient>
    <clipPath id="clip-path-5">
      <rect id="Rectángulo_7778" data-name="Rectángulo 7778" width="63.607" height="130.585" fill="none"/>
    </clipPath>
    <clipPath id="clip-path-6">
      <rect id="Rectángulo_7779" data-name="Rectángulo 7779" width="35.784" height="64.18" fill="none"/>
    </clipPath>
    <clipPath id="clip-path-7">
      <rect id="Rectángulo_7780" data-name="Rectángulo 7780" width="52.322" height="130.585" fill="none"/>
    </clipPath>
    <clipPath id="clip-path-8">
      <rect id="Rectángulo_7781" data-name="Rectángulo 7781" width="42.17" height="66.874" fill="none"/>
    </clipPath>
    <clipPath id="clip-path-9">
      <rect id="Rectángulo_7782" data-name="Rectángulo 7782" width="116.894" height="203.106" fill="none"/>
    </clipPath>
    <clipPath id="clip-path-10">
      <rect id="Rectángulo_7783" data-name="Rectángulo 7783" width="5.218" height="26.935" fill="none"/>
    </clipPath>
    <clipPath id="clip-path-11">
      <rect id="Rectángulo_7784" data-name="Rectángulo 7784" width="11.772" height="17.217" fill="none"/>
    </clipPath>
    <clipPath id="clip-path-12">
      <rect id="Rectángulo_7785" data-name="Rectángulo 7785" width="38.836" height="67.873" fill="none"/>
    </clipPath>
    <clipPath id="clip-path-13">
      <rect id="Rectángulo_7786" data-name="Rectángulo 7786" width="7.772" height="67.643" fill="none"/>
    </clipPath>
  </defs>
  <g id="Grupo_59297" data-name="Grupo 59297" transform="translate(-191 -7034.188)">
    <g id="Grupo_59296" data-name="Grupo 59296" transform="translate(49 5)">
      <rect id="Rectángulo_9070" data-name="Rectángulo 9070" width="1316" height="769" transform="translate(142 7029.188)" fill="#fff"/>
      <path id="Trazado_104219" data-name="Trazado 104219" d="M268.126,244.257a2.746,2.746,0,0,1-.09-5.491l151.247-5.035a2.746,2.746,0,1,1,.183,5.489L268.22,244.255c-.031,0-.062,0-.093,0" transform="translate(629.476 7220.039)" fill="#0155a0"/>
      <path id="Trazado_104283" data-name="Trazado 104283" d="M235.359,164a2.753,2.753,0,0,1-.617-.071L61.633,124.15a2.746,2.746,0,1,1,1.23-5.353l173.109,39.784a2.746,2.746,0,0,1-.613,5.423" transform="translate(514.239 7138.195)" fill="#0155a0"/>
      <path id="Trazado_104284" data-name="Trazado 104284" d="M43.251,302.542A2.746,2.746,0,0,1,41.9,297.4l231.81-130.5a2.746,2.746,0,0,1,2.7,4.786L44.595,302.188a2.708,2.708,0,0,1-1.344.353" transform="translate(512.65 7168.422)" fill="#0155a0"/>
      <path id="Trazado_104255" data-name="Trazado 104255" d="M196.658,148.919h0a2.743,2.743,0,0,1-2.743-2.748l.146-102.93A2.748,2.748,0,0,1,196.8,40.5h0a2.748,2.748,0,0,1,2.743,2.752L199.4,146.178a2.744,2.744,0,0,1-2.746,2.741" transform="translate(605.11 7088.824)" fill="#0155a0"/>
      <path id="Trazado_104229" data-name="Trazado 104229" d="M307.284,76.9A76.9,76.9,0,1,1,230.388,0a76.9,76.9,0,0,1,76.9,76.9" transform="translate(571.521 7055.177)" fill="#0155a0"/>
      <path id="Trazado_104230" data-name="Trazado 104230" d="M226.026,5.25A67.283,67.283,0,1,0,293.31,72.532,67.283,67.283,0,0,0,226.026,5.25m42.39,82.685c-2.007,0-15.586,4.312-42.381,4.312s-40.387-4.312-42.39-4.312c-8.686,0-12.972-1.606-3.654-9.354,2.561-11.754,8.226-21.19,16.328-27.644a3.387,3.387,0,0,1,1.274-4.544L203.481,43a3.391,3.391,0,0,1,4.639,1.243l.048.081a48.884,48.884,0,0,1,11.062-2.614v-.441a3.4,3.4,0,0,1,3.4-3.4h6.809a3.4,3.4,0,0,1,3.393,3.4v.441a48.776,48.776,0,0,1,11.06,2.614l.051-.081A3.39,3.39,0,0,1,248.576,43l5.888,3.394a3.386,3.386,0,0,1,1.276,4.544c8.1,6.454,13.764,15.89,16.326,27.644,9.314,7.748,5.031,9.354-3.651,9.354" transform="translate(575.882 7059.539)" fill="#f5f5f5"/>
      <g id="Grupo_57483" data-name="Grupo 57483" transform="translate(522.068 7708.619)" opacity="0.15">
        <g id="Grupo_57400" data-name="Grupo 57400">
          <g id="Grupo_57399" data-name="Grupo 57399" clip-path="url(#clip-path)">
            <g id="Grupo_57398" data-name="Grupo 57398" transform="translate(-0.001 0)">
              <g id="Grupo_57397" data-name="Grupo 57397" clip-path="url(#clip-path-2)">
                <rect id="Rectángulo_7774" data-name="Rectángulo 7774" width="552.242" height="50.799" transform="translate(0)" fill="url(#radial-gradient)"/>
              </g>
            </g>
          </g>
        </g>
      </g>
      <g id="Grupo_57484" data-name="Grupo 57484" transform="translate(500.603 7708.619)" opacity="0.3">
        <g id="Grupo_57405" data-name="Grupo 57405" transform="translate(0)">
          <g id="Grupo_57404" data-name="Grupo 57404" clip-path="url(#clip-path-3)">
            <g id="Grupo_57403" data-name="Grupo 57403" transform="translate(0 0)">
              <g id="Grupo_57402" data-name="Grupo 57402" clip-path="url(#clip-path-4)">
                <rect id="Rectángulo_7776" data-name="Rectángulo 7776" width="606.836" height="50.799" transform="translate(0)" fill="url(#radial-gradient-2)"/>
              </g>
            </g>
          </g>
        </g>
      </g>
      <path id="Trazado_104256" data-name="Trazado 104256" d="M231.167,239.777c0,16.348-13.739,5.919-24.6,5.919s-24.6,10.429-24.6-5.919,13.733-124.326,24.6-124.326,24.6,107.978,24.6,124.326" transform="translate(595.19 7133.748)" fill="#681e1e"/>
      <path id="Trazado_104285" data-name="Trazado 104285" d="M156.631,317.967H132.667c0-69.966,37.272-122.445,51.438-130.585L196.04,208.16l.234-.145c-7,4.945-39.643,49.358-39.643,109.952" transform="translate(563.152 7182.833)" fill="#ffcc80"/>
      <g id="Grupo_57490" data-name="Grupo 57490" transform="translate(695.819 7370.216)" opacity="0.05">
        <g id="Grupo_57408" data-name="Grupo 57408" transform="translate(0)">
          <g id="Grupo_57407" data-name="Grupo 57407" clip-path="url(#clip-path-5)">
            <path id="Trazado_103821" data-name="Trazado 103821" d="M196.04,208.16,184.1,187.382c-.154.088-.324.211-.483.309l10.868,18.916.234-.146c-7,4.945-39.645,49.36-39.645,109.954H132.693c-.006.518-.026,1.031-.026,1.553h23.964c0-60.594,32.646-105.007,39.643-109.954Z" transform="translate(-132.667 -187.382)" fill="#212121"/>
          </g>
        </g>
      </g>
      <path id="Trazado_104294" data-name="Trazado 104294" d="M129.235,283.09c-.536,14.123,6.289,25.952,15.233,26.4,24.314,1.216,16.642-10.645,17.183-24.771s-6.284-25.951-15.231-26.4c-15.114-.758-16.21-.815-17.184,24.773" transform="translate(562.088 7235.356)" fill="#ff8f00"/>
      <path id="Trazado_104293" data-name="Trazado 104293" d="M146.419,278.045c5.417,8.186,11.976,12.937,14.654,10.6s.45-10.862-4.963-19.052-11.97-12.95-14.652-10.615-.46,10.864,4.962,19.065" transform="translate(569.666 7236.528)" fill="#ff8f00"/>
      <path id="Trazado_104295" data-name="Trazado 104295" d="M163.02,252.384c.461,6.558-2.554,19.563-2.554,19.563l-28.858,1.961s-3.382-18.7-1.219-24.217c4.914,2.047,26.622,4.821,32.631,2.693" transform="translate(562.376 7230.717)" fill="#ff8f00"/>
      <g id="Grupo_57493" data-name="Grupo 57493" transform="translate(696.989 7481.056)" opacity="0.5">
        <g id="Grupo_57411" data-name="Grupo 57411" transform="translate(0)">
          <g id="Grupo_57410" data-name="Grupo 57410" clip-path="url(#clip-path-6)">
            <path id="Trazado_103825" data-name="Trazado 103825" d="M162.417,275.6a44.814,44.814,0,0,0-4.337-5.586c.61-2.774,2.79-13.195,2.393-18.85a9.774,9.774,0,0,1-1.514.375c-.086,5.835-1.886,14.438-2.433,16.924a44.494,44.494,0,0,1,4.339,5.584c5.412,8.193,7.638,16.723,4.963,19.054-1.726,1.505-5.07.037-8.676-3.369-.242,13.772,6.69,25.169-17.166,23.977a11.842,11.842,0,0,1-7.256-3.186,12.618,12.618,0,0,0,8.81,4.738c23.854,1.192,16.924-10.205,17.166-23.979,3.6,3.407,6.95,4.874,8.675,3.371,2.675-2.329.45-10.861-4.963-19.054" transform="translate(-132.73 -251.163)" fill="#212121"/>
          </g>
        </g>
      </g>
      <path id="Trazado_104231" data-name="Trazado 104231" d="M286.985,317.967H263.027c0-60.6-32.648-105.008-39.642-109.952l12.168-20.634c14.163,8.138,51.432,60.614,51.432,130.585" transform="translate(620.695 7182.833)" fill="#ffcc80"/>
      <g id="Grupo_57485" data-name="Grupo 57485" transform="translate(854.914 7370.216)" opacity="0.05">
        <g id="Grupo_57414" data-name="Grupo 57414" transform="translate(0)">
          <g id="Grupo_57413" data-name="Grupo 57413" clip-path="url(#clip-path-7)">
            <path id="Trazado_103827" data-name="Trazado 103827" d="M230.435,187.382l-.89,1.512c15.465,11.75,49.217,62.469,49.217,129.073h3.105c0-69.971-37.269-122.447-51.432-130.585" transform="translate(-229.545 -187.382)" fill="#212121"/>
          </g>
        </g>
      </g>
      <path id="Trazado_104232" data-name="Trazado 104232" d="M276.621,283.09c.536,14.123-6.287,25.952-15.233,26.4-24.317,1.216-16.65-10.645-17.183-24.771s6.28-25.951,15.225-26.4c15.119-.758,16.218-.815,17.19,24.773" transform="translate(635.563 7235.356)" fill="#ff8f00"/>
      <path id="Trazado_104233" data-name="Trazado 104233" d="M254.307,278.045c-5.417,8.186-11.979,12.937-14.654,10.6s-.45-10.862,4.967-19.052,11.972-12.95,14.647-10.615.458,10.864-4.96,19.065" transform="translate(633.114 7236.528)" fill="#ff8f00"/>
      <path id="Trazado_104234" data-name="Trazado 104234" d="M242.934,252.384c-.465,6.558,2.55,19.563,2.55,19.563l28.856,1.961s3.387-18.7,1.223-24.217c-4.916,2.047-26.626,4.821-32.629,2.693" transform="translate(635.177 7230.717)" fill="#ff8f00"/>
      <g id="Grupo_57486" data-name="Grupo 57486" transform="translate(870.367 7478.43)" opacity="0.5">
        <g id="Grupo_57417" data-name="Grupo 57417" transform="translate(0)">
          <g id="Grupo_57416" data-name="Grupo 57416" clip-path="url(#clip-path-8)">
            <path id="Trazado_103831" data-name="Trazado 103831" d="M280.7,290.083c-.394-10.267-.817-16.361-2.146-19.982.857-5.76,2.155-16.456.608-20.41a18.526,18.526,0,0,1-2.446.758c.286,4.952-.615,12.17-1.267,16.547,1.327,3.621,1.752,9.715,2.142,19.98.536,14.123-6.285,25.952-15.233,26.4-6.787.339-11.075-.344-13.753-1.809,1.8,3.506,6.318,5.441,16.86,4.914,8.947-.445,15.771-12.274,15.235-26.4m-41.077,5.789c1.174,1.022,3.1.646,5.342-.753,2.127-1.52,4.006-2.633,3.812-4.865-2.488,2.354-8.426,2.891-10.22,3.054a3.83,3.83,0,0,0,1.066,2.563" transform="translate(-238.557 -249.691)" fill="#212121"/>
          </g>
        </g>
      </g>
      <path id="Trazado_104235" data-name="Trazado 104235" d="M240.8,470.857H214.971L197.748,279.7l64.574-11.952Z" transform="translate(604.375 7226.596)" fill="#184054"/>
      <path id="Trazado_104257" data-name="Trazado 104257" d="M179.3,470.857h25.826L222.352,279.7l-64.578-11.952Z" transform="translate(579.031 7226.596)" fill="#184054"/>
      <path id="Trazado_104258" data-name="Trazado 104258" d="M220.431,330.2l-11.69-6.908H197.684l-11.7,6.908V264.487h34.442Z" transform="translate(598.539 7239.084)" fill="#184054"/>
      <g id="Grupo_57487" data-name="Grupo 57487" transform="translate(752.52 7494.347)" opacity="0.4">
        <g id="Grupo_57420" data-name="Grupo 57420" transform="translate(0)">
          <g id="Grupo_57419" data-name="Grupo 57419" clip-path="url(#clip-path-9)">
            <path id="Trazado_103835" data-name="Trazado 103835" d="M279.055,269.046l-20.725,195.6H238.152l.56,6.212h25.83L286.065,267.75Zm-57.564,45.326H205.446l-2.6,1.534-13.4,148.738H169.171l.657,6.212h25.828l13.4-148.74,2.6-1.532h11.057l2.6,1.532Z" transform="translate(-169.171 -267.75)" fill="#212121"/>
          </g>
        </g>
      </g>
      <path id="Trazado_104236" data-name="Trazado 104236" d="M158.755,282.911c0-88.807,30.039-112.489,67.09-112.489s67.082,23.682,67.082,112.489Z" transform="translate(575.914 7171.997)" fill="#153d51"/>
      <path id="Trazado_104237" data-name="Trazado 104237" d="M242.572,248.64c26.833,0,31.311-23.675,31.311-29.6s-13.42-29.6-44.728-41.445-4.473,47.364-4.473,47.364Z" transform="translate(614.966 7177.338)" fill="#153d51"/>
      <path id="Trazado_104286" data-name="Trazado 104286" d="M175.4,248.64c-26.833,0-31.3-23.675-31.3-29.6s13.411-29.6,44.722-41.445,4.471,47.364,4.471,47.364Z" transform="translate(570.563 7177.338)" fill="#153d51"/>
      <path id="Trazado_104238" data-name="Trazado 104238" d="M305.93,214.824c0,24.526-34.043,44.4-76.028,44.4s-76.033-19.876-76.033-44.4,34.043-44.4,76.033-44.4,76.028,19.878,76.028,44.4" transform="translate(571.855 7172.877)" fill="#153d51"/>
      <path id="Trazado_104239" data-name="Trazado 104239" d="M262.515,273.963c-20.035-9.951-24.345-42.862-15.154-88.547.278-1.393.557-2.746.844-4.125L219.8,170.421,195.4,236.24v115.2c0,9.079,5.784,16.456,12.915,16.456l47.355-5.487c7.129,0,12.919-7.371,12.919-16.459l-4.508-68.992c-.3-1.659.522-1.961-1.564-2.992" transform="translate(602.37 7168.222)" fill="#f57f17"/>
      <path id="Trazado_104240" data-name="Trazado 104240" d="M262.693,272.848c-.3-1.653.511-1.957-1.542-2.979l1.8,67.718c0,9.09-5.789,16.459-12.919,16.459l-47.355,5.487a10.592,10.592,0,0,1-5.612-1.7c2.371,3.607,5.883,5.95,9.863,5.95l47.355-5.487c7.131,0,12.92-7.369,12.92-16.458ZM251.772,262.2c-11.783-14.691-13.316-43.507-5.8-80.9.278-1.391.558-2.746.844-4.123l-4.753-1.818c-.114.562-.229,1.119-.346,1.69-8.336,41.467-5.515,72.346,10.051,85.147" transform="translate(603.607 7171.971)" fill="#e26910"/>
      <path id="Trazado_104241" data-name="Trazado 104241" d="M265.694,247.3H195.4v-10.97h69.615Z" transform="translate(602.544 7221.864)" fill="#212121"/>
      <path id="Trazado_104242" data-name="Trazado 104242" d="M267.507,262.283H195.4V251.314H266.78Z" transform="translate(602.435 7232.43)" fill="#212121"/>
      <path id="Trazado_104243" data-name="Trazado 104243" d="M232.072,175,210.71,289.107l-1.036,5.483-8.4-2.523.56-2.961,24.546-116.29Z" transform="translate(608.564 7173.27)" fill="#212121"/>
      <path id="Trazado_104259" data-name="Trazado 104259" d="M161.494,273.963c20.033-9.951,24.339-42.862,15.152-88.547-.28-1.393-.562-2.746-.842-4.125l28.4-10.87,24.4,65.819v115.2c0,9.079-5.786,16.456-12.917,16.456l-47.359-5.487c-7.133,0-12.911-7.371-12.911-16.459l4.508-68.992c.3-1.659-.524-1.961,1.564-2.992" transform="translate(577.131 7168.222)" fill="#f57f17"/>
      <path id="Trazado_104260" data-name="Trazado 104260" d="M202.634,170.422l-1.712.655,23.01,62.059v115.2c0,9.076-5.785,16.452-12.918,16.452L163.657,359.3a10.782,10.782,0,0,1-6.342-2.2c2.358,3.244,5.7,5.306,9.447,5.306l47.357,5.487c7.133,0,12.918-7.375,12.918-16.454v-115.2Z" transform="translate(578.493 7168.222)" fill="#e26910"/>
      <path id="Trazado_104261" data-name="Trazado 104261" d="M157,247.3h70.3v-10.97H157.686Z" transform="translate(578.266 7221.864)" fill="#212121"/>
      <path id="Trazado_104262" data-name="Trazado 104262" d="M156.011,262.283h72.112V251.314H156.739Z" transform="translate(577.554 7232.43)" fill="#212121"/>
      <path id="Trazado_104263" data-name="Trazado 104263" d="M172.767,174.946,194.01,289.107l1.029,5.483,8.4-2.523-.558-2.96-24.541-116.29Z" transform="translate(590.22 7173.271)" fill="#212121"/>
      <path id="Trazado_104264" data-name="Trazado 104264" d="M198.525,318.827a2.215,2.215,0,1,1-4.3,0V209.118a2.216,2.216,0,1,1,4.3,0Z" transform="translate(605.377 7196.514)" fill="#212121"/>
      <path id="Trazado_104265" data-name="Trazado 104265" d="M200.48,209.368h-4.308l-4.3,16.458,2.148,5.485h8.616l2.151-5.485Zm-2.153,19.409a3.372,3.372,0,1,1,3.372-3.371,3.369,3.369,0,0,1-3.372,3.371" transform="translate(603.423 7202.452)" fill="#e0e0e0"/>
      <path id="Trazado_104266" data-name="Trazado 104266" d="M229.084,182.759c-3.387,7.078-12.448,12.142-23.169,12.142s-19.786-5.064-23.173-12.142c.553-4.694,1.168-9.881,1.908-15.372,4.255-5.428,12.142-9.09,21.265-9.09s17.009,3.662,21.264,9.09c.74,5.491,1.355,10.678,1.906,15.372" transform="translate(595.84 7166.116)" fill="#ffb74d"/>
      <path id="Trazado_104244" data-name="Trazado 104244" d="M253.056,161.417c0,29.488-17.757,62.818-39.658,62.818s-39.664-33.331-39.664-62.818,17.756-43.972,39.664-43.972,39.658,14.482,39.658,43.972" transform="translate(588.358 7135.833)" fill="#ffcc80"/>
      <path id="Trazado_104245" data-name="Trazado 104245" d="M221.659,153.769c-.961,7.485.873,13.832-3.246,13.395s-6.673-6.868-5.712-14.352,5.093-13.2,9.213-12.763.714,6.227-.255,13.72" transform="translate(616.884 7153.546)" fill="#ffcc80"/>
      <path id="Trazado_104287" data-name="Trazado 104287" d="M174.311,153.769c.961,7.485-.881,13.832,3.246,13.395s6.677-6.868,5.71-14.352-5.093-13.2-9.213-12.763-.71,6.227.256,13.72" transform="translate(590.649 7153.546)" fill="#ffcc80"/>
      <path id="Trazado_104267" data-name="Trazado 104267" d="M227.944,174.709c0,12.362-10.02,20.59-22.388,20.59s-22.388-8.228-22.388-20.59c0-7.583,5.057-15.494,11.033-20.476,3.768-3.136,5.375-7.622,11.355-7.622,6.146,0,7.594,4.487,11.366,7.627,5.969,4.982,11.022,12.889,11.022,20.471" transform="translate(596.196 7157.6)" fill="#f5f5f5"/>
      <path id="Trazado_104288" data-name="Trazado 104288" d="M198.826,166.362a1.528,1.528,0,0,1-1.027-.4l-24.392-22.113a1.524,1.524,0,0,1,2.049-2.256l24.4,22.108a1.528,1.528,0,0,1-1.025,2.657" transform="translate(590.461 7154.422)" fill="#f5f5f5"/>
      <path id="Trazado_104246" data-name="Trazado 104246" d="M204.42,166.364a1.528,1.528,0,0,1-1.042-2.642l23.629-22.109a1.526,1.526,0,1,1,2.085,2.228l-23.631,22.111a1.521,1.521,0,0,1-1.042.412" transform="translate(609.835 7154.421)" fill="#f5f5f5"/>
      <path id="Trazado_104289" data-name="Trazado 104289" d="M193.017,176.584a1.513,1.513,0,0,1-1.078-.447L176.68,160.879a1.524,1.524,0,0,1,2.153-2.159L194.1,173.976a1.528,1.528,0,0,1,0,2.157,1.512,1.512,0,0,1-1.08.45" transform="translate(593.033 7166.609)" fill="#f5f5f5"/>
      <path id="Trazado_104268" data-name="Trazado 104268" d="M206.083,176.583a1.5,1.5,0,0,1-1.069-.447,1.521,1.521,0,0,1,0-2.16l15.247-15.257a1.526,1.526,0,1,1,2.157,2.159L207.17,176.136a1.537,1.537,0,0,1-1.088.447" transform="translate(611.367 7166.61)" fill="#f5f5f5"/>
      <path id="Trazado_104269" data-name="Trazado 104269" d="M213.135,158.4a1.467,1.467,0,0,1-1.523,1.529c-1.527,0-7.627-6.108-10.676-6.1s-9.156,6.1-10.681,6.1a1.526,1.526,0,0,1-1.523-1.529,1.443,1.443,0,0,1,1.523-1.527c1.525,0,4.577-6.1,10.681-6.1s9.149,6.1,10.676,6.1a1.524,1.524,0,0,1,1.523,1.527" transform="translate(600.817 7161.564)" fill="#757575"/>
      <path id="Trazado_104270" data-name="Trazado 104270" d="M208.215,161.25a.986.986,0,0,1-.833,1.055c-5.313.159-10.654.159-15.969,0a.982.982,0,0,1-.831-1.055.95.95,0,0,1,.837-1.029h15.96a.953.953,0,0,1,.837,1.029" transform="translate(602.354 7168.416)" fill="#bdbdbd"/>
      <path id="Trazado_104271" data-name="Trazado 104271" d="M210.748,164.55a1.2,1.2,0,0,1-.987,1.152,65.52,65.52,0,0,1-19.145,0,1.206,1.206,0,0,1-.987-1.152.868.868,0,0,1,.99-.879,86.641,86.641,0,0,0,19.138,0,.865.865,0,0,1,.99.879" transform="translate(601.563 7170.835)" fill="#bdbdbd"/>
      <path id="Trazado_104272" data-name="Trazado 104272" d="M209.422,168.038a1.306,1.306,0,0,1-.9,1.239,37.807,37.807,0,0,1-17.5,0,1.308,1.308,0,0,1-.9-1.239.756.756,0,0,1,.9-.82,43.761,43.761,0,0,0,17.492,0,.755.755,0,0,1,.9.82" transform="translate(601.977 7173.324)" fill="#bdbdbd"/>
      <path id="Trazado_104273" data-name="Trazado 104273" d="M244.195,152.851c0,25.533-27.466,8.51-33.569,8.51s-33.563,16.956-33.563-8.574c0-18.309,0-15.258,33.563-15.258s33.569-3.05,33.569,15.322" transform="translate(591.123 7151.6)" fill="#263238"/>
      <path id="Trazado_104247" data-name="Trazado 104247" d="M253.059,140.424c0,2.115-1.366,3.836-3.047,3.836H176.788c-1.684,0-3.054-1.721-3.054-3.836s1.369-3.839,3.054-3.839h73.225c1.681,0,3.047,1.719,3.047,3.839" transform="translate(588.357 7151.586)" fill="#263238"/>
      <path id="Trazado_104274" data-name="Trazado 104274" d="M215.118,152.7c1.681,0,3.05-6.827,3.05-15.256H212.06c0,8.429,1.362,15.256,3.058,15.256" transform="translate(616.888 7152.016)" fill="#263238"/>
      <path id="Trazado_104290" data-name="Trazado 104290" d="M178.447,152.7c1.688,0,3.061-6.827,3.061-15.256H175.4c0,8.429,1.364,15.256,3.047,15.256" transform="translate(593.05 7152.016)" fill="#263238"/>
      <path id="Trazado_104275" data-name="Trazado 104275" d="M206.26,147.657v-6.1l-.762-1.525c-4.821,0-5.9-.059-9.444-.114-2.613-.042-4.9-.079-6.9-.079-7.054,0-8.579.575-8.859.914-.727.877-.727,5.7-.727,9.96,0,3.825.709,6.591,2.056,8,.357.379,1.441,1.52,4.7,1.52,4.273,0,9.643-1.875,13.955-3.378,3.561-1.245,4.464-2.142,4.464-2.142Z" transform="translate(594.789 7153.58)" fill="#bbdefb"/>
      <path id="Trazado_104276" data-name="Trazado 104276" d="M188.41,149.592a2.923,2.923,0,1,1,3.427-2.88,3.186,3.186,0,0,1-3.427,2.88" transform="translate(599.247 7156.75)" fill="#90caf9"/>
      <path id="Trazado_104277" data-name="Trazado 104277" d="M222.611,140.756c-.282-.342-1.813-.917-8.889-.917-2,0-4.288.033-6.906.075-3.537.053-4.606.114-9.409.114l-.762,1.525v6.1l1.523,7.054s.915.9,4.493,2.155c4.315,1.514,9.687,3.4,13.962,3.4,2.675,0,6.716,0,6.716-9.5,0-4.491,0-9.127-.729-10.011" transform="translate(605.804 7153.58)" fill="#bbdefb"/>
      <path id="Trazado_104278" data-name="Trazado 104278" d="M205.489,149.6a2.923,2.923,0,1,1,3.426-2.88,3.185,3.185,0,0,1-3.426,2.88" transform="translate(610.352 7156.756)" fill="#90caf9"/>
      <path id="Trazado_104248" data-name="Trazado 104248" d="M216.168,116.884c22.3,0,40.378,20.489,40.378,45.766h5.388c0-28.647-20.495-51.87-45.766-51.87S170.4,134,170.4,162.65h5.381c0-25.277,18.08-45.766,40.387-45.766" transform="translate(585.588 7132.501)" fill="#ff8f00"/>
      <path id="Trazado_104291" data-name="Trazado 104291" d="M179.878,169.91a3.608,3.608,0,0,1-7.2.414l-1.858-32.4a3.607,3.607,0,1,1,7.2-.414Z" transform="translate(589.936 7149.09)" fill="#212121"/>
      <path id="Trazado_104292" data-name="Trazado 104292" d="M177.171,168.593c-5.969.34-11.219-6.633-11.728-15.579s3.907-16.481,9.868-16.822Z" transform="translate(586.31 7150.726)" fill="#ff8f00"/>
      <g id="Grupo_57491" data-name="Grupo 57491" transform="translate(757.904 7292.132)" opacity="0.1">
        <g id="Grupo_57423" data-name="Grupo 57423" transform="translate(0)">
          <g id="Grupo_57422" data-name="Grupo 57422" clip-path="url(#clip-path-10)">
            <path id="Trazado_103876" data-name="Trazado 103876" d="M168.986,164.456c2.547-5.218,4.006-18.883,3.664-25.28L174.2,166.1a8.147,8.147,0,0,1-5.218-1.646" transform="translate(-168.986 -139.176)" fill="#212121"/>
          </g>
        </g>
      </g>
      <path id="Trazado_104249" data-name="Trazado 104249" d="M215.034,169.91a3.609,3.609,0,0,0,7.206.414l1.847-32.4a3.6,3.6,0,1,0-7.193-.414Z" transform="translate(618.655 7149.09)" fill="#212121"/>
      <path id="Trazado_104250" data-name="Trazado 104250" d="M218.963,168.593c5.969.34,11.214-6.633,11.732-15.579s-3.905-16.481-9.876-16.822Z" transform="translate(621.059 7150.726)" fill="#ff8f00"/>
      <g id="Grupo_57488" data-name="Grupo 57488" transform="translate(840.011 7301.416)" opacity="0.1">
        <g id="Grupo_57426" data-name="Grupo 57426" transform="translate(0)">
          <g id="Grupo_57425" data-name="Grupo 57425" clip-path="url(#clip-path-11)">
            <path id="Trazado_103879" data-name="Trazado 103879" d="M230.729,144.486c0,.527,0,1.088-.029,1.646-.529,8.946-5.778,15.9-11.743,15.559l.216-3.6c7.14-.5,10.161-9.563,11.556-13.6" transform="translate(-218.957 -144.486)" fill="#212121"/>
          </g>
        </g>
      </g>
      <path id="Trazado_104251" data-name="Trazado 104251" d="M257.222,155.363c-1.864,0-14.658,4.068-39.905,4.068s-38.045-4.068-39.938-4.068c-8.169,0-12.206-1.49-3.418-8.79,2.393-11.086,7.734-19.969,15.375-26.057a3.143,3.143,0,0,1,1.21-4.255l5.529-3.23a3.233,3.233,0,0,1,4.376,1.181l.033.093c.062-.031.124-.031.187-.064a44.915,44.915,0,0,1,10.247-2.42v-.4a1.927,1.927,0,0,1,.033-.436,3.213,3.213,0,0,1,3.167-2.765h6.4a3.2,3.2,0,0,1,3.2,3.2v.4a.2.2,0,0,1,.126.029,43.841,43.841,0,0,1,10.308,2.455l.033-.093c0-.031.033-.031.064-.062a3.174,3.174,0,0,1,4.317-1.119l5.527,3.23a3.139,3.139,0,0,1,1.208,4.255c7.642,6.088,12.984,14.971,15.374,26.057,8.79,7.3,4.755,8.79-3.448,8.79" transform="translate(584.438 7130.728)" fill="#f57f17"/>
      <path id="Trazado_104279" data-name="Trazado 104279" d="M210.2,112.5l-1.71,16.119a5.279,5.279,0,0,1-10.531-.529,3.206,3.206,0,0,1,.033-.56l1.8-17.329a43.854,43.854,0,0,1,10.309,2.453l.033-.092c0-.031.031-.031.064-.062" transform="translate(607.406 7132.673)" fill="#e26910"/>
      <path id="Trazado_104280" data-name="Trazado 104280" d="M198.51,127.547a3.02,3.02,0,0,1,.031.529,5.311,5.311,0,0,1-4.753,5.278,5.256,5.256,0,0,1-5.806-4.72l-1.677-16.025a44.8,44.8,0,0,1,10.247-2.422Z" transform="translate(599.849 7132.661)" fill="#e26910"/>
      <path id="Trazado_104252" data-name="Trazado 104252" d="M238.75,136.356c-29.158,8.167-36.181,5.776-43.353,5.776,8.821-2.3,43.074-1.428,37.049-21.615a48.861,48.861,0,0,1,6.3,15.839" transform="translate(604.099 7139.952)" fill="#e26910"/>
      <path id="Trazado_104253" data-name="Trazado 104253" d="M273.4,426.271a2.059,2.059,0,0,1,.273-1.031,11.786,11.786,0,0,0,.69-4.158,6.81,6.81,0,0,0-1.384-4.158,12.3,12.3,0,0,0-4.015-2.267l-3.061-1.018a41.8,41.8,0,0,0-5.363-1.329l-11.17-1.866a10.173,10.173,0,0,1-4.7-2.411l-4.4-4.4a6.449,6.449,0,0,1-1.613-4.714l2.091-16.686c.185-1.512.449-3.989.591-5.509l1.631-18.034H203.15l1.637,18.034c.145,1.52.458,4,.714,5.5l1.862,11.166a40.713,40.713,0,0,1,.454,5.505,20.285,20.285,0,0,1-.884,5.408l-1.011,3.05a20.292,20.292,0,0,0-.879,5.41v9.705a7.424,7.424,0,0,0,.694,2.77,1.875,1.875,0,0,1,.256,1.095c9.672-1.607,44.737,1.1,67.407-.064" transform="translate(607.389 7302.156)" fill="#dedede"/>
      <g id="Grupo_57489" data-name="Grupo 57489" transform="translate(841.5 7660.848)" opacity="0.5">
        <g id="Grupo_57429" data-name="Grupo 57429" transform="translate(0)">
          <g id="Grupo_57428" data-name="Grupo 57428" clip-path="url(#clip-path-12)">
            <path id="Trazado_103885" data-name="Trazado 103885" d="M258.287,416.924a12.27,12.27,0,0,0-4.015-2.265l-3.061-1.02a41.823,41.823,0,0,0-5.364-1.329l-11.17-1.864a10.2,10.2,0,0,1-4.7-2.411l-4.394-4.4a6.441,6.441,0,0,1-1.613-4.714l2.087-16.685c.187-1.512.452-3.991.6-5.511l1.629-18.034h-3.1l-1.631,18.034c-.143,1.52-.41,4-.6,5.511l-2.084,16.685a6.445,6.445,0,0,0,1.607,4.714l4.4,4.4a10.213,10.213,0,0,0,4.7,2.411l11.172,1.864a42,42,0,0,1,5.361,1.329l3.063,1.02a12.28,12.28,0,0,1,4.017,2.265,6.82,6.82,0,0,1,1.381,4.158,11.779,11.779,0,0,1-.69,4.158,2.067,2.067,0,0,0-.273,1.031c-3.83.2-8.028.276-12.38.293,5.472.017,10.754-.049,15.485-.293a2.093,2.093,0,0,1,.275-1.031,11.778,11.778,0,0,0,.69-4.158,6.821,6.821,0,0,0-1.384-4.158" transform="translate(-220.835 -358.692)" fill="#212121"/>
          </g>
        </g>
      </g>
      <path id="Trazado_104254" data-name="Trazado 104254" d="M272.815,396c-.176,0-.262-.143-.275-.357-22.668,1.161-57.734-1.545-67.406.064-.027.172-.1.293-.256.293-.379,0-.694.934-.694,2.078a8.9,8.9,0,0,0,.346,2.777c.187.379,1.595.688,3.118.688h13.175c1.523,0,2.766-.624,2.766-1.386s1.252-1.388,2.779-1.388h2.768a6.783,6.783,0,0,1,4.158,1.388,6.807,6.807,0,0,0,4.165,1.386h31.886a6.8,6.8,0,0,0,3.469-.688,4.918,4.918,0,0,0,.69-2.777c0-1.144-.311-2.078-.69-2.078" transform="translate(608.161 7332.475)" fill="#212121"/>
      <path id="Trazado_104281" data-name="Trazado 104281" d="M149.712,426.271a2.1,2.1,0,0,0-.273-1.031,11.781,11.781,0,0,1-.692-4.158,6.81,6.81,0,0,1,1.384-4.158,12.3,12.3,0,0,1,4.015-2.267l3.063-1.018a41.694,41.694,0,0,1,5.361-1.329l11.172-1.866a10.182,10.182,0,0,0,4.7-2.411l4.4-4.4a6.454,6.454,0,0,0,1.609-4.714l-2.087-16.686c-.185-1.512-.45-3.989-.593-5.509l-1.633-18.034h39.825l-1.637,18.034c-.143,1.52-.458,4-.71,5.5l-1.866,11.166a41.007,41.007,0,0,0-.452,5.505,20.36,20.36,0,0,0,.884,5.408l1.012,3.05a20.367,20.367,0,0,1,.881,5.41v9.705a7.462,7.462,0,0,1-.7,2.77,1.925,1.925,0,0,0-.258,1.095c-9.672-1.607-44.737,1.1-67.4-.064" transform="translate(573.006 7302.156)" fill="#dedede"/>
      <g id="Grupo_57492" data-name="Grupo 57492" transform="translate(781.571 7660.848)" opacity="0.5">
        <g id="Grupo_57432" data-name="Grupo 57432" transform="translate(0)">
          <g id="Grupo_57431" data-name="Grupo 57431" clip-path="url(#clip-path-13)">
            <path id="Trazado_103888" data-name="Trazado 103888" d="M188.821,382.226c.253-1.5.569-3.98.71-5.5l1.637-18.034h-3.105l-1.639,18.034c-.141,1.52-.458,4-.709,5.5l-1.866,11.166a40.685,40.685,0,0,0-.452,5.5,20.431,20.431,0,0,0,.882,5.41l1.014,3.05a20.368,20.368,0,0,1,.881,5.41v9.7a7.463,7.463,0,0,1-.7,2.77,2.332,2.332,0,0,0-.24.78c1.179.082,2.256.179,3.087.317a1.927,1.927,0,0,1,.258-1.1,7.462,7.462,0,0,0,.7-2.77v-9.7a20.368,20.368,0,0,0-.881-5.41l-1.012-3.05a20.361,20.361,0,0,1-.884-5.41,40.983,40.983,0,0,1,.452-5.5Z" transform="translate(-183.398 -358.692)" fill="#212121"/>
          </g>
        </g>
      </g>
      <path id="Trazado_104282" data-name="Trazado 104282" d="M149.439,396c.174,0,.258-.143.273-.357,22.668,1.161,57.734-1.545,67.406.064.026.172.1.293.256.293.379,0,.7.934.7,2.078a8.884,8.884,0,0,1-.348,2.777c-.187.379-1.593.688-3.118.688H201.432c-1.527,0-2.768-.624-2.768-1.386s-1.254-1.388-2.779-1.388h-2.77a6.781,6.781,0,0,0-4.156,1.388,6.805,6.805,0,0,1-4.163,1.386H152.907a6.789,6.789,0,0,1-3.468-.688,4.916,4.916,0,0,1-.692-2.777c0-1.144.313-2.078.692-2.078" transform="translate(573.092 7332.475)" fill="#212121"/>
      <g id="Grupo_57494" data-name="Grupo 57494" transform="translate(513.787 7186.246)">
        <path id="Trazado_103809" data-name="Trazado 103809" d="M172.792,155.123a76.9,76.9,0,1,1-76.9-76.9,76.9,76.9,0,0,1,76.9,76.9" transform="translate(-19 -78.227)" fill="#0155a0"/>
        <path id="Trazado_103810" data-name="Trazado 103810" d="M91.532,83.477a67.283,67.283,0,1,0,67.286,67.282A67.282,67.282,0,0,0,91.532,83.477m37.3,100.325a3.627,3.627,0,0,1-3.744,3.528,3.688,3.688,0,0,1-3.339-3.96l1.831-33.71a3.613,3.613,0,0,1,3.746-3.523,3.68,3.68,0,0,1,3.336,3.958c.106.006.209.031.311.042a43.031,43.031,0,0,0-11.154-23.766c-1.536.108-4.31-1.216-7.047-3.512a21.825,21.825,0,0,1-3.248-3.33,14.5,14.5,0,0,1-7.009-1.488,18.892,18.892,0,0,1-4.919-3.021,19.237,19.237,0,0,1-12.131,0,18.871,18.871,0,0,1-4.925,3.021,14.482,14.482,0,0,1-7,1.488,21.69,21.69,0,0,1-3.252,3.33c-2.739,2.3-5.515,3.62-7.051,3.51a43.043,43.043,0,0,0-11.154,23.768c.106-.009.209-.035.317-.042a3.676,3.676,0,0,1,3.339-3.958,3.611,3.611,0,0,1,3.74,3.523l1.835,33.71a3.69,3.69,0,0,1-3.339,3.96,3.623,3.623,0,0,1-3.744-3.528c-5.868.352-11.029-6.9-11.538-16.209a23.145,23.145,0,0,1,2.162-11.505v-.057c0-27.2,20.936-49.323,46.674-49.323s46.678,22.126,46.678,49.323v.062a23.212,23.212,0,0,1,2.164,11.5c-.511,9.3-5.672,16.556-11.538,16.209" transform="translate(-14.638 -74.279)" fill="#f5f5f5"/>
      </g>
      <path id="Trazado_104296" data-name="Trazado 104296" d="M153.792,270.123a76.9,76.9,0,1,1-76.9-76.9,76.9,76.9,0,0,1,76.9,76.9" transform="translate(479 7185.7)" fill="#0155a0"/>
      <path id="Trazado_104297" data-name="Trazado 104297" d="M72.534,198.478a67.282,67.282,0,1,0,67.284,67.28,67.283,67.283,0,0,0-67.284-67.28m-47,52.058c0-5.374,1.294-8.464,3.956-9.455,5.923-2.206,15.641,7.907,26.055,19.872-.674.745-1.333,1.532-1.965,2.358-6.289-7.254-18.572-21.035-23.032-19.392-1.278.478-1.983,2.825-1.983,6.617,0,14.453,10.134,26.622,19.116,33.845a22.631,22.631,0,0,0,1.487,4.894c-10.5-7.347-23.634-21.74-23.634-38.739m47,49.911c-12.289,0-22.247-8.173-22.247-20.462,0-7.539,5.024-15.4,10.965-20.35,3.74-3.116,5.341-7.582,11.282-7.582,6.115,0,7.547,4.465,11.293,7.587,5.936,4.951,10.956,12.81,10.956,20.344,0,12.289-9.96,20.462-22.249,20.462M95.9,289.272a22.584,22.584,0,0,0,1.487-4.892c8.984-7.223,19.116-19.391,19.116-33.843,0-3.792-.7-6.139-1.981-6.615-4.453-1.659-16.741,12.131-23.032,19.389-.633-.828-1.293-1.615-1.965-2.36,10.41-11.963,20.119-22.078,26.053-19.868,2.662.99,3.956,4.081,3.956,9.455,0,17-13.127,31.39-23.634,38.735M83.147,265.7c-1.516,0-4.548-6.064-10.612-6.064s-9.1,6.064-10.615,6.064a1.431,1.431,0,0,0-1.512,1.514,1.512,1.512,0,0,0,1.512,1.518c1.518,0,7.582-6.064,10.615-6.064s9.1,6.064,10.612,6.064a1.457,1.457,0,0,0,1.514-1.518,1.513,1.513,0,0,0-1.514-1.514" transform="translate(483.362 7190.203)" fill="#f5f5f5"/>
      <path id="Trazado_104298" data-name="Trazado 104298" d="M43.25,407.566a2.746,2.746,0,0,1-1.716-4.892L188.7,285.115a2.747,2.747,0,0,1,3.429,4.291L44.962,406.966a2.731,2.731,0,0,1-1.712.6" transform="translate(512.651 7240.528)" fill="#0155a0"/>
      <path id="Trazado_104299" data-name="Trazado 104299" d="M153.792,385.123a76.9,76.9,0,1,1-76.9-76.9,76.9,76.9,0,0,1,76.9,76.9" transform="translate(479 7260.228)" fill="#0155a0"/>
      <path id="Trazado_104300" data-name="Trazado 104300" d="M72.534,313.478a67.284,67.284,0,1,0,67.284,67.282,67.283,67.283,0,0,0-67.284-67.282M45.128,393.224,26.136,382.146a5.358,5.358,0,1,1,5.4-9.255l7.636,4.456-8.019-21.315a4.643,4.643,0,0,1,8.682-3.292l-1.624-4.315-.005-.013a4.645,4.645,0,0,1,8.695-3.274v0l.815,2.166a4.646,4.646,0,0,1,8.7-3.263v0l2.45,6.512a4.642,4.642,0,1,1,8.693-3.259l1.829,4.863a8.3,8.3,0,0,0-5.071,9.91l5.275,20.075L59.85,399.317a5.375,5.375,0,0,0-4.423,3.129,5.31,5.31,0,0,0-.458,1.954L48.846,406.7Zm7.572,26.65a2.323,2.323,0,1,1-1.637-4.348l.2-.066-1.445-5.236,6.251-2.353a5.283,5.283,0,0,0,2.027,1.651l10.037,4.548Zm46.634-.088a2.324,2.324,0,0,1-1.913,4.237L59.343,406.764a2.324,2.324,0,0,1,1.921-4.233l.192.09,2.679-4.718,36.791,16.666-1.783,5.126Zm7.468-22.111h0l-4.68,13.448-36.19-16.4,6.9-12.164L67.246,361.3a5.356,5.356,0,0,1,10.361-2.722l2.246,8.554,9.4-20.747a4.644,4.644,0,0,1,8.47,3.814l1.9-4.2,0-.009a4.645,4.645,0,0,1,8.464,3.83l-.95,2.107a4.643,4.643,0,0,1,8.453,3.843h.006l-2.88,6.34a4.645,4.645,0,1,1,8.459,3.841Z" transform="translate(483.362 7264.59)" fill="#f5f5f5"/>
      <path id="Trazado_104224" data-name="Trazado 104224" d="M234.725,397.168a2.747,2.747,0,0,1-.538-5.44l212.4-42.749a2.746,2.746,0,0,1,1.082,5.385l-212.4,42.75a2.916,2.916,0,0,1-.546.053" transform="translate(601.725 7294.043)" fill="#0155a0"/>
      <path id="Trazado_104225" data-name="Trazado 104225" d="M460.776,385.123a76.9,76.9,0,1,1-76.9-76.9,76.9,76.9,0,0,1,76.9,76.9" transform="translate(664.041 7260.228)" fill="#0155a0"/>
      <path id="Trazado_104226" data-name="Trazado 104226" d="M379.518,313.477A67.284,67.284,0,1,0,446.8,380.763a67.284,67.284,0,0,0-67.284-67.286m-10.9,23.7h36.317l-.006,4.235H377.7v7.874h-8.64l-.218-2.435c-.125-1.324-.218-3.5-.218-4.83Zm-17.347,79.893H345.62a5.923,5.923,0,0,1-3.026-.6,4.268,4.268,0,0,1-.6-2.424c0-.989.273-1.811.6-1.811s.335-.544,0-1.212a10.3,10.3,0,0,1-.6-3.631,5.948,5.948,0,0,1,1.2-3.631,10.754,10.754,0,0,1,3.512-1.977l2.669-.888a37.166,37.166,0,0,1,4.683-1.164l9.749-1.626a8.817,8.817,0,0,0,4.1-2.111l3.843-3.839a5.607,5.607,0,0,0,1.406-4.118l-1.816-14.559c-.17-1.322-.4-3.486-.518-4.815l-1.437-15.749h8.431c.035.538.068,1.053.11,1.483l.247,2.754,1.736,19.055c.123,1.353.361,3.561.529,4.908l1.822,14.572a2.79,2.79,0,0,1-.549,1.593l-3.837,3.837a6.031,6.031,0,0,1-2.45,1.265l-9.757,1.624a40.6,40.6,0,0,0-5.143,1.272l-2.673.892a13.655,13.655,0,0,0-4.691,2.712,8.852,8.852,0,0,0-2.095,5.771,16.161,16.161,0,0,0,.205,2.419m63.564-41.143c-.121,1.322-.4,3.482-.615,4.8l-1.626,9.747a35.509,35.509,0,0,0-.4,4.813,17.967,17.967,0,0,0,.765,4.709l.892,2.671a17.863,17.863,0,0,1,.765,4.722v8.471a6.508,6.508,0,0,1-.6,2.422c-.335.672-.335,1.208,0,1.208s.6.822.6,1.82a7.692,7.692,0,0,1-.3,2.419c-.168.335-1.4.6-2.726.6h-11.5c-1.333,0-2.422-.547-2.422-1.21s-1.089-1.208-2.417-1.208H392.83a5.954,5.954,0,0,0-3.631,1.208,5.9,5.9,0,0,1-3.632,1.21H357.725a5.864,5.864,0,0,1-3.023-.6,4.244,4.244,0,0,1-.61-2.419c0-1,.276-1.82.61-1.82s.335-.536,0-1.208a10.239,10.239,0,0,1-.61-3.632,5.9,5.9,0,0,1,1.214-3.631,10.713,10.713,0,0,1,3.506-1.979l2.669-.893A38.928,38.928,0,0,1,366.169,407l9.751-1.624a8.881,8.881,0,0,0,4.1-2.113l3.837-3.834a5.618,5.618,0,0,0,1.412-4.116l-1.825-14.566c-.163-1.322-.392-3.49-.518-4.812l-1.43-15.747H416.27Zm2.2-26.641c0,1.331-.1,3.5-.218,4.832l-.218,2.43H381.169l-.225-2.43c-.121-1.327-.222-3.5-.222-4.832l0-4.844h36.315Z" transform="translate(668.403 7264.59)" fill="#f5f5f5"/>
      <path id="Trazado_104227" data-name="Trazado 104227" d="M460.776,270.122a76.9,76.9,0,1,1-76.9-76.9,76.9,76.9,0,0,1,76.9,76.9" transform="translate(664.041 7185.7)" fill="#0155a0"/>
      <path id="Trazado_104228" data-name="Trazado 104228" d="M379.512,198.478A67.282,67.282,0,1,0,446.8,265.762a67.283,67.283,0,0,0-67.289-67.284M338.629,266.86c7.97-3.625,13.058-12.953,11.846-22.966l-2.221-21.425,7.166-1.005,10.148,55.118H338.629Zm40.883,36.782c0,4.484-3.23,8.118-7.214,8.118l-26.454-2.7c-3.986,0-7.215-3.634-7.215-8.116V295.52h40.883Zm0-13.532H338.629v-8.118h40.883Zm0-13.528h-8.275l-10.293-55.9,6.549-.923,12.02,29.762Zm12.027-56.822,6.551.923-10.3,55.9h-5.249V248.936l-1.4-3.453Zm28.86,81.18c0,4.482-3.228,8.116-7.214,8.116l-26.452,2.7a6.878,6.878,0,0,1-5.427-2.812,11.862,11.862,0,0,0,1.236-5.306V295.52H420.4Zm0-10.829H382.542v-8.118H420.4Zm0-13.528H393.458l10.156-55.118,7.168,1.005-2.226,21.425c-1.216,10.013,3.878,19.341,11.844,22.966Z" transform="translate(668.403 7190.203)" fill="#f5f5f5"/>
      <path id="Trazado_104220" data-name="Trazado 104220" d="M235.645,157.3a2.747,2.747,0,0,1-.514-5.445l174.993-33.669a2.746,2.746,0,0,1,1.036,5.394L236.167,157.25a2.81,2.81,0,0,1-.522.049" transform="translate(616.738 7137.915)" fill="#0155a0"/>
      <path id="Trazado_104221" data-name="Trazado 104221" d="M441.776,155.122a76.9,76.9,0,1,1-76.9-76.9,76.9,76.9,0,0,1,76.9,76.9" transform="translate(648.254 7108.018)" fill="#0155a0"/>
      <path id="Trazado_104222" data-name="Trazado 104222" d="M360.513,83.477A67.283,67.283,0,1,0,427.8,150.759a67.286,67.286,0,0,0-67.287-67.282m47.005,67.282a3.032,3.032,0,0,1-3.034,3.034h-1.726a24.278,24.278,0,0,1-24.05,21.225c-5.489,0-8.087-1.124-12.128-3.032-1.014-.476-3.028-3.03-6.06-2.891-3.034-.139-5.053,2.415-6.067,2.891-4.035,1.908-6.639,3.032-12.128,3.032a24.276,24.276,0,0,1-24.048-21.225h-1.723a3.031,3.031,0,0,1-3.037-3.034V138.633a3.032,3.032,0,0,1,3.037-3.032h1.512v-3.032a6.072,6.072,0,0,1,6.067-6.067h72.771a6.065,6.065,0,0,1,6.062,6.067V135.6h1.518a3.032,3.032,0,0,1,3.034,3.032Zm-28.81-17.432H342.326c-14.665,0-17.432,2.77-17.432,17.432A17.443,17.443,0,0,0,342.326,168.2c3.361,0,6.39-1.567,9.328-3.092,2.827-1.459,5.743-2.973,8.867-2.973s6.042,1.514,8.861,2.971c2.937,1.527,5.97,3.094,9.326,3.094a17.457,17.457,0,0,0,17.437-17.439c0-7.955-.89-11.95-3.184-14.239s-6.289-3.193-14.253-3.193" transform="translate(652.617 7111.967)" fill="#f5f5f5"/>
    </g>
  </g>
</svg>
