<svg id="Grupo_57678" data-name="Grupo 57678" xmlns="http://www.w3.org/2000/svg" xmlns:xlink="http://www.w3.org/1999/xlink" width="469.772" height="326.876" viewBox="0 0 469.772 326.876">
  <defs>
    <clipPath id="clip-path">
      <rect id="Rectángulo_8031" data-name="Rectángulo 8031" width="469.772" height="326.876" fill="none"/>
    </clipPath>
    <clipPath id="clip-path-3">
      <rect id="Rectángulo_8025" data-name="Rectángulo 8025" width="76.627" height="55.229" transform="translate(53.68 130.014)" fill="none"/>
    </clipPath>
    <clipPath id="clip-path-4">
      <rect id="Rectángulo_8026" data-name="Rectángulo 8026" width="43.855" height="62.96" transform="translate(328.54 130.559)" fill="none"/>
    </clipPath>
    <clipPath id="clip-path-5">
      <rect id="Rectángulo_8027" data-name="Rectángulo 8027" width="5.559" height="35.228" transform="translate(385.701 162.68)" fill="none"/>
    </clipPath>
    <clipPath id="clip-path-6">
      <rect id="Rectángulo_8028" data-name="Rectángulo 8028" width="33.245" height="23.534" transform="translate(346.731 266.389)" fill="none"/>
    </clipPath>
    <clipPath id="clip-path-7">
      <rect id="Rectángulo_8029" data-name="Rectángulo 8029" width="5.864" height="42.02" transform="translate(217.413 183.354)" fill="none"/>
    </clipPath>
  </defs>
  <g id="Grupo_57677" data-name="Grupo 57677" clip-path="url(#clip-path)">
    <g id="Grupo_57676" data-name="Grupo 57676">
      <g id="Grupo_57675" data-name="Grupo 57675" clip-path="url(#clip-path)">
        <path id="Trazado_105174" data-name="Trazado 105174" d="M247.071,220.924,248.4,260.29l2.39,19.4h-2.572a32.454,32.454,0,0,1-31.921-26.592l-2.162-11.773,3.026-20.117Z" fill="#ffc09d"/>
        <path id="Trazado_105175" data-name="Trazado 105175" d="M224.965,139.525c-.019.168-.478.306-1.361.281a9.991,9.991,0,0,1-3.741-.964,15.74,15.74,0,0,1-4.933-3.691,20.087,20.087,0,0,1-4.117-7.07,35.061,35.061,0,0,1-1.731-9.546c-.192-3.434-.126-6.993.01-10.763.294-7.529,1.182-15.725,2.17-24.238s1.9-16.571,2.269-23.892a138.675,138.675,0,0,0-.233-19.4c-.963-11.011-3.267-17.6-2.5-17.886.168-.064.478.283.919,1.011q.33.547.756,1.375c.266.556.547,1.208.861,1.947a62.439,62.439,0,0,1,3.611,13.074,107.478,107.478,0,0,1,1.378,20.046c-.111,7.555-.9,15.788-1.891,24.324s-2.007,16.594-2.554,23.921c-.263,3.656-.483,7.167-.484,10.347a34.7,34.7,0,0,0,.937,8.607,17.593,17.593,0,0,0,6.538,10.08c2.4,1.7,4.156,2.025,4.092,2.441" fill="#263238"/>
        <path id="Trazado_105176" data-name="Trazado 105176" d="M87.326,181.8l-40.773,43.69c-6.729,7.211-11.61,13.8-21.147,16.312-6.679,1.761-17.163.842-20.622-3.586-4.745-6.073-7.006-18.534-1.809-26.563s41.7-43.76,41.7-43.76Z" fill="#ffc09d"/>
        <path id="Trazado_105177" data-name="Trazado 105177" d="M101.59,109.449c.551-15.411,1.111-30.9,4.059-46.032s6.642-29.889,16.12-42.052L210.425,26.1c3.421,13.662,6.869,27.66,5.448,41.672-1.38,13.6-7.317,26.741-6.359,40.375.677,9.634,4.75,18.643,7.756,27.82s4.931,19.369,1.361,28.342a11.97,11.97,0,0,1-4.244,5.794c-2.5,1.628-5.672,1.692-8.655,1.7q-53.163.074-106.286-2.438,1.071-29.958,2.144-59.916" fill="#263238"/>
        <path id="Trazado_105178" data-name="Trazado 105178" d="M30.85,178s42.37-50.559,58.477-50.559c0,0,10.185,17.931,10.522,27.706s-32.6,55.549-32.6,55.549Z" fill="#455a64"/>
        <path id="Trazado_105179" data-name="Trazado 105179" d="M133.007,126.874l-43.568.453-13.46,67.118s7.233,69.96,12.626,87.824l-6.077,44.607,140.991-.076-15.131-51.7,21.623-119.742-45.877-18.148Z" fill="#455a64"/>
        <path id="Trazado_105180" data-name="Trazado 105180" d="M260.507,219.683c0-2.7-14.991-57.922-30.5-64.326l-11.974,18.484-5.471,50.269Z" fill="#455a64"/>
        <path id="Trazado_105181" data-name="Trazado 105181" d="M115.1,59.653a67.361,67.361,0,0,0,21.5,50.862l9.609-27.839" fill="#263238"/>
        <path id="Trazado_105182" data-name="Trazado 105182" d="M187.547,4.275C179.3-.233,169.332-.881,160.114.964S142.3,6.982,134.168,11.691c-4.565,2.641-9.118,5.545-12.4,9.674-5.989,7.536-11.911,19.913-12.488,29.523-.467,7.77,2.509,27.223,5.793,34.281,3.013,6.476,17.119,11.407,24.081,13.005l63.885-74.3a32.344,32.344,0,0,0-15.492-19.6" fill="#263238"/>
        <path id="Trazado_105183" data-name="Trazado 105183" d="M198.561,14.3l-15.314-2.739c8.371,19.938,10.641,65.529,15.43,86.616,5.645-8.191,18.755-33.139,18.053-43.062S216.758,12.6,198.561,14.3" fill="#263238"/>
        <path id="Trazado_105184" data-name="Trazado 105184" d="M125.956,47.418a26.167,26.167,0,0,1,19.525-23.984L180.9,14.4c15.242-1.647,25.42,17.1,26.418,32.4,1.109,17,1.792,34.931-.194,47.619-3.993,25.512-23.533,28.8-23.533,28.8,0-.038,0,5.89-.017,13.339l-.4.938c-9.064,21.375-38.993,22.359-49.441,1.625l-7.872-91.329c-.01-.451.053.322.094-.374" fill="#ffc09d"/>
        <path id="Trazado_105185" data-name="Trazado 105185" d="M197.894,67.537a3.271,3.271,0,0,1-3.146,3.308A3.128,3.128,0,0,1,191.37,67.9a3.27,3.27,0,0,1,3.142-3.308,3.13,3.13,0,0,1,3.382,2.942" fill="#263238"/>
        <path id="Trazado_105186" data-name="Trazado 105186" d="M203.488,56.791c-.4.428-2.887-1.4-6.406-1.384-3.516-.033-6.1,1.783-6.478,1.353-.188-.19.224-.961,1.346-1.782a8.976,8.976,0,0,1,5.185-1.611,8.61,8.61,0,0,1,5.1,1.634c1.085.828,1.453,1.6,1.254,1.79" fill="#263238"/>
        <path id="Trazado_105187" data-name="Trazado 105187" d="M167.355,67.538a3.271,3.271,0,0,1-3.146,3.307A3.13,3.13,0,0,1,160.83,67.9a3.273,3.273,0,0,1,3.144-3.308,3.13,3.13,0,0,1,3.381,2.943" fill="#263238"/>
        <path id="Trazado_105188" data-name="Trazado 105188" d="M170.063,56.791c-.406.427-2.891-1.4-6.408-1.384-3.515-.033-6.1,1.783-6.477,1.353-.188-.19.219-.961,1.347-1.782a8.972,8.972,0,0,1,5.183-1.612,8.633,8.633,0,0,1,5.1,1.634c1.081.829,1.452,1.6,1.254,1.791" fill="#263238"/>
        <path id="Trazado_105189" data-name="Trazado 105189" d="M181.066,84.434c-.016-.2,2.17-.582,5.715-1.044.9-.1,1.748-.275,1.9-.888a4.562,4.562,0,0,0-.606-2.663Q186.8,76.58,185.4,73c-3.712-9.735-6.4-17.742-6.008-17.887s3.722,7.626,7.434,17.362q1.339,3.6,2.561,6.878c.343,1.021.93,2.179.474,3.527a2.253,2.253,0,0,1-1.475,1.317,6.115,6.115,0,0,1-1.526.216c-3.567.2-5.78.221-5.794.02" fill="#263238"/>
        <path id="Trazado_105190" data-name="Trazado 105190" d="M149.763,114.144s8.3,17.518,33.82,15.074l.007-6a64.253,64.253,0,0,1-33.827-9.075" fill="#ff9b6c"/>
        <path id="Trazado_105191" data-name="Trazado 105191" d="M168.958,44.073c-.344.957-3.86.512-7.987,1.018-4.14.425-7.466,1.64-8.016.784-.246-.411.333-1.312,1.677-2.242a13.995,13.995,0,0,1,12.193-1.373c1.517.608,2.281,1.358,2.133,1.813" fill="#263238"/>
        <path id="Trazado_105192" data-name="Trazado 105192" d="M202.34,46.025c-.617.8-3.044-.024-5.959-.056-2.915-.135-5.383.548-5.954-.286-.25-.406.138-1.207,1.215-1.967a8.631,8.631,0,0,1,9.6.276c1.032.82,1.372,1.642,1.1,2.033" fill="#263238"/>
        <path id="Trazado_105193" data-name="Trazado 105193" d="M200.389,23.506c-1.559-3.838-5.771-6.142-9.908-6.352s-8.178,1.357-11.764,3.43c-15.189,8.779-23,29.985-38,39.069-3.691,2.234-8.495.187-11.635,3.147s-5.175,7.688-3.439,11.637a35.71,35.71,0,0,1-5.207-8.807c-1.146-3.225-1.29-6.976.421-9.941,1.3-2.25,3.592-3.967,4.222-6.487.554-2.218-.321-4.537-.225-6.82a14.851,14.851,0,0,1,2.336-6.506c5.878-10.4,13.966-19.8,24.379-25.648a43.155,43.155,0,0,1,22.383-5.789,33.016,33.016,0,0,1,21.3,8.452c3.357,3.13,6.886,6.368,5.145,10.615" fill="#263238"/>
        <path id="Trazado_105194" data-name="Trazado 105194" d="M129.446,65.961c-.269-.732-13.572-5.533-13.749,8.607-.171,13.738,13.69,11.034,13.718,10.64s.031-19.247.031-19.247" fill="#ffc09d"/>
        <path id="Trazado_105195" data-name="Trazado 105195" d="M125.226,79.964c-.06-.044-.241.165-.647.347a2.393,2.393,0,0,1-1.79.02c-1.446-.546-2.646-2.861-2.69-5.338a7.893,7.893,0,0,1,.7-3.42,2.764,2.764,0,0,1,1.817-1.821,1.218,1.218,0,0,1,1.406.67c.18.386.091.659.163.684.038.034.3-.228.192-.8a1.518,1.518,0,0,0-.533-.866,1.8,1.8,0,0,0-1.319-.362,3.361,3.361,0,0,0-2.521,2.106,8.132,8.132,0,0,0-.865,3.821c.062,2.769,1.455,5.373,3.435,5.965a2.561,2.561,0,0,0,2.192-.342c.429-.336.5-.643.457-.668" fill="#ff9b6c"/>
        <path id="Trazado_105196" data-name="Trazado 105196" d="M123.981,58.9a5.383,5.383,0,0,0,.829-.462c.526-.335,1.336-.78,2.3-1.465a47.177,47.177,0,0,0,7.416-6.751,132.193,132.193,0,0,0,9.07-11.781,108.056,108.056,0,0,1,11.337-14.117,43.126,43.126,0,0,1,7.314-5.78,35.684,35.684,0,0,1,7.9-3.587,39.119,39.119,0,0,1,14.552-1.786,37.491,37.491,0,0,1,9.748,1.91c1.13.343,1.964.723,2.545.944a5.36,5.36,0,0,0,.9.317,5.379,5.379,0,0,0-.846-.433,23.3,23.3,0,0,0-2.514-1.058,35.616,35.616,0,0,0-9.8-2.123,38.831,38.831,0,0,0-14.759,1.679,35.817,35.817,0,0,0-8.046,3.611,43.237,43.237,0,0,0-7.436,5.859,105.08,105.08,0,0,0-11.369,14.229,141.222,141.222,0,0,1-8.93,11.822,50.866,50.866,0,0,1-7.229,6.848c-.938.711-1.724,1.186-2.225,1.554a5.441,5.441,0,0,0-.763.57" fill="#455a64"/>
        <path id="Trazado_105197" data-name="Trazado 105197" d="M127.436,62.788c-.215,3.751-.389,7.714,1.345,11.048s6.106,5.6,9.368,3.737c2.662-1.52,3.458-4.929,3.909-7.961,1.3-8.749,1.9-17.594,3.278-26.332Z" fill="#263238"/>
        <path id="Trazado_105198" data-name="Trazado 105198" d="M197.007,16.971c-.015.079-1.214-.229-3.415-.3a23.5,23.5,0,0,0-9.092,1.661,29.969,29.969,0,0,0-5.7,2.933,61.525,61.525,0,0,0-5.875,4.486,70.611,70.611,0,0,0-11.5,12.4c-1.745,2.451-3.29,4.97-4.965,7.3a34.943,34.943,0,0,1-5.507,6.192,61.229,61.229,0,0,1-11.609,7.767c-3.515,1.858-6.453,3.159-8.48,4.058l-2.349,1a3.923,3.923,0,0,1-.842.3,3.878,3.878,0,0,1,.777-.441l2.288-1.132c1.986-.982,4.884-2.357,8.346-4.266a63.416,63.416,0,0,0,11.4-7.82,34.776,34.776,0,0,0,5.362-6.1c1.645-2.308,3.187-4.831,4.951-7.31a69.236,69.236,0,0,1,11.672-12.5,60,60,0,0,1,5.988-4.482,29.782,29.782,0,0,1,5.852-2.907,22.7,22.7,0,0,1,9.3-1.45,16.082,16.082,0,0,1,2.542.354,3.885,3.885,0,0,1,.86.245" fill="#455a64"/>
        <g id="Grupo_57662" data-name="Grupo 57662" opacity="0.3">
          <g id="Grupo_57661" data-name="Grupo 57661">
            <g id="Grupo_57660" data-name="Grupo 57660" clip-path="url(#clip-path-3)">
              <path id="Trazado_105199" data-name="Trazado 105199" d="M129.538,171.541c-1.257-2.8-4.036-4.542-6.665-6.122q-6.222-3.74-12.443-7.48a20.639,20.639,0,0,1-5.656-4.366c-3.458-4.269-2.983-10.384-4.4-15.693-.9-3.4-3.032-6.869-6.45-7.683-2.2-.525-4.5.158-6.593,1.021-6.758,2.79-12.548,7.449-18.234,12.045l-15.419,13c.583,5.007,5.722,8.193,10.6,9.464s10.161,1.458,14.508,4.009c3.384,1.987,6.4,5.432,10.316,5.156,2.5-.176,4.76-1.923,7.265-1.782,2.6.146,4.6,2.235,6.541,3.966a32.6,32.6,0,0,0,21.354,8.167,5.718,5.718,0,0,0,3.908-1.048,6.258,6.258,0,0,0,1.558-3.705c.537-2.984,1.051-6.183-.192-8.949"/>
            </g>
          </g>
        </g>
        <path id="Trazado_105200" data-name="Trazado 105200" d="M104.656,69.071c-4.805,17.553-.728,41.012-5.478,55.105s-8.21,29.734-2.837,43.6q3.7-8.193,7.4-16.386a21.127,21.127,0,0,0,1.6,20.29c3.956,5.885,23.9,10.9,30.982,10.563,7.172-38.051,5.192-67.148-7.191-96.564l-9.56,10.631-8.612-3.706Z" fill="#263238"/>
        <path id="Trazado_105201" data-name="Trazado 105201" d="M32.224,122.334l1.306-16.645,3.384-21.017,5.253-17.214s1.068-1.631,3.146-.087S44.437,78.3,44.437,78.3l-1.123,7.175s.7,5.707,1.167,5.284S47.39,80.748,47.39,80.748l6.281-20.474a2.8,2.8,0,0,1,3.684-1.064c1.378.6,2.085,2.78,1.573,5.86s-2.427,8.163-2.759,9.908-2.588,11.787-2.588,11.787l9.581-22.626s2.129-7.467,5.181-6.031.346,6.667-.05,9.011-6.7,17.77-6.8,22.251.851,2.338.851,2.338,2.626-7.129,4.7-12.749,4.618-8.73,7.165-8.882-2.252,12.872-2.252,12.872L65.7,101.195l.412,6.068,4.747-4.91s.88-7.007,5.581-9.46c4.778-2.494,5.479.957,5.479.957L70.814,120.14c-2.413,4.233-15.872,11.52-15.872,11.52l-5.174,27-28.129-4.709Z" fill="#ffc09d"/>
        <path id="Trazado_105202" data-name="Trazado 105202" d="M43.047,113.58c.125.15,1.584-1.044,4.052-2.719,2.425-1.6,6.225-3.789,10.637-3.11a8.223,8.223,0,0,1,4.835,2.372l.421.454.463-.49c2.038-2.161,4.174-4.007,5.473-5.366,1.356-1.345,2.053-2.275,1.931-2.368A15.734,15.734,0,0,0,68.45,104.2a77.76,77.76,0,0,0-5.909,5.182l.882-.037a9.081,9.081,0,0,0-5.5-2.814,12.59,12.59,0,0,0-6.668.865,20,20,0,0,0-4.663,2.759c-2.4,1.9-3.637,3.319-3.542,3.429" fill="#ff9b6c"/>
        <path id="Trazado_105203" data-name="Trazado 105203" d="M38.978,219.027l15.04-84.142-22.771-9.929L.518,217.7Z" fill="#ffc09d"/>
        <path id="Trazado_105204" data-name="Trazado 105204" d="M36.856,219.8a22.059,22.059,0,0,0,1.007-3.4c.579-2.2,1.37-5.4,2.3-9.37,1.861-7.93,4.243-18.927,6.7-31.108s4.534-23.241,5.979-31.255c.672-3.873,1.229-7.076,1.65-9.5a21.991,21.991,0,0,0,.458-3.512,22.052,22.052,0,0,0-.874,3.432c-.508,2.409-1.178,5.589-1.99,9.436-1.644,8.152-3.851,19.091-6.29,31.185-2.474,12.081-4.713,23.011-6.381,31.157-.8,3.848-1.457,7.031-1.956,9.44a22.143,22.143,0,0,0-.6,3.492" fill="#ff9b6c"/>
        <path id="Trazado_105205" data-name="Trazado 105205" d="M179.01,91.171a6.31,6.31,0,0,0-5.561-2.561,5.756,5.756,0,0,0-4.057,1.978,3.648,3.648,0,0,0-.439,4.159c.893,1.365,2.853,1.748,4.541,1.338a13.263,13.263,0,0,0,4.576-2.5,3.885,3.885,0,0,0,1.039-1,1.171,1.171,0,0,0,.046-1.3" fill="#ff9b6c"/>
        <path id="Trazado_105206" data-name="Trazado 105206" d="M170.427,84.816c.57-.011.429,3.787,3.576,6.609s7.2,2.561,7.213,3.093c.044.24-.93.7-2.64.682a9.456,9.456,0,0,1-6.03-2.367,8.238,8.238,0,0,1-2.755-5.531c-.083-1.593.377-2.518.636-2.486" fill="#263238"/>
        <path id="Trazado_105207" data-name="Trazado 105207" d="M119.153,84.522c.029.038-.311.276-.768.84a5.4,5.4,0,0,0-1.12,2.787,4.864,4.864,0,0,0,1.471,4.037,5.256,5.256,0,0,0,4.992,1.4,5.7,5.7,0,0,0,3.939-3.449,6.3,6.3,0,0,0,0-4.39,4.145,4.145,0,0,0-1.845-2.311,3.534,3.534,0,0,0-1.075-.286c0-.014.1-.05.3-.061a1.978,1.978,0,0,1,.861.163,4.186,4.186,0,0,1,2.1,2.359,6.55,6.55,0,0,1,.107,4.694,6.111,6.111,0,0,1-4.263,3.786,5.578,5.578,0,0,1-3.044-.082,5.968,5.968,0,0,1-2.413-1.488,5.455,5.455,0,0,1-1.329-2.194,5.218,5.218,0,0,1-.168-2.225,5.281,5.281,0,0,1,1.333-2.876,2.537,2.537,0,0,1,.921-.708" fill="#e0e0e0"/>
        <path id="Trazado_105208" data-name="Trazado 105208" d="M99.884,136.366s-.661-7.416-.874-9.392-4.256-2.262-4.969-2.17c-.506.065-7.809,2.041-12,3.182a12.262,12.262,0,0,0-5.121,2.84l6.407,6.51,8.734-3.985s.668,3.635,4.133,4.346,3.694-1.331,3.694-1.331" fill="#ffc09d"/>
        <path id="Trazado_105209" data-name="Trazado 105209" d="M97,160.254a8.709,8.709,0,0,0,.367-6.6c-1.028-2.845-13.84-16.707-18.863-22.074a5.813,5.813,0,0,0-6.838-1.335,4.5,4.5,0,0,0-1.583,1.309c-1.916,2.588-1.775,4.064-1.775,4.064a8.72,8.72,0,0,0-5.723,1.587,5.827,5.827,0,0,0-2.43,4.125s-4.973-.129-5.926,6.371c0,0-3.556.8-2.6,4.993s11.75,8.747,11.75,8.747l14.008,4.86a3.4,3.4,0,0,0,2.382-2.574s8.613,4.39,10.13,3.795a6.694,6.694,0,0,0,2.646-2.459s3.523,2.01,4.76.979,3.071-3.374-.3-5.79" fill="#ffc09d"/>
        <path id="Trazado_105210" data-name="Trazado 105210" d="M79.983,163.019a3.649,3.649,0,0,1-.885-.455l-2.313-1.393-7.58-4.672-7.589-4.658-2.288-1.435a3.69,3.69,0,0,1-.805-.585,3.71,3.71,0,0,1,.907.41c.567.293,1.378.735,2.373,1.293,1.989,1.117,4.709,2.708,7.675,4.532s5.612,3.533,7.506,4.8c.947.635,1.707,1.159,2.224,1.533a3.665,3.665,0,0,1,.775.625" fill="#ff9b6c"/>
        <path id="Trazado_105211" data-name="Trazado 105211" d="M92.864,165.227a7.393,7.393,0,0,1-1.133-.849l-2.988-2.43c-2.525-2.047-6.048-4.83-10.043-7.765s-7.71-5.46-10.42-7.255l-3.213-2.122a7.33,7.33,0,0,1-1.15-.827,7.357,7.357,0,0,1,1.256.654c.793.448,1.923,1.125,3.306,1.985,2.766,1.719,6.52,4.205,10.529,7.145s7.5,5.779,9.971,7.9c1.235,1.062,2.219,1.937,2.884,2.559a7.353,7.353,0,0,1,1,1" fill="#ff9b6c"/>
        <path id="Trazado_105212" data-name="Trazado 105212" d="M91.336,128.3c.155.022-.042,1.555.355,3.373.375,1.823,1.177,3.143,1.044,3.227a6.957,6.957,0,0,1-1.4-6.6" fill="#ff9b6c"/>
        <path id="Trazado_105213" data-name="Trazado 105213" d="M97.356,160.249c-.1.107-5.842-4.917-12.831-11.22s-12.581-11.5-12.484-11.609,5.84,4.917,12.832,11.222,12.579,11.5,12.483,11.607" fill="#ff9b6c"/>
        <path id="Trazado_105214" data-name="Trazado 105214" d="M87.69,141.4a9.876,9.876,0,0,1-1.7-1.549c-1-1.009-2.354-2.422-3.765-4.075-.719-.824-1.3-1.692-1.888-2.392a12.922,12.922,0,0,0-1.713-1.738,21.907,21.907,0,0,0-1.9-1.234,4.208,4.208,0,0,1,2.119.941,11.144,11.144,0,0,1,1.855,1.72c.638.717,1.217,1.561,1.921,2.367,2.816,3.259,5.188,5.851,5.069,5.96" fill="#ff9b6c"/>
        <path id="Trazado_105215" data-name="Trazado 105215" d="M180.068,64.589a26.613,26.613,0,0,0-.613-3.99,15.75,15.75,0,0,0-1.836-4.333,16.252,16.252,0,0,0-19.514-6.9,15.208,15.208,0,0,0-4.1,2.209,14.78,14.78,0,0,0-3.421,3.44,16.121,16.121,0,0,0,0,19.136,14.789,14.789,0,0,0,3.421,3.442,15.213,15.213,0,0,0,4.1,2.209,16.3,16.3,0,0,0,19.514-6.9,15.746,15.746,0,0,0,1.836-4.332,26.632,26.632,0,0,0,.613-3.99,1.028,1.028,0,0,1,.013.267c0,.207-.008.465-.014.784a7.462,7.462,0,0,1-.1,1.272,11.557,11.557,0,0,1-.311,1.716,15.556,15.556,0,0,1-1.783,4.432A16.588,16.588,0,0,1,166.7,80.953a16.666,16.666,0,0,1-8.759-.695A15.671,15.671,0,0,1,153.712,78a15.259,15.259,0,0,1-3.536-3.54,16.586,16.586,0,0,1,0-19.74,18.821,18.821,0,0,1,1.639-1.932,18.617,18.617,0,0,1,1.9-1.606,15.623,15.623,0,0,1,4.228-2.26,16.672,16.672,0,0,1,8.758-.695,16.589,16.589,0,0,1,11.17,7.892,15.556,15.556,0,0,1,1.783,4.432,11.568,11.568,0,0,1,.311,1.717,7.462,7.462,0,0,1,.1,1.272c.006.319.011.577.014.784a1.027,1.027,0,0,1-.013.267" fill="#455a64"/>
        <path id="Trazado_105216" data-name="Trazado 105216" d="M216.964,63.878a26.614,26.614,0,0,0-.613-3.99,15.738,15.738,0,0,0-1.836-4.333,16.323,16.323,0,0,0-4.157-4.6A16.2,16.2,0,0,0,195,48.66a15.208,15.208,0,0,0-4.1,2.209,14.78,14.78,0,0,0-3.421,3.44,16.121,16.121,0,0,0,0,19.136,14.789,14.789,0,0,0,3.421,3.442A15.213,15.213,0,0,0,195,79.1a16.3,16.3,0,0,0,19.514-6.9,15.746,15.746,0,0,0,1.836-4.332,26.634,26.634,0,0,0,.613-3.99,1.027,1.027,0,0,1,.013.267c0,.207-.008.465-.014.784a7.462,7.462,0,0,1-.1,1.272,11.557,11.557,0,0,1-.311,1.716,15.556,15.556,0,0,1-1.783,4.432A16.588,16.588,0,0,1,203.6,80.242a16.676,16.676,0,0,1-8.759-.695,15.656,15.656,0,0,1-4.229-2.26,15.259,15.259,0,0,1-3.536-3.54,16.586,16.586,0,0,1,0-19.74,18.819,18.819,0,0,1,1.639-1.932,18.614,18.614,0,0,1,1.9-1.606,15.654,15.654,0,0,1,4.228-2.261,16.681,16.681,0,0,1,8.758-.694,16.589,16.589,0,0,1,11.17,7.892,15.556,15.556,0,0,1,1.783,4.432,11.568,11.568,0,0,1,.311,1.717,7.462,7.462,0,0,1,.1,1.272c.006.319.01.577.014.784a1.027,1.027,0,0,1-.013.267" fill="#455a64"/>
        <path id="Trazado_105217" data-name="Trazado 105217" d="M184.392,61.834c-.068.04-.262-.212-.645-.505a3.054,3.054,0,0,0-3.455-.271c-.425.23-.656.448-.716.4s.085-.356.51-.7a2.881,2.881,0,0,1,3.911.307c.366.41.452.746.4.775" fill="#455a64"/>
        <path id="Trazado_105218" data-name="Trazado 105218" d="M147.724,60.388a100.583,100.583,0,0,1-9.964,2.369,101.142,101.142,0,0,1-10.073,1.86,100.633,100.633,0,0,1,9.965-2.37,100.851,100.851,0,0,1,10.072-1.859" fill="#455a64"/>
        <path id="Trazado_105219" data-name="Trazado 105219" d="M155.288,76.115a2.6,2.6,0,0,1-.985-.418,8.708,8.708,0,0,1-2.161-1.96A14.253,14.253,0,0,1,149.966,70a15.067,15.067,0,0,1-.948-5.215,16.1,16.1,0,0,1,2.8-9.089,13.47,13.47,0,0,1,1.887-2.212,4.221,4.221,0,0,1,.839-.657,28.728,28.728,0,0,0-2.419,3.073,16.645,16.645,0,0,0-2.584,8.884,15.253,15.253,0,0,0,.876,5.046,14.89,14.89,0,0,0,2.017,3.682,9.862,9.862,0,0,0,1.983,2.019c.545.392.891.543.873.587" fill="#fff"/>
        <path id="Trazado_105220" data-name="Trazado 105220" d="M162.519,78.691a8.959,8.959,0,0,1-5.609-1.813,15.721,15.721,0,0,1,2.812.885,15.658,15.658,0,0,1,2.8.928" fill="#fff"/>
        <path id="Trazado_105221" data-name="Trazado 105221" d="M200.933,49.517c0,.09-1.115.093-2.85.473A16.245,16.245,0,0,0,187.3,57.949c-.875,1.547-1.207,2.613-1.292,2.584a2.128,2.128,0,0,1,.16-.771,12.675,12.675,0,0,1,.807-1.986,15.208,15.208,0,0,1,11.04-8.147,12.592,12.592,0,0,1,2.136-.186,2.142,2.142,0,0,1,.785.074" fill="#fff"/>
        <path id="Trazado_105222" data-name="Trazado 105222" d="M186.833,68.343a4.563,4.563,0,0,1-1.083-2.575,4.555,4.555,0,0,1,.129-2.791,23.481,23.481,0,0,1,.384,2.7,23.361,23.361,0,0,1,.57,2.666" fill="#fff"/>
        <path id="Trazado_105223" data-name="Trazado 105223" d="M149.854,186.635c-.286.179-1.344-.833-2.822-2.99a44.142,44.142,0,0,1-4.839-9.932,78.86,78.86,0,0,1-3.687-15.921,192.592,192.592,0,0,1-1.416-19.718c-.213-6.933-.406-13.476-.908-19.366a108.8,108.8,0,0,0-2.294-15.445c-1.973-8.659-4.63-13.631-3.917-14.048.29-.173,1.328.857,2.769,3.038a44.9,44.9,0,0,1,4.688,10,81.026,81.026,0,0,1,3.525,15.948c.787,6.077,1.128,12.765,1.342,19.711.214,6.923.436,13.458.979,19.339a104.579,104.579,0,0,0,2.446,15.407c2.083,8.628,4.842,13.549,4.134,13.979" fill="#263238"/>
        <path id="Trazado_105224" data-name="Trazado 105224" d="M175.464,236.171a2.815,2.815,0,0,1-.255.571l-.824,1.59c-.36.69-.8,1.534-1.382,2.476s-1.175,2.054-1.968,3.2c-.772,1.158-1.592,2.446-2.587,3.748-.491.655-.974,1.352-1.519,2.033l-1.7,2.09a78.615,78.615,0,0,1-8.371,8.566,76.086,76.086,0,0,1-9.662,7.086c-1.6.919-3.1,1.83-4.577,2.535-.734.362-1.429.742-2.123,1.053l-2,.874c-1.265.585-2.465.977-3.5,1.367s-1.942.678-2.692.89l-1.721.495a2.829,2.829,0,0,1-.61.139,2.808,2.808,0,0,1,.58-.239l1.688-.588c.738-.241,1.636-.546,2.654-.97s2.205-.828,3.454-1.432l1.98-.9c.685-.318,1.372-.7,2.1-1.073,1.464-.716,2.943-1.636,4.523-2.559a79.224,79.224,0,0,0,9.571-7.071,81.867,81.867,0,0,0,8.346-8.483l1.705-2.063c.548-.673,1.035-1.361,1.531-2.007,1.005-1.284,1.838-2.554,2.627-3.694.809-1.127,1.424-2.223,2.026-3.146s1.068-1.751,1.454-2.424l.908-1.542a2.857,2.857,0,0,1,.348-.521" fill="#263238"/>
        <path id="Trazado_105225" data-name="Trazado 105225" d="M74.184,170.139a9.422,9.422,0,0,1,.273,1.58c.145,1.021.324,2.5.529,4.333.406,3.664.847,8.738,1.246,14.345s.782,10.68,1.1,14.349c.147,1.766.27,3.229.363,4.347a9.351,9.351,0,0,1,.071,1.6,9.61,9.61,0,0,1-.272-1.579c-.146-1.021-.324-2.5-.529-4.333-.407-3.664-.847-8.739-1.247-14.347s-.781-10.678-1.094-14.348c-.148-1.765-.27-3.229-.363-4.346a9.449,9.449,0,0,1-.072-1.6" fill="#263238"/>
        <path id="Trazado_105226" data-name="Trazado 105226" d="M382.446,183.978l40.773,43.691c6.729,7.21,11.61,13.8,21.146,16.311,6.68,1.761,17.164.842,20.623-3.586,4.745-6.074,7.006-18.534,1.809-26.562s-41.7-43.761-41.7-43.761Z" fill="#ffc09d"/>
        <path id="Trazado_105227" data-name="Trazado 105227" d="M368.182,111.626c-.552-15.41-1.111-30.9-4.059-46.032S357.481,35.706,348,23.542l-88.656,4.739c-3.421,13.662-6.869,27.66-5.448,41.672,1.38,13.6,7.317,26.741,6.359,40.375-.677,9.634-4.75,18.643-7.756,27.82s-4.932,19.369-1.361,28.342a11.97,11.97,0,0,0,4.244,5.794c2.5,1.628,5.672,1.692,8.655,1.7q53.163.075,106.286-2.438-1.071-29.958-2.144-59.916" fill="#263238"/>
        <path id="Trazado_105228" data-name="Trazado 105228" d="M438.922,180.175s-42.37-50.559-58.477-50.559c0,0-11.7,22.864-12.038,32.639S400.192,217.2,400.192,217.2Z" fill="#ff725e"/>
        <path id="Trazado_105229" data-name="Trazado 105229" d="M336.765,129.051l43.568.453,5.9,65.339s-4.845,41.906-10.084,87.02L397.471,326.8H245.123l6.564-39.808-7.748-62.882,3.132-2.6c-4.088-55.7-10.535-63.324-29.189-70.95l19.242-7.626,49.058-6.658Z" fill="#ff725e"/>
        <path id="Trazado_105230" data-name="Trazado 105230" d="M354.673,61.83a67.364,67.364,0,0,1-21.5,50.862l-9.609-27.839" fill="#263238"/>
        <path id="Trazado_105231" data-name="Trazado 105231" d="M282.225,6.452c8.25-4.508,18.215-5.156,27.433-3.311S327.467,9.159,335.6,13.868c4.565,2.641,9.118,5.545,12.4,9.674,5.989,7.536,11.911,19.913,12.488,29.523.467,7.77-2.509,27.224-5.793,34.281-3.013,6.477-17.119,11.407-24.081,13l-63.885-74.3a32.344,32.344,0,0,1,15.492-19.6" fill="#263238"/>
        <path id="Trazado_105232" data-name="Trazado 105232" d="M271.211,16.474l15.314-2.739c-8.371,19.937-10.641,65.529-15.43,86.616-5.645-8.191-18.755-33.139-18.053-43.062s-.028-42.507,18.169-40.815" fill="#263238"/>
        <path id="Trazado_105233" data-name="Trazado 105233" d="M343.815,49.6A26.167,26.167,0,0,0,324.29,25.611l-35.418-9.036c-15.241-1.647-25.42,17.1-26.418,32.4-1.109,17-1.791,34.931.194,47.618,3.994,25.513,23.534,28.8,23.534,28.8,0-.038,0,5.889.017,13.338l.4.939c9.063,21.375,38.992,22.359,49.44,1.625l7.872-91.329c.01-.451-.053.322-.094-.374" fill="#ffc09d"/>
        <path id="Trazado_105234" data-name="Trazado 105234" d="M271.878,69.714a3.27,3.27,0,0,0,3.146,3.307A3.127,3.127,0,0,0,278.4,70.08a3.27,3.27,0,0,0-3.142-3.308,3.129,3.129,0,0,0-3.382,2.942" fill="#263238"/>
        <path id="Trazado_105235" data-name="Trazado 105235" d="M266.284,58.968c.4.428,2.887-1.4,6.4-1.384,3.517-.033,6.1,1.783,6.478,1.353.188-.19-.224-.961-1.345-1.782a8.974,8.974,0,0,0-5.185-1.611,8.605,8.605,0,0,0-5.1,1.634c-1.086.828-1.453,1.6-1.254,1.79" fill="#263238"/>
        <path id="Trazado_105236" data-name="Trazado 105236" d="M302.417,69.715a3.271,3.271,0,0,0,3.146,3.307,3.13,3.13,0,0,0,3.379-2.942,3.273,3.273,0,0,0-3.144-3.308,3.13,3.13,0,0,0-3.381,2.943" fill="#263238"/>
        <path id="Trazado_105237" data-name="Trazado 105237" d="M299.709,58.968c.406.427,2.891-1.4,6.408-1.384,3.515-.033,6.1,1.783,6.477,1.353.188-.19-.219-.961-1.347-1.782a8.972,8.972,0,0,0-5.183-1.611,8.619,8.619,0,0,0-5.1,1.634c-1.081.828-1.452,1.6-1.254,1.79" fill="#263238"/>
        <path id="Trazado_105238" data-name="Trazado 105238" d="M288.706,86.61c.015-.2-2.171-.582-5.716-1.044-.9-.1-1.748-.275-1.9-.889a4.568,4.568,0,0,1,.606-2.662q1.275-3.259,2.673-6.838c3.712-9.735,6.4-17.742,6.009-17.887s-3.722,7.626-7.435,17.362q-1.34,3.6-2.561,6.878c-.342,1.021-.93,2.178-.474,3.527a2.253,2.253,0,0,0,1.475,1.317,6.115,6.115,0,0,0,1.526.216c3.567.2,5.782.221,5.795.02" fill="#263238"/>
        <path id="Trazado_105239" data-name="Trazado 105239" d="M320.009,116.321s-8.3,17.518-33.82,15.074l-.007-6a64.253,64.253,0,0,0,33.827-9.075" fill="#ff9b6c"/>
        <path id="Trazado_105240" data-name="Trazado 105240" d="M300.814,46.25c.344.957,3.859.512,7.987,1.018,4.139.425,7.465,1.641,8.015.784.247-.41-.333-1.312-1.677-2.242a13.993,13.993,0,0,0-12.192-1.373c-1.517.608-2.282,1.358-2.133,1.813" fill="#263238"/>
        <path id="Trazado_105241" data-name="Trazado 105241" d="M267.432,48.2c.617.8,3.044-.024,5.959-.056,2.915-.135,5.383.548,5.954-.286.25-.406-.137-1.207-1.215-1.967a8.626,8.626,0,0,0-9.6.276c-1.032.82-1.372,1.642-1.1,2.033" fill="#263238"/>
        <path id="Trazado_105242" data-name="Trazado 105242" d="M269.383,25.683c1.559-3.837,5.771-6.142,9.908-6.352s8.178,1.357,11.764,3.43c15.189,8.779,23,29.985,38,39.069,3.691,2.234,8.495.188,11.635,3.147s5.175,7.688,3.439,11.637a35.71,35.71,0,0,0,5.207-8.807c1.146-3.225,1.29-6.976-.421-9.941-1.3-2.25-3.592-3.967-4.222-6.487-.554-2.218.321-4.537.225-6.82a14.851,14.851,0,0,0-2.336-6.506c-5.878-10.4-13.966-19.8-24.379-25.648a43.152,43.152,0,0,0-22.383-5.789,33.016,33.016,0,0,0-21.3,8.452c-3.357,3.13-6.886,6.368-5.145,10.615" fill="#263238"/>
        <path id="Trazado_105243" data-name="Trazado 105243" d="M340.326,68.138c.269-.732,13.572-5.533,13.749,8.607.171,13.738-13.69,11.034-13.718,10.64s-.031-19.247-.031-19.247" fill="#ffc09d"/>
        <path id="Trazado_105244" data-name="Trazado 105244" d="M344.546,82.14c.06-.044.241.165.647.347a2.393,2.393,0,0,0,1.79.02c1.446-.546,2.646-2.861,2.69-5.338a7.893,7.893,0,0,0-.7-3.42,2.765,2.765,0,0,0-1.816-1.821,1.219,1.219,0,0,0-1.407.67c-.18.386-.09.659-.163.683-.038.035-.3-.227-.192-.795a1.515,1.515,0,0,1,.533-.866,1.8,1.8,0,0,1,1.319-.362,3.362,3.362,0,0,1,2.521,2.106,8.129,8.129,0,0,1,.865,3.821c-.062,2.769-1.455,5.373-3.435,5.965A2.561,2.561,0,0,1,345,82.808c-.429-.336-.5-.643-.457-.668" fill="#ff9b6c"/>
        <path id="Trazado_105245" data-name="Trazado 105245" d="M345.791,61.078a5.383,5.383,0,0,1-.829-.462c-.525-.335-1.336-.78-2.3-1.465a47.213,47.213,0,0,1-7.416-6.75,132.365,132.365,0,0,1-9.07-11.782A108.056,108.056,0,0,0,314.835,26.5a43.132,43.132,0,0,0-7.315-5.78,35.607,35.607,0,0,0-7.9-3.586,39.1,39.1,0,0,0-14.552-1.787,37.452,37.452,0,0,0-9.749,1.911c-1.129.342-1.963.722-2.544.943a5.36,5.36,0,0,1-.9.317,5.378,5.378,0,0,1,.846-.433,23.3,23.3,0,0,1,2.514-1.058,35.617,35.617,0,0,1,9.8-2.123,38.851,38.851,0,0,1,14.759,1.679,35.816,35.816,0,0,1,8.046,3.611,43.235,43.235,0,0,1,7.436,5.859,105.081,105.081,0,0,1,11.369,14.229,141.219,141.219,0,0,0,8.93,11.822,50.864,50.864,0,0,0,7.229,6.848c.938.711,1.724,1.186,2.225,1.554a5.439,5.439,0,0,1,.763.57" fill="#455a64"/>
        <path id="Trazado_105246" data-name="Trazado 105246" d="M342.336,64.965c.215,3.751.388,7.714-1.345,11.048s-6.106,5.6-9.368,3.737c-2.662-1.52-3.458-4.929-3.909-7.961-1.3-8.749-1.9-17.594-3.278-26.332Z" fill="#263238"/>
        <path id="Trazado_105247" data-name="Trazado 105247" d="M272.765,19.148c.015.079,1.214-.229,3.415-.3a23.5,23.5,0,0,1,9.092,1.661,29.969,29.969,0,0,1,5.7,2.933,61.523,61.523,0,0,1,5.875,4.486,70.612,70.612,0,0,1,11.5,12.4c1.745,2.451,3.29,4.97,4.965,7.3a34.915,34.915,0,0,0,5.507,6.193,61.23,61.23,0,0,0,11.609,7.767c3.515,1.858,6.453,3.159,8.479,4.058l2.35,1a3.922,3.922,0,0,0,.842.3,3.878,3.878,0,0,0-.777-.441l-2.288-1.132c-1.986-.982-4.884-2.357-8.346-4.266a63.416,63.416,0,0,1-11.4-7.82,34.777,34.777,0,0,1-5.362-6.1c-1.645-2.308-3.187-4.831-4.951-7.31a69.278,69.278,0,0,0-11.672-12.5,60.137,60.137,0,0,0-5.988-4.481A29.781,29.781,0,0,0,285.463,20a22.7,22.7,0,0,0-9.3-1.45,16.082,16.082,0,0,0-2.542.354,3.884,3.884,0,0,0-.86.245" fill="#455a64"/>
        <g id="Grupo_57665" data-name="Grupo 57665" opacity="0.3">
          <g id="Grupo_57664" data-name="Grupo 57664">
            <g id="Grupo_57663" data-name="Grupo 57663" clip-path="url(#clip-path-4)">
              <path id="Trazado_105248" data-name="Trazado 105248" d="M364.788,131.626c-.185-.357-.372-.713-.564-1.067L340.8,138.71l-10.97,10.635c-.157,7.464,1.287,14.86,1.88,22.3s.261,15.244-3.173,21.873a15.714,15.714,0,0,0,11.7-11.7c1.97,1.346.723,4.673,2.081,6.633,1.331,1.923,4.256,1.5,6.473.752a70.713,70.713,0,0,0,12.541-5.639c3.562-2.04,7.079-4.537,8.982-8.174a21.637,21.637,0,0,0,1.988-8.983,68.512,68.512,0,0,0-7.519-34.787"/>
            </g>
          </g>
        </g>
        <path id="Trazado_105249" data-name="Trazado 105249" d="M370.594,126.353c-4.751-14.093-.674-37.552-5.479-55.1l-6.3,23.535L350.2,98.488l-9.56-10.63c-12.382,29.415-8.446,66.481,5.6,95.137,7.083.339,23.226-7.155,27.183-13.04,5.373-13.868,1.913-29.508-2.837-43.6" fill="#263238"/>
        <path id="Trazado_105250" data-name="Trazado 105250" d="M437.548,124.511l-1.306-16.645-3.384-21.017-5.253-17.214s-1.068-1.631-3.146-.087.876,10.927.876,10.927l1.123,7.175s-.7,5.707-1.167,5.284-2.91-10.009-2.91-10.009L416.1,62.451a2.8,2.8,0,0,0-3.684-1.064c-1.378.6-2.085,2.779-1.573,5.86s2.427,8.162,2.759,9.908,2.588,11.787,2.588,11.787l-9.582-22.626s-2.129-7.467-5.18-6.031-.347,6.666.05,9.011,6.7,17.77,6.8,22.251-.851,2.338-.851,2.338-2.626-7.129-4.7-12.749-4.618-8.73-7.165-8.882,2.252,12.872,2.252,12.872l6.255,18.246-.411,6.068-4.747-4.91s-.88-7.007-5.581-9.46c-4.778-2.494-5.479.957-5.479.957l11.106,26.29c2.413,4.233,15.872,11.52,15.872,11.52l5.174,27,28.129-4.709Z" fill="#ffc09d"/>
        <path id="Trazado_105251" data-name="Trazado 105251" d="M426.725,115.757c-.125.15-1.584-1.045-4.052-2.719-2.425-1.6-6.225-3.789-10.637-3.11A8.223,8.223,0,0,0,407.2,112.3l-.421.454-.463-.49c-2.038-2.161-4.174-4.007-5.473-5.366-1.356-1.345-2.053-2.275-1.931-2.368a15.733,15.733,0,0,1,2.409,1.843,77.528,77.528,0,0,1,5.909,5.182l-.882-.037a9.081,9.081,0,0,1,5.5-2.814,12.59,12.59,0,0,1,6.668.865,20,20,0,0,1,4.663,2.759c2.4,1.9,3.637,3.319,3.542,3.429" fill="#ff9b6c"/>
        <path id="Trazado_105252" data-name="Trazado 105252" d="M430.794,221.2l-15.04-84.142,22.771-9.929,30.729,92.743Z" fill="#ffc09d"/>
        <path id="Trazado_105253" data-name="Trazado 105253" d="M432.916,221.979a22.117,22.117,0,0,1-1.008-3.4c-.578-2.2-1.369-5.4-2.294-9.37-1.861-7.93-4.244-18.927-6.7-31.108s-4.534-23.241-5.979-31.255c-.672-3.873-1.229-7.076-1.65-9.5a22,22,0,0,1-.458-3.512,22.051,22.051,0,0,1,.874,3.432c.508,2.409,1.178,5.589,1.99,9.436,1.644,8.152,3.85,19.091,6.29,31.185,2.474,12.081,4.713,23.011,6.381,31.157.8,3.848,1.457,7.03,1.956,9.44a22.135,22.135,0,0,1,.595,3.492" fill="#ff9b6c"/>
        <path id="Trazado_105254" data-name="Trazado 105254" d="M290.762,93.348a6.31,6.31,0,0,1,5.561-2.561,5.756,5.756,0,0,1,4.057,1.978,3.648,3.648,0,0,1,.439,4.159c-.893,1.365-2.853,1.748-4.541,1.338a13.263,13.263,0,0,1-4.576-2.5,3.885,3.885,0,0,1-1.039-1,1.171,1.171,0,0,1-.046-1.3" fill="#ff9b6c"/>
        <path id="Trazado_105255" data-name="Trazado 105255" d="M299.345,86.993c-.57-.011-.43,3.787-3.576,6.609s-7.205,2.561-7.213,3.093c-.044.24.93.7,2.64.682a9.456,9.456,0,0,0,6.03-2.367,8.238,8.238,0,0,0,2.755-5.531c.083-1.593-.377-2.518-.636-2.486" fill="#263238"/>
        <path id="Trazado_105256" data-name="Trazado 105256" d="M350.619,86.7a2.553,2.553,0,0,1,.922.708,5.291,5.291,0,0,1,1.332,2.876,5.218,5.218,0,0,1-.168,2.225,5.456,5.456,0,0,1-1.329,2.194,5.968,5.968,0,0,1-2.413,1.488,5.578,5.578,0,0,1-3.044.082,6.109,6.109,0,0,1-4.263-3.786,6.55,6.55,0,0,1,.107-4.694,4.185,4.185,0,0,1,2.1-2.359,1.975,1.975,0,0,1,.861-.163c.2.011.3.047.3.061a3.534,3.534,0,0,0-1.075.286,4.145,4.145,0,0,0-1.845,2.311,6.3,6.3,0,0,0,0,4.39,5.7,5.7,0,0,0,3.939,3.449,5.256,5.256,0,0,0,4.992-1.4,4.865,4.865,0,0,0,1.471-4.037,5.412,5.412,0,0,0-1.12-2.787c-.457-.564-.8-.8-.768-.84" fill="#e0e0e0"/>
        <path id="Trazado_105257" data-name="Trazado 105257" d="M331.4,189.734c-.143-.109-.083-.507.145-1.14.249-.618.577-1.533.953-2.684a24.334,24.334,0,0,0,.9-4.289,33.57,33.57,0,0,0,.093-5.827,68.048,68.048,0,0,0-.917-7.169c-.437-2.6-1.034-5.381-1.514-8.426a127.468,127.468,0,0,1-1.695-19.9,123.169,123.169,0,0,1,4.957-35.817c2.651-8.888,5.4-13.955,6.006-13.727.74.263-.754,5.724-2.429,14.6a177.979,177.979,0,0,0-3.326,34.912,170.176,170.176,0,0,0,1.236,19.249c.729,5.882,1.588,11.451,1.364,16.24a29.163,29.163,0,0,1-.919,6.435,18.485,18.485,0,0,1-1.912,4.561,10.606,10.606,0,0,1-1.928,2.432c-.533.476-.873.661-1.015.552" fill="#263238"/>
        <path id="Trazado_105258" data-name="Trazado 105258" d="M246.247,181.217c-2.961,12.138-6.074,25.373-5.5,38.448s6.441,26.968,12.726,38.448" fill="#ff725e"/>
        <path id="Trazado_105259" data-name="Trazado 105259" d="M253.468,258.113a4.732,4.732,0,0,1-.43-.689c-.263-.463-.662-1.139-1.136-2.031-.968-1.774-2.31-4.375-3.814-7.664a100.128,100.128,0,0,1-4.569-11.851,71.554,71.554,0,0,1-1.886-7.27,54.425,54.425,0,0,1-1.088-8,83.777,83.777,0,0,1,.653-15.546c.624-4.744,1.45-8.974,2.225-12.5s1.485-6.366,1.987-8.322q.373-1.408.594-2.249a4.653,4.653,0,0,1,.243-.775,4.854,4.854,0,0,1-.141.8q-.186.849-.5,2.271c-.441,1.971-1.093,4.818-1.823,8.352s-1.514,7.758-2.11,12.486a85.8,85.8,0,0,0-.609,15.454,54.911,54.911,0,0,0,1.068,7.926,72.838,72.838,0,0,0,1.845,7.231,105.7,105.7,0,0,0,4.446,11.842c1.456,3.3,2.746,5.92,3.657,7.72l1.049,2.075a4.685,4.685,0,0,1,.338.739" fill="#263238"/>
        <path id="Trazado_105260" data-name="Trazado 105260" d="M439.953,130.6a9.032,9.032,0,0,1,.119,1.592,38.713,38.713,0,0,1-.062,4.357,18.058,18.058,0,0,1-1.541,6.3,11.913,11.913,0,0,1-2.164,3.206,10.446,10.446,0,0,1-3.436,2.342,12.179,12.179,0,0,1-7.9.518,10.547,10.547,0,0,1-3.085-1.658,21.351,21.351,0,0,1-2.291-1.975,35.336,35.336,0,0,1-2.908-3.245,8.184,8.184,0,0,1-.931-1.3,10.838,10.838,0,0,1,1.086,1.167c.686.759,1.673,1.866,3.007,3.11a22.293,22.293,0,0,0,2.29,1.891,10.268,10.268,0,0,0,2.971,1.548,11.87,11.87,0,0,0,7.557-.537,10.092,10.092,0,0,0,3.274-2.218,11.647,11.647,0,0,0,2.1-3.057,18.364,18.364,0,0,0,1.607-6.125c.185-1.813.2-3.3.227-4.322a9.7,9.7,0,0,1,.083-1.593" fill="#263238"/>
        <path id="Trazado_105261" data-name="Trazado 105261" d="M441.821,134.659a9.542,9.542,0,0,1,.121,1.651,35.7,35.7,0,0,1-.1,4.517,16.6,16.6,0,0,1-1.844,6.46,11.084,11.084,0,0,1-6.2,5.311,14.066,14.066,0,0,1-8.208.349,12.073,12.073,0,0,1-3.233-1.64,22.7,22.7,0,0,1-2.447-1.958,36.465,36.465,0,0,1-3.141-3.247,8.811,8.811,0,0,1-1.017-1.307,11.625,11.625,0,0,1,1.167,1.171c.74.76,1.8,1.87,3.235,3.107a23.642,23.642,0,0,0,2.444,1.876,11.89,11.89,0,0,0,3.128,1.538,13.831,13.831,0,0,0,7.9-.379,10.725,10.725,0,0,0,5.96-5.053,16.765,16.765,0,0,0,1.9-6.267c.218-1.876.229-3.416.259-4.477a10.525,10.525,0,0,1,.082-1.652" fill="#263238"/>
        <path id="Trazado_105262" data-name="Trazado 105262" d="M340.106,281.634a2.643,2.643,0,0,1-.589-.139l-1.659-.5c-.722-.214-1.6-.494-2.6-.872s-2.158-.758-3.393-1.3c-1.247-.508-2.609-1.076-4.034-1.767-1.447-.644-2.939-1.444-4.52-2.264a89.691,89.691,0,0,1-18.767-13.5c-1.281-1.238-2.514-2.4-3.585-3.565-1.109-1.132-2.08-2.242-2.959-3.262-.9-1-1.637-1.973-2.308-2.805s-1.221-1.57-1.654-2.186l-1-1.415a2.67,2.67,0,0,1-.319-.513,2.673,2.673,0,0,1,.4.451l1.076,1.355c.456.6,1.023,1.318,1.719,2.125s1.442,1.765,2.358,2.745c.893,1,1.875,2.092,2.992,3.205,1.08,1.149,2.318,2.291,3.6,3.513a94.334,94.334,0,0,0,18.671,13.428c1.566.827,3.043,1.638,4.476,2.3,1.41.705,2.757,1.289,3.989,1.818,1.221.556,2.364.966,3.353,1.362s1.853.71,2.563.953l1.626.59a2.694,2.694,0,0,1,.557.239" fill="#263238"/>
        <g id="Grupo_57668" data-name="Grupo 57668" opacity="0.3">
          <g id="Grupo_57667" data-name="Grupo 57667">
            <g id="Grupo_57666" data-name="Grupo 57666" clip-path="url(#clip-path-5)">
              <path id="Trazado_105263" data-name="Trazado 105263" d="M385.7,197.908a40.926,40.926,0,0,0,2.85-35.229Z"/>
            </g>
          </g>
        </g>
        <path id="Trazado_105264" data-name="Trazado 105264" d="M388.594,160.841c.143.012-.752,12.041-2,26.865s-2.375,26.836-2.518,26.824.751-12.039,2-26.868,2.374-26.833,2.517-26.821" fill="#263238"/>
        <g id="Grupo_57671" data-name="Grupo 57671" opacity="0.3">
          <g id="Grupo_57670" data-name="Grupo 57670">
            <g id="Grupo_57669" data-name="Grupo 57669" clip-path="url(#clip-path-6)">
              <path id="Trazado_105265" data-name="Trazado 105265" d="M346.731,270.438l2.974,5.23a10.565,10.565,0,0,0,3.183,3.94c1.27.807,2.82,1.032,4.185,1.665,2.159,1,3.709,2.945,5.609,4.378,4.528,3.416,11.624,4.132,17.294,4.272L376.192,279.3l-4.665-12.906Z"/>
            </g>
          </g>
        </g>
        <path id="Trazado_105266" data-name="Trazado 105266" d="M349.933,265.124a8.783,8.783,0,0,1,3.37-5.622c2.4-1.745,20.281-5.784,27.256-7.312a5.575,5.575,0,0,1,6.18,2.816,4.6,4.6,0,0,1,.533,1.98c.088,3.219-.843,4.349-.843,4.349a8.629,8.629,0,0,1,3.672,4.575,5.985,5.985,0,0,1-.356,4.774s4.028,2.74,1.179,8.616c0,0,2.382,2.694-.7,5.584s-14.2.452-14.2.452l-13.841-4.027a3.484,3.484,0,0,1-.466-3.475s-9.288-1.326-10.165-2.682a6.876,6.876,0,0,1-.74-3.531s-3.919-.367-4.33-1.92-.571-4.525,3.452-4.577" fill="#ffc09d"/>
        <path id="Trazado_105267" data-name="Trazado 105267" d="M361.94,277.131a3.442,3.442,0,0,1,.963-.069c.62-.011,1.515-.006,2.622.015,2.212.04,5.267.153,8.638.353s6.419.452,8.62.674c1.1.111,1.991.213,2.605.3a3.467,3.467,0,0,1,.948.183,25.657,25.657,0,0,1-3.582-.113l-8.622-.521-8.622-.506a25.722,25.722,0,0,1-3.57-.313" fill="#ff9b6c"/>
        <path id="Trazado_105268" data-name="Trazado 105268" d="M350.468,271.572a6.914,6.914,0,0,1,1.352-.25c.873-.13,2.142-.284,3.713-.448,3.142-.329,7.5-.655,12.318-.777s9.189-.009,12.343.163c1.577.086,2.852.177,3.732.263a6.968,6.968,0,0,1,1.362.183,6.967,6.967,0,0,1-1.374.02l-3.734-.1c-3.152-.078-7.507-.128-12.316-.011s-9.154.389-12.3.624l-3.725.283a6.906,6.906,0,0,1-1.373.048" fill="#ff9b6c"/>
        <path id="Trazado_105269" data-name="Trazado 105269" d="M349.656,264.92c-.018-.143,7.312-1.208,16.37-2.378s16.419-2.005,16.438-1.862-7.31,1.207-16.371,2.378-16.418,2-16.437,1.862" fill="#ff9b6c"/>
        <path id="Trazado_105270" data-name="Trazado 105270" d="M367.808,254.987c-.036-.157,3.289-.926,7.336-1.988,1.006-.257,1.933-.618,2.839-.841a10.515,10.515,0,0,1,2.434-.351,3.978,3.978,0,0,1,2.211.44,20.835,20.835,0,0,0-2.194-.072,12.127,12.127,0,0,0-2.326.446c-.856.236-1.8.616-2.827.881-2.038.548-3.9.931-5.257,1.187a9.26,9.26,0,0,1-2.216.3" fill="#ff9b6c"/>
        <path id="Trazado_105271" data-name="Trazado 105271" d="M218.41,182.216a11.371,11.371,0,0,1,.318,1.738c.177,1.123.379,2.755.584,4.778a123.322,123.322,0,0,1,.527,15.872,131.435,131.435,0,0,1-1.5,15.813c-.317,2.007-.607,3.626-.84,4.739a11.537,11.537,0,0,1-.406,1.719,11.534,11.534,0,0,1,.206-1.754c.171-1.208.4-2.813.675-4.757.538-4.019,1.139-9.593,1.342-15.777a148.128,148.128,0,0,0-.374-15.823c-.157-2.021-.3-3.657-.419-4.786a11.469,11.469,0,0,1-.116-1.762" fill="#263238"/>
        <g id="Grupo_57674" data-name="Grupo 57674" opacity="0.3">
          <g id="Grupo_57673" data-name="Grupo 57673">
            <g id="Grupo_57672" data-name="Grupo 57672" clip-path="url(#clip-path-7)">
              <path id="Trazado_105272" data-name="Trazado 105272" d="M217.413,225.374c5.815-13.343,9.1-29.829,1.144-42.02a149.445,149.445,0,0,1-1.144,42.02"/>
            </g>
          </g>
        </g>
      </g>
    </g>
  </g>
</svg>
