<svg xmlns="http://www.w3.org/2000/svg" xmlns:xlink="http://www.w3.org/1999/xlink" width="150.729" height="159.045" viewBox="0 0 150.729 159.045">
  <defs>
    <clipPath id="clip-path">
      <path id="Trazado_102213" data-name="Trazado 102213" d="M54.76,0,49.466.267c-.38.033-.757.089-1.131.145-.218.033-.435.065-.687.1l-3.517.555c-.855.165-1.7.386-2.522.6l-.951.244a1.012,1.012,0,0,0-.734,1.247L42.293,12a44.293,44.293,0,0,0-8.9,3.694L28.8,7.753a1.016,1.016,0,0,0-1.406-.36L24.339,9.254c-.768.533-1.515,1.1-2.26,1.659l-2.058,1.545c-.288.241-.566.495-.846.748l-3.159,2.887-2.848,3.128c-.239.263-.477.529-.755.854l-1.586,2.111C10.29,22.9,9.754,23.62,9.222,24.4l-1.837,3a1.016,1.016,0,0,0,.358,1.408L15.685,33.4a44.193,44.193,0,0,0-3.695,8.9L3.145,39.934a1.015,1.015,0,0,0-1.248.734l-.246.958c-.213.815-.433,1.656-.605,2.554L.432,48.172C.364,48.61.3,49.049.265,49.5L0,54.867l.266,5.28c.031.445.1.884.166,1.321L1.054,65.5c.166.856.387,1.7.6,2.523l.244.949a1.015,1.015,0,0,0,1.248.734l8.845-2.369a44.214,44.214,0,0,0,3.695,8.9L7.744,80.83a1.014,1.014,0,0,0-.358,1.408l1.865,3.049c.5.733,1.036,1.447,1.572,2.163l1.634,2.17c.233.271.47.533.706.8l2.919,3.2,3.094,2.821c.279.253.557.506.89.785l1.956,1.465c.766.577,1.533,1.156,2.366,1.724l3,1.836a1.014,1.014,0,0,0,1.408-.357l4.593-7.94a44.238,44.238,0,0,0,8.9,3.693l-2.369,8.846a1.013,1.013,0,0,0,.734,1.247l.94.241c.823.215,1.673.435,2.571.61l4.048.623c.413.065.829.13,1.282.169l5.361.264,5.307-.267c.408-.036.819-.1,1.226-.165l4.094-.631c.849-.163,1.681-.38,2.487-.589.332-.086.663-.171,1-.255a1.016,1.016,0,0,0,.736-1.248l-2.369-8.855a44.29,44.29,0,0,0,8.9-3.684l4.593,7.94a1.015,1.015,0,0,0,1.408.357l3.049-1.865c.7-.482,1.388-1,2.072-1.511L89.6,97.182c.3-.254.6-.522.9-.788L93.6,93.548l2.609-2.856c.326-.359.65-.715.992-1.123l1.076-1.416c.233-.318.469-.635.7-.952.47-.631.943-1.264,1.425-1.961l1.827-3a1.013,1.013,0,0,0-.359-1.406l-8.81-5.1a1.015,1.015,0,1,0-1.016,1.757l7.912,4.576-1.255,2.066c-.436.628-.894,1.242-1.35,1.856-.241.322-.48.645-.7.952L95.62,88.3c-.294.348-.6.684-.909,1.023l-2.543,2.79-3.029,2.768c-.279.252-.56.505-.8.712l-2.2,1.652c-.661.5-1.319.992-1.955,1.43l-2.117,1.294-4.574-7.91a1.015,1.015,0,0,0-1.389-.37,42.182,42.182,0,0,1-10.268,4.252,1.017,1.017,0,0,0-.719,1.243l2.364,8.833-.017.005c-.81.21-1.575.408-2.323.554l-3.467.536c-.2.027-.4.058-.6.09-.362.057-.724.115-1.051.145l-5.165.263-5.22-.261c-.373-.032-.74-.091-1.107-.149l-4.014-.618c-.783-.153-1.589-.361-2.369-.565L44.513,97.2a1.01,1.01,0,0,0-.1-.77,1.022,1.022,0,0,0-.617-.473,42.213,42.213,0,0,1-10.269-4.261,1.013,1.013,0,0,0-1.387.37l-4.576,7.911L25.492,98.7c-.764-.522-1.507-1.084-2.247-1.641l-1.917-1.435c-.268-.224-.527-.461-.786-.7l-3.025-2.753L14.67,89.055c-.227-.251-.454-.5-.635-.71l-1.589-2.113c-.518-.692-1.036-1.383-1.493-2.048L9.659,82.066l7.91-4.575A1.013,1.013,0,0,0,17.94,76.1a42.192,42.192,0,0,1-4.261-10.268,1.013,1.013,0,0,0-1.243-.718L3.61,67.48c-.2-.779-.412-1.584-.557-2.33l-.615-3.993c-.058-.381-.12-.763-.146-1.138l-.263-5.152.262-5.235c.027-.386.088-.768.147-1.147l.609-3.957c.152-.789.352-1.557.563-2.368l8.826,2.365a1.017,1.017,0,0,0,1.243-.719A42.178,42.178,0,0,1,17.94,33.537a1.014,1.014,0,0,0-.371-1.389l-7.91-4.574L10.926,25.5c.486-.711,1.006-1.4,1.527-2.1l1.54-2.055c.225-.261.455-.515.683-.769l2.776-3.052,3.09-2.819c.259-.236.519-.472.742-.66l2.02-1.514c.722-.546,1.448-1.093,2.143-1.578l2.117-1.287,4.576,7.912a1.015,1.015,0,0,0,1.387.37A42.2,42.2,0,0,1,43.8,13.687a1.014,1.014,0,0,0,.718-1.243L42.151,3.62c.779-.2,1.585-.411,2.332-.557l3.448-.544c.234-.03.47-.064.706-.1.332-.05.665-.1.968-.127l5.155-.264,5.229.261c.328.029.656.079.984.128.24.036.478.072.683.1l3.446.542c.783.152,1.545.349,2.352.558l.025.007-2.364,8.834a1.015,1.015,0,0,0,.719,1.242A42.176,42.176,0,0,1,76.1,17.95a1.017,1.017,0,0,0,1.389-.37l4.576-7.913,2.066,1.255c.659.457,1.3.938,1.937,1.42l2.222,1.669c.285.241.566.493.846.745L92.1,17.462l2.6,2.844c.312.342.621.68.886.993l1.054,1.387c.234.32.473.639.711.96.459.615.918,1.231,1.322,1.81l1.287,2.118-7.911,4.576a1.017,1.017,0,0,0-.37,1.39,41.818,41.818,0,0,1,4.261,10.267,1.017,1.017,0,0,0,1.244.719l8.826-2.365.019.071c.208.788.4,1.533.546,2.26l.534,3.449c.029.238.065.477.1.715.05.33.1.661.127.967l.264,5.152-.261,5.217c-.029.336-.08.667-.129,1-.036.239-.072.476-.1.682l-.531,3.442c-.149.761-.355,1.545-.556,2.3-.006.022-.012.044-.017.066l-8.826-2.363a1.015,1.015,0,1,0-.526,1.96l9.815,2.629a1.016,1.016,0,0,0,1.248-.734c.086-.347.178-.693.268-1.04.209-.79.425-1.607.592-2.472l.542-3.513c.028-.219.061-.439.094-.658.056-.373.111-.747.145-1.153l.265-5.364-.267-5.3c-.032-.377-.088-.751-.144-1.124-.033-.22-.066-.44-.1-.691l-.545-3.517c-.16-.832-.375-1.645-.583-2.432-.092-.347-.184-.695-.27-1.043a1.016,1.016,0,0,0-1.248-.734L97.631,42.3a43.918,43.918,0,0,0-3.693-8.9l7.939-4.591a1.015,1.015,0,0,0,.359-1.407l-1.861-3.056c-.45-.649-.923-1.284-1.394-1.917-.235-.315-.47-.63-.712-.961l-1.1-1.44c-.313-.373-.64-.732-.97-1.093L93.54,16.029,90.5,13.246c-.3-.267-.593-.534-.939-.821l-2.264-1.7c-.662-.5-1.321-.995-2.052-1.5l-3-1.827a1.018,1.018,0,0,0-1.407.36l-4.593,7.941a44.176,44.176,0,0,0-8.9-3.685l2.369-8.856a1.014,1.014,0,0,0-.737-1.247q-.5-.125-1-.258c-.8-.208-1.631-.423-2.511-.592L61.939.5C61.718.477,61.5.443,61.277.41,60.906.355,60.537.3,60.131.265Z" fill="#48aea0"/>
    </clipPath>
    <clipPath id="clip-path-2">
      <path id="Trazado_102214" data-name="Trazado 102214" d="M45.7,59.288A13.583,13.583,0,1,1,59.282,72.871,13.6,13.6,0,0,1,45.7,59.288m-2.03,0A15.613,15.613,0,1,0,59.282,43.675,15.63,15.63,0,0,0,43.67,59.288" transform="translate(-43.67 -43.675)" fill="#48aea0"/>
    </clipPath>
    <clipPath id="clip-path-3">
      <path id="Trazado_102215" data-name="Trazado 102215" d="M59.931,23.518V42.524a1.015,1.015,0,0,0,2.031,0V23.518a1.015,1.015,0,0,0-2.031,0" transform="translate(-59.931 -22.503)" fill="#48aea0"/>
    </clipPath>
    <clipPath id="clip-path-4">
      <path id="Trazado_102216" data-name="Trazado 102216" d="M29.137,57.8A28.692,28.692,0,0,0,57.8,86.461a1.015,1.015,0,1,0,0-2.03,26.63,26.63,0,0,1,0-53.26,1.015,1.015,0,1,0,0-2.03A28.691,28.691,0,0,0,29.137,57.8" transform="translate(-29.137 -29.142)" fill="#48aea0"/>
    </clipPath>
    <clipPath id="clip-path-5">
      <path id="Trazado_102217" data-name="Trazado 102217" d="M74.148,68.576a1.014,1.014,0,0,0,.371,1.387L108.433,89.55a1,1,0,0,0,.506.136,1.015,1.015,0,0,0,.508-1.893L75.534,68.205a1.011,1.011,0,0,0-1.386.371" transform="translate(-74.012 -68.068)" fill="#48aea0"/>
    </clipPath>
    <clipPath id="clip-path-6">
      <path id="Trazado_102218" data-name="Trazado 102218" d="M81.769,38.287a1.015,1.015,0,0,0,.011,1.435,26.611,26.611,0,0,1,4.369,32.265A1.015,1.015,0,1,0,87.9,73.005a28.64,28.64,0,0,0-4.7-34.729,1.014,1.014,0,0,0-1.435.011" transform="translate(-81.477 -37.984)" fill="#48aea0"/>
    </clipPath>
    <clipPath id="clip-path-7">
      <path id="Trazado_102219" data-name="Trazado 102219" d="M55.675,20.135A4.836,4.836,0,1,0,60.511,15.3a4.836,4.836,0,0,0-4.836,4.835" transform="translate(-55.675 -15.3)" fill="#48aea0"/>
    </clipPath>
    <clipPath id="clip-path-8">
      <path id="Trazado_102220" data-name="Trazado 102220" d="M77.22,38.125a4.836,4.836,0,1,0,4.836-4.836,4.836,4.836,0,0,0-4.836,4.836" transform="translate(-77.22 -33.289)" fill="#48aea0"/>
    </clipPath>
    <clipPath id="clip-path-9">
      <path id="Trazado_102221" data-name="Trazado 102221" d="M55.675,91.6a4.836,4.836,0,1,0,4.836-4.836A4.836,4.836,0,0,0,55.675,91.6" transform="translate(-55.675 -86.762)" fill="#48aea0"/>
    </clipPath>
    <clipPath id="clip-path-10">
      <rect id="Rectángulo_9080" data-name="Rectángulo 9080" width="125.77" height="125.777" fill="none"/>
    </clipPath>
    <clipPath id="clip-path-11">
      <path id="Trazado_106693" data-name="Trazado 106693" d="M55.853,6.629c-.379.033-.759.089-1.131.145-.218.033-.435.064-.687.1l-3.517.554c-.855.166-1.7.386-2.522.6l-.951.244A1.012,1.012,0,0,0,46.3,9.493l.006.023,2.369,8.845a44.357,44.357,0,0,0-8.9,3.694l-4.587-7.94a1.012,1.012,0,0,0-1.381-.376l-.025.015-3.056,1.86c-.768.534-1.518,1.1-2.26,1.659l-2.058,1.545c-.288.242-.567.495-.846.747L22.4,22.456l-2.844,3.129c-.239.264-.477.53-.759.855l-1.582,2.108c-.538.716-1.075,1.434-1.606,2.213l-1.836,3a1.012,1.012,0,0,0,.33,1.392l.028.016,7.939,4.592a44.186,44.186,0,0,0-3.693,8.9L9.531,46.3a1.012,1.012,0,0,0-1.242.711l-.006.024-.245.957c-.212.816-.433,1.657-.6,2.553l-.615,3.993c-.068.438-.135.876-.167,1.33l-.264,5.364.266,5.28c.03.445.1.885.166,1.322l.622,4.031c.166.856.387,1.7.6,2.529l.244.949a1.012,1.012,0,0,0,1.224.741l.024-.006L18.377,73.7a44.186,44.186,0,0,0,3.693,8.9l-7.939,4.592a1.011,1.011,0,0,0-.373,1.381.284.284,0,0,0,.015.027l1.865,3.048c.506.732,1.036,1.447,1.572,2.163l1.633,2.17c.233.271.47.534.707.8l2.919,3.2,3.095,2.822c.28.253.558.506.885.784l1.957,1.465c.765.577,1.533,1.156,2.366,1.725l3,1.836a1.012,1.012,0,0,0,1.392-.33l.016-.028,4.591-7.94a44.26,44.26,0,0,0,8.9,3.693l-2.364,8.849a1.014,1.014,0,0,0,.712,1.242l.023.005.94.242c.823.215,1.673.435,2.571.611l4.047.623c.414.065.828.126,1.282.168l5.361.264,5.312-.267c.409-.035.818-.1,1.227-.166l4.094-.632c.849-.163,1.681-.379,2.486-.589.333-.086.664-.172,1-.253a1.012,1.012,0,0,0,.742-1.223l-.006-.025L73.731,104a44.277,44.277,0,0,0,8.9-3.684l4.592,7.94a1.013,1.013,0,0,0,1.381.374l.028-.016,3.048-1.864c.7-.482,1.391-1,2.072-1.511l2.241-1.687c.3-.253.6-.521.9-.788l3.107-2.846L102.6,97.06c.326-.359.65-.715.992-1.123l1.076-1.415c.234-.317.469-.632.7-.952.47-.632.942-1.265,1.424-1.962l1.826-3a1.013,1.013,0,0,0-.334-1.392l-.025-.014-8.81-5.1a1.014,1.014,0,1,0-1.012,1.757l7.9,4.572L105.1,90.495c-.436.632-.894,1.242-1.351,1.855-.24.323-.481.645-.7.951l-1.035,1.362c-.293.348-.6.684-.909,1.023l-2.543,2.79-3.029,2.767c-.279.253-.56.506-.8.712l-2.2,1.652c-.66.5-1.319.992-1.955,1.43l-2.117,1.294-4.573-7.91a1.011,1.011,0,0,0-1.38-.376l-.011.006A42.152,42.152,0,0,1,72.219,102.3a1.013,1.013,0,0,0-.722,1.236l0,.008,2.364,8.833h-.016c-.809.21-1.575.409-2.323.554l-3.467.536c-.2.027-.4.058-.6.09-.362.057-.725.115-1.051.145l-5.165.263-5.221-.262c-.373-.033-.74-.091-1.107-.149l-4.013-.611c-.783-.153-1.588-.36-2.369-.564l2.369-8.825a1.014,1.014,0,0,0-.718-1.243,42.172,42.172,0,0,1-10.273-4.261,1.012,1.012,0,0,0-1.385.358l-.006.011-4.576,7.911-2.072-1.266c-.759-.521-1.508-1.083-2.247-1.643l-1.916-1.435c-.268-.224-.527-.46-.787-.7L23.9,98.541l-2.846-3.124c-.228-.253-.454-.506-.632-.71l-1.592-2.115c-.519-.692-1.036-1.384-1.492-2.048l-1.294-2.117,7.91-4.574a1.011,1.011,0,0,0,.377-1.38l-.006-.011a42.207,42.207,0,0,1-4.261-10.268,1.012,1.012,0,0,0-1.237-.72h-.006L10,73.842c-.2-.779-.412-1.585-.558-2.33L8.824,67.52c-.058-.379-.126-.759-.147-1.138l-.267-5.152.262-5.236c.027-.386.089-.768.147-1.147l.608-3.957c.152-.789.352-1.557.563-2.369l8.832,2.36a1.014,1.014,0,0,0,1.242-.712V50.16a42.136,42.136,0,0,1,4.261-10.268,1.012,1.012,0,0,0-.359-1.385l-.011-.006-7.908-4.568,1.265-2.074c.486-.711,1.012-1.4,1.527-2.1l1.54-2.055c.225-.262.455-.515.683-.769l2.779-3.048,3.09-2.819c.259-.237.519-.472.741-.66l2.024-1.518c.722-.546,1.448-1.094,2.142-1.578l2.117-1.287,4.572,7.916a1.013,1.013,0,0,0,1.381.376l.01-.006a42.243,42.243,0,0,1,10.268-4.263,1.01,1.01,0,0,0,.72-1.236V18.8L48.537,9.982c.779-.2,1.586-.411,2.332-.556l3.448-.544c.234-.029.47-.063.707-.1.333-.051.665-.1.968-.126l5.158-.269,5.23.262c.328.029.656.078.984.126.24.035.478.072.683.1l3.446.543c.783.152,1.545.349,2.352.558l.025.008L71.5,18.818a1.011,1.011,0,0,0,.713,1.241h.006a42.181,42.181,0,0,1,10.268,4.252,1.013,1.013,0,0,0,1.386-.359l.005-.01,4.572-7.913,2.065,1.255c.659.457,1.3.938,1.938,1.42l2.222,1.669c.286.24.567.493.846.745l2.966,2.705,2.6,2.844c.311.341.621.68.885.993l1.053,1.391c.234.32.473.639.711.96.459.615.918,1.231,1.323,1.81l1.289,2.111-7.912,4.578a1.013,1.013,0,0,0-.376,1.381l.006.01a41.84,41.84,0,0,1,4.261,10.267,1.012,1.012,0,0,0,1.236.722l.009,0,8.826-2.365.019.071c.209.788.4,1.533.546,2.26L113.5,54.3c.029.238.064.477.1.715.051.33.1.66.126.966l.264,5.152-.262,5.217c-.029.335-.08.667-.126,1-.035.239-.072.476-.1.682l-.53,3.441c-.149.759-.355,1.545-.555,2.3a.294.294,0,0,1-.016.066l-8.826-2.362a1.015,1.015,0,0,0-.526,1.96l9.815,2.629a1.012,1.012,0,0,0,1.242-.711l.006-.024c.086-.347.178-.693.268-1.04.209-.79.425-1.607.592-2.473l.543-3.512c.028-.219.061-.44.095-.658.056-.374.111-.747.145-1.152l.264-5.364-.267-5.3c-.033-.379-.089-.751-.144-1.124-.033-.22-.067-.44-.1-.692l-.549-3.522c-.159-.832-.379-1.644-.583-2.432-.091-.348-.185-.694-.271-1.043a1.012,1.012,0,0,0-1.224-.741l-.024.006-8.84,2.375a43.876,43.876,0,0,0-3.693-8.9l7.94-4.591a1.012,1.012,0,0,0,.374-1.381l-.015-.025-1.86-3.056c-.45-.649-.923-1.284-1.391-1.916-.235-.315-.469-.632-.712-.961l-1.1-1.441c-.314-.373-.64-.731-.97-1.093l-2.662-2.909L96.893,19.61c-.3-.267-.593-.534-.938-.821l-2.264-1.7c-.67-.5-1.332-1-2.061-1.505l-3.006-1.826a1.018,1.018,0,0,0-1.4.345l-.009.015-4.593,7.941a44.131,44.131,0,0,0-8.9-3.68l2.369-8.853a1.011,1.011,0,0,0-.713-1.241l-.024-.006-1-.253c-.8-.209-1.631-.422-2.51-.592l-3.516-.564c-.22-.029-.441-.062-.661-.1-.371-.056-.741-.11-1.146-.145l-5.369-.264Z" transform="translate(-6.387 -6.362)" fill="#040735"/>
    </clipPath>
  </defs>
  <g id="Grupo_59328" data-name="Grupo 59328" transform="translate(-13520.815 -1812)">
    <g id="Grupo_59324" data-name="Grupo 59324" transform="translate(296.551 -16.696)">
      <g id="Grupo_53878" data-name="Grupo 53878" transform="translate(13224.264 1828.696)">
        <g id="Grupo_53861" data-name="Grupo 53861">
          <g id="Grupo_53860" data-name="Grupo 53860" clip-path="url(#clip-path)">
            <rect id="Rectángulo_5891" data-name="Rectángulo 5891" width="117.44" height="117.431" transform="matrix(0.074, -0.997, 0.997, 0.074, -8.077, 109.042)" fill="#48aea0"/>
          </g>
        </g>
        <g id="Grupo_53863" data-name="Grupo 53863" transform="translate(39.203 39.207)">
          <g id="Grupo_53862" data-name="Grupo 53862" clip-path="url(#clip-path-2)">
            <rect id="Rectángulo_5892" data-name="Rectángulo 5892" width="33.448" height="33.448" transform="translate(-2.3 31.056) rotate(-85.764)" fill="#48aea0"/>
          </g>
        </g>
        <g id="Grupo_53865" data-name="Grupo 53865" transform="translate(53.8 20.201)">
          <g id="Grupo_53864" data-name="Grupo 53864" clip-path="url(#clip-path-3)">
            <rect id="Rectángulo_5893" data-name="Rectángulo 5893" width="21.128" height="3.579" transform="translate(-1.55 20.921) rotate(-85.764)" fill="#48aea0"/>
          </g>
        </g>
        <g id="Grupo_53867" data-name="Grupo 53867" transform="translate(26.156 26.161)">
          <g id="Grupo_53866" data-name="Grupo 53866" clip-path="url(#clip-path-4)">
            <rect id="Rectángulo_5894" data-name="Rectángulo 5894" width="59.355" height="33.828" transform="translate(-4.223 57.006) rotate(-85.764)" fill="#48aea0"/>
          </g>
        </g>
        <g id="Grupo_53869" data-name="Grupo 53869" transform="translate(66.44 61.105)">
          <g id="Grupo_53868" data-name="Grupo 53868" clip-path="url(#clip-path-5)">
            <rect id="Rectángulo_5895" data-name="Rectángulo 5895" width="24.236" height="37.731" transform="translate(-1.737 21.5) rotate(-85.764)" fill="#48aea0"/>
          </g>
        </g>
        <g id="Grupo_53871" data-name="Grupo 53871" transform="translate(73.142 34.098)">
          <g id="Grupo_53870" data-name="Grupo 53870" clip-path="url(#clip-path-6)">
            <rect id="Rectángulo_5896" data-name="Rectángulo 5896" width="36.196" height="12.966" transform="matrix(0.074, -0.997, 0.997, 0.074, -2.719, 35.334)" fill="#48aea0"/>
          </g>
        </g>
        <g id="Grupo_53873" data-name="Grupo 53873" transform="translate(49.98 13.735)">
          <g id="Grupo_53872" data-name="Grupo 53872" clip-path="url(#clip-path-7)">
            <rect id="Rectángulo_5897" data-name="Rectángulo 5897" width="10.359" height="10.36" transform="translate(-0.712 9.618) rotate(-85.764)" fill="#48aea0"/>
          </g>
        </g>
        <g id="Grupo_53875" data-name="Grupo 53875" transform="translate(69.321 29.884)">
          <g id="Grupo_53874" data-name="Grupo 53874" clip-path="url(#clip-path-8)">
            <rect id="Rectángulo_5898" data-name="Rectángulo 5898" width="10.36" height="10.36" transform="translate(-0.713 9.619) rotate(-85.764)" fill="#48aea0"/>
          </g>
        </g>
        <g id="Grupo_53877" data-name="Grupo 53877" transform="translate(49.98 77.886)">
          <g id="Grupo_53876" data-name="Grupo 53876" clip-path="url(#clip-path-9)">
            <rect id="Rectángulo_5899" data-name="Rectángulo 5899" width="10.359" height="10.36" transform="matrix(0.074, -0.997, 0.997, 0.074, -0.712, 9.618)" fill="#48aea0"/>
          </g>
        </g>
      </g>
      <g id="Grupo_59323" data-name="Grupo 59323" transform="translate(13249.224 1861.963)">
        <g id="Grupo_59320" data-name="Grupo 59320" transform="translate(0 0)">
          <g id="Grupo_59319" data-name="Grupo 59319" clip-path="url(#clip-path-10)">
            <path id="Trazado_106692" data-name="Trazado 106692" d="M22.92,39.1,18.75,49.271,9.244,47.436s-4.337,11.175,0,27.352l9.173-2.335,4.5,10.339-7.8,5s3.8,10.507,18.476,19.68L39.1,98.8l10.173,4.169-2.335,9.507s10.507,4.836,27.685,0l-2.041-9.173,10.214-4.169,4.182,8.9s13.171-6.523,20.166-20.242l-8.505-5,4.5-10.84,9.506,3a40.534,40.534,0,0,0,0-27.352l-8.171,2.5L99.3,39.1l8.338-5.837S99.137,20.919,89.13,14.748l-5.494,8.978L71.257,18.6l2.366-8.84s-15.638-5.814-25.332,0l2.368,8.829L39.1,23.255l-5-8.34S18.02,24.665,15.8,33.717Z" transform="translate(1.937 1.9)" fill="#fff"/>
          </g>
        </g>
        <g id="Grupo_59322" data-name="Grupo 59322" transform="translate(8.078 8.045)">
          <g id="Grupo_59321" data-name="Grupo 59321" clip-path="url(#clip-path-11)">
            <rect id="Rectángulo_9081" data-name="Rectángulo 9081" width="117.409" height="117.401" transform="translate(-8.078 109.042) rotate(-85.755)" fill="#040735"/>
          </g>
        </g>
      </g>
      <g id="Grupo_59318" data-name="Grupo 59318" transform="translate(13285.867 1896.093)">
        <path id="Trazado_106685" data-name="Trazado 106685" d="M14.918,49.368a1.683,1.683,0,0,1-1.532-.986,27.836,27.836,0,0,1,10.982-35.4A1.681,1.681,0,1,1,26.1,15.863a24.475,24.475,0,0,0-9.649,31.126,1.683,1.683,0,0,1-1.53,2.379" transform="translate(-10.854 -9.001)" fill="#70089b"/>
        <path id="Trazado_106686" data-name="Trazado 106686" d="M42.9,49.46a1.684,1.684,0,0,1-1.528-2.381,24.356,24.356,0,0,0-9.946-31.3,1.682,1.682,0,1,1,1.689-2.909,27.708,27.708,0,0,1,11.314,35.6,1.682,1.682,0,0,1-1.53.982" transform="translate(8.734 -9.091)" fill="#70089b"/>
        <path id="Trazado_106688" data-name="Trazado 106688" d="M30.094,31.992A10.564,10.564,0,1,1,40.66,21.428,10.575,10.575,0,0,1,30.094,31.992m0-17.766a7.2,7.2,0,1,0,7.2,7.2,7.21,7.21,0,0,0-7.2-7.2" transform="translate(-2.243 -10.863)" fill="#0155a0"/>
        <path id="Trazado_106689" data-name="Trazado 106689" d="M53.576,51.693H17.009a2.719,2.719,0,0,1-2.716-2.716V28.411a6.282,6.282,0,0,1,3.991-5.824,1.441,1.441,0,0,1,.239-.074L26.3,20.772a1.682,1.682,0,0,1,.735,3.283L19.4,25.765a2.9,2.9,0,0,0-1.739,2.646V48.33H52.928V28.411a2.9,2.9,0,0,0-1.739-2.646l-7.641-1.709a1.682,1.682,0,0,1,.735-3.283l7.776,1.741a1.523,1.523,0,0,1,.241.074,6.282,6.282,0,0,1,3.991,5.824V48.978a2.719,2.719,0,0,1-2.716,2.716" transform="translate(-7.442 -1.07)" fill="#0155a0"/>
        <path id="Trazado_106690" data-name="Trazado 106690" d="M19.479,45A1.682,1.682,0,0,1,17.8,43.314V29.163a1.682,1.682,0,1,1,3.363,0V43.314A1.682,1.682,0,0,1,19.479,45" transform="translate(-3.965 5.628)" fill="#0155a0"/>
        <path id="Trazado_106691" data-name="Trazado 106691" d="M31.863,45a1.682,1.682,0,0,1-1.682-1.682V29.163a1.682,1.682,0,1,1,3.363,0V43.314A1.682,1.682,0,0,1,31.863,45" transform="translate(8.325 5.628)" fill="#0155a0"/>
      </g>
    </g>
  </g>
</svg>
