<svg xmlns="http://www.w3.org/2000/svg" width="999.269" height="314.361" viewBox="0 0 999.269 314.361">
  <g id="Grupo_57124" data-name="Grupo 57124" transform="translate(-344.435 -1344.745)">
    <path id="Trazado_102269" data-name="Trazado 102269" d="M1203.894,377.221H1068.282a2.282,2.282,0,1,1,0-4.564h129.539l-11.077-9.692a2.282,2.282,0,1,1,3.006-3.435l15.647,13.692a2.282,2.282,0,0,1-1.5,4" transform="translate(-132.047 1062.073)" fill="#040735"/>
    <g id="Grupo_57123" data-name="Grupo 57123">
      <path id="Trazado_102250" data-name="Trazado 102250" d="M1573.862,262.727a108.713,108.713,0,0,1,12.37,4.906l2.085-4.439a113.693,113.693,0,0,0-12.932-5.128Z" transform="translate(-311.791 1097.189)" fill="#040735"/>
      <path id="Trazado_102251" data-name="Trazado 102251" d="M1533.874,254.785a109.515,109.515,0,0,1,13.193,1.748l.94-4.812a114.312,114.312,0,0,0-13.787-1.827Z" transform="translate(-297.874 1100.034)" fill="#040735"/>
      <path id="Sustracción_1" data-name="Sustracción 1" d="M-3441.1,171.442h-4.9V113.873a2.454,2.454,0,0,1,2.451-2.452A109.093,109.093,0,0,0-3334.583,2.453,2.455,2.455,0,0,1-3332.131,0h216.305a2.455,2.455,0,0,1,2.452,2.452c0,57.189,44.672,104.945,101.7,108.721a7.362,7.362,0,0,1,6.725-4.383,7.364,7.364,0,0,1,7.355,7.356,7.363,7.363,0,0,1-7.355,7.355,7.363,7.363,0,0,1-7.094-5.438,113.529,113.529,0,0,1-74.546-34.873A113.48,113.48,0,0,1-3118.252,4.9H-3329.7A112.833,112.833,0,0,1-3339.1,47.8a114.127,114.127,0,0,1-10.376,18.751,115.035,115.035,0,0,1-13.595,16.386,115.02,115.02,0,0,1-16.386,13.594,114.1,114.1,0,0,1-18.751,10.377A112.832,112.832,0,0,1-3441.1,116.3Z" transform="translate(4235.58 1461.058)" fill="#040735" stroke="rgba(0,0,0,0)" stroke-miterlimit="10" stroke-width="1"/>
      <path id="Trazado_102246" data-name="Trazado 102246" d="M1642.342,306.439a109.663,109.663,0,0,1,8.629,10.137l3.92-2.946a114.765,114.765,0,0,0-9.016-10.591Z" transform="translate(-332.625 1081.536)" fill="#040735"/>
      <path id="Trazado_102247" data-name="Trazado 102247" d="M1610.739,280.311a109.54,109.54,0,0,1,10.812,7.759l3.1-3.8a114.5,114.5,0,0,0-11.3-8.107Z" transform="translate(-321.627 1090.891)" fill="#040735"/>
      <path id="Trazado_102248" data-name="Trazado 102248" d="M1687.4,376.348l-4.717,1.338a108.879,108.879,0,0,1,2.837,13l4.846-.749a113.843,113.843,0,0,0-2.966-13.59" transform="translate(-346.666 1056.023)" fill="#040735"/>
      <path id="Trazado_102249" data-name="Trazado 102249" d="M1671.077,337.092l-4.249,2.446a109.037,109.037,0,0,1,5.922,11.925l4.518-1.908a113.841,113.841,0,0,0-6.191-12.463" transform="translate(-341.147 1069.685)" fill="#040735"/>
      <g id="Grupo_57122" data-name="Grupo 57122">
        <path id="Trazado_102263" data-name="Trazado 102263" d="M785.686,258.784l1.759,4.578a108.533,108.533,0,0,1,12.7-4l-1.183-4.759a113.474,113.474,0,0,0-13.276,4.183" transform="translate(-35.075 1098.677)" fill="#040735"/>
        <path id="Trazado_102265" data-name="Trazado 102265" d="M840.908,256.224a7.355,7.355,0,1,0-7.083-9.315c-2.279.14-4.549.345-6.8.618l.591,4.868c2.163-.263,4.349-.461,6.543-.595a7.356,7.356,0,0,0,6.745,4.424" transform="translate(-49.463 1103.232)" fill="#040735"/>
        <path id="Trazado_102259" data-name="Trazado 102259" d="M716.457,304.272l3.7,3.217a110,110,0,0,1,9.328-9.5L726.2,294.35a114.916,114.916,0,0,0-9.744,9.922" transform="translate(-10.399 1084.56)" fill="#040735"/>
        <path id="Trazado_102260" data-name="Trazado 102260" d="M692.636,338.459,697,340.687a109.383,109.383,0,0,1,6.758-11.459l-4.064-2.744a114.221,114.221,0,0,0-7.063,11.975" transform="translate(-2.109 1073.377)" fill="#040735"/>
        <path id="Trazado_102261" data-name="Trazado 102261" d="M678.083,377.758l4.779,1.1a108.561,108.561,0,0,1,3.769-12.762l-4.608-1.676a113.312,113.312,0,0,0-3.94,13.341" transform="translate(2.956 1060.176)" fill="#040735"/>
        <path id="Trazado_102262" data-name="Trazado 102262" d="M748.087,277.166l2.817,4.014a109.559,109.559,0,0,1,11.344-6.97l-2.306-4.327a114.373,114.373,0,0,0-11.855,7.283" transform="translate(-21.407 1093.075)" fill="#040735"/>
        <g id="Grupo_57121" data-name="Grupo 57121">
          <path id="Trazado_102254" data-name="Trazado 102254" d="M186.755,254.785a109.518,109.518,0,0,1,13.193,1.748l.94-4.812a114.308,114.308,0,0,0-13.787-1.827Z" transform="translate(174.368 1100.034)" fill="#040735"/>
          <path id="Trazado_102255" data-name="Trazado 102255" d="M226.744,262.726a108.72,108.72,0,0,1,12.371,4.906l2.084-4.439a113.754,113.754,0,0,0-12.931-5.129Z" transform="translate(160.451 1097.19)" fill="#040735"/>
          <path id="Trazado_102252" data-name="Trazado 102252" d="M295.224,306.439a110.059,110.059,0,0,1,8.63,10.137l3.92-2.946a114.988,114.988,0,0,0-9.016-10.591Z" transform="translate(136.198 1081.536)" fill="#040735"/>
          <path id="Trazado_102253" data-name="Trazado 102253" d="M263.621,280.312a109.559,109.559,0,0,1,10.811,7.759l3.1-3.8a114.464,114.464,0,0,0-11.3-8.106Z" transform="translate(147.197 1090.891)" fill="#040735"/>
          <path id="Trazado_102256" data-name="Trazado 102256" d="M323.959,337.092l-4.25,2.446a108.932,108.932,0,0,1,5.923,11.925l4.517-1.908a113.861,113.861,0,0,0-6.191-12.463" transform="translate(127.677 1069.685)" fill="#040735"/>
          <path id="Trazado_102257" data-name="Trazado 102257" d="M340.284,376.347l-4.717,1.338a108.888,108.888,0,0,1,2.837,13l4.846-.75a113.754,113.754,0,0,0-2.967-13.59" transform="translate(122.158 1056.024)" fill="#040735"/>
          <path id="Trazado_102258" data-name="Trazado 102258" d="M346.707,418.428l-4.9.157c.037,1.175.057,2.368.057,3.547v2.451h12.446v-4.9H346.74q-.013-.628-.033-1.252" transform="translate(119.987 1041.379)" fill="#040735"/>
          <rect id="Rectángulo_5920" data-name="Rectángulo 5920" width="13.621" height="4.904" transform="translate(624.129 1461.059)" fill="#040735"/>
          <path id="Trazado_102264" data-name="Trazado 102264" d="M673.658,417.781h.46v2.452h4.444v-2.452a110.743,110.743,0,0,1,.583-11.351l-4.877-.5a115.8,115.8,0,0,0-.61,11.856" transform="translate(4.496 1045.73)" fill="#040735"/>
          <rect id="Rectángulo_5921" data-name="Rectángulo 5921" width="13.621" height="4.904" transform="translate(542.402 1461.059)" fill="#040735"/>
          <rect id="Rectángulo_5922" data-name="Rectángulo 5922" width="13.621" height="4.904" transform="translate(569.644 1461.059)" fill="#040735"/>
          <rect id="Rectángulo_5923" data-name="Rectángulo 5923" width="13.621" height="4.904" transform="translate(515.16 1461.059)" fill="#040735"/>
          <rect id="Rectángulo_5924" data-name="Rectángulo 5924" width="13.621" height="4.904" transform="translate(487.917 1461.059)" fill="#040735"/>
          <rect id="Rectángulo_5925" data-name="Rectángulo 5925" width="13.621" height="4.904" transform="translate(651.371 1461.059)" fill="#040735"/>
          <rect id="Rectángulo_5926" data-name="Rectángulo 5926" width="13.621" height="4.904" transform="translate(596.887 1461.059)" fill="#040735"/>
        </g>
      </g>
      <rect id="Rectángulo_5910" data-name="Rectángulo 5910" width="4.904" height="13.621" transform="translate(1229.19 1618.242)" fill="#040735"/>
      <rect id="Rectángulo_5911" data-name="Rectángulo 5911" width="4.904" height="13.621" transform="translate(1229.19 1591)" fill="#040735"/>
      <rect id="Rectángulo_5912" data-name="Rectángulo 5912" width="4.904" height="13.621" transform="translate(1229.19 1645.485)" fill="#040735"/>
      <rect id="Rectángulo_5918" data-name="Rectángulo 5918" width="4.904" height="13.621" transform="translate(349.883 1601.793)" fill="#040735"/>
      <rect id="Rectángulo_5919" data-name="Rectángulo 5919" width="4.904" height="13.621" transform="translate(349.883 1574.55)" fill="#040735"/>
      <path id="Trazado_102267" data-name="Trazado 102267" d="M168.088,8.808V0h4.9V9.192a7.359,7.359,0,1,1-4.9-.384" transform="translate(181.796 1629.035)" fill="#040735"/>
      <path id="Trazado_102268" data-name="Trazado 102268" d="M511.748,478.722a2.282,2.282,0,0,1-1.5-4l11.077-9.692H391.783a2.282,2.282,0,1,1,0-4.564H527.394a2.282,2.282,0,0,1,1.5,4l-15.648,13.692a2.272,2.272,0,0,1-1.5.565" transform="translate(103.388 1026.749)" fill="#040735"/>
      <circle id="Elipse_8" data-name="Elipse 8" cx="7.5" cy="7.5" r="7.5" transform="translate(784.477 1629)" fill="#040735"/>
    </g>
  </g>
</svg>
