<svg xmlns="http://www.w3.org/2000/svg" xmlns:xlink="http://www.w3.org/1999/xlink" width="191.786" height="191.786" viewBox="0 0 191.786 191.786">
  <defs>
    <clipPath id="clip-path">
      <path id="Trazado_102213" data-name="Trazado 102213" d="M73.01,0,65.952.355c-.506.044-1.009.118-1.508.194-.291.044-.58.086-.916.129l-4.689.74c-1.139.22-2.269.515-3.362.8l-1.268.326a1.349,1.349,0,0,0-.979,1.662L56.389,16a59.056,59.056,0,0,0-11.866,4.925L38.4,10.338a1.355,1.355,0,0,0-1.874-.48l-4.074,2.481c-1.023.711-2.02,1.463-3.013,2.212L26.7,16.61c-.384.322-.755.659-1.127,1l-4.212,3.849-3.8,4.17c-.318.351-.636.7-1.007,1.138L14.437,29.58c-.717.955-1.433,1.913-2.141,2.95L9.847,36.536a1.355,1.355,0,0,0,.478,1.878l10.588,6.122A58.921,58.921,0,0,0,15.986,56.4L4.193,53.244a1.354,1.354,0,0,0-1.664.979L2.2,55.5c-.284,1.087-.577,2.208-.807,3.405L.576,64.228C.485,64.81.395,65.4.353,66L0,73.154l.354,7.04c.041.594.13,1.179.221,1.762l.829,5.374c.221,1.142.516,2.272.8,3.364l.326,1.265a1.354,1.354,0,0,0,1.664.979L15.986,89.78a58.95,58.95,0,0,0,4.926,11.866l-10.588,6.123a1.353,1.353,0,0,0-.478,1.877l2.487,4.065c.667.977,1.381,1.929,2.1,2.883l2.178,2.893c.31.361.627.711.942,1.06l3.892,4.266,4.126,3.762c.372.338.743.675,1.186,1.046l2.608,1.953c1.021.77,2.044,1.542,3.155,2.3l4,2.448a1.352,1.352,0,0,0,1.878-.476l6.123-10.586a58.982,58.982,0,0,0,11.866,4.924L53.23,141.976a1.351,1.351,0,0,0,.979,1.663l1.253.322c1.1.286,2.231.58,3.428.814l5.4.831c.551.086,1.1.174,1.709.225l7.148.352,7.076-.355c.545-.048,1.092-.133,1.635-.22l5.458-.841c1.132-.218,2.242-.506,3.315-.785.443-.115.884-.229,1.329-.34a1.355,1.355,0,0,0,.981-1.664L89.78,130.17a59.05,59.05,0,0,0,11.865-4.912l6.123,10.586a1.353,1.353,0,0,0,1.878.476l4.065-2.486c.94-.643,1.85-1.329,2.762-2.014l2.987-2.249c.4-.339.8-.7,1.2-1.051l4.144-3.794,3.478-3.807c.434-.479.867-.953,1.323-1.5l1.435-1.888c.311-.424.626-.846.94-1.27.627-.841,1.257-1.685,1.9-2.615l2.436-4.006a1.351,1.351,0,0,0-.479-1.874l-11.746-6.794a1.353,1.353,0,1,0-1.355,2.342l10.549,6.1-1.673,2.754c-.582.838-1.192,1.657-1.8,2.474-.321.43-.64.859-.94,1.269l-1.379,1.816c-.391.464-.8.912-1.212,1.364l-3.391,3.72-4.038,3.69c-.372.336-.747.674-1.071.949l-2.929,2.2c-.881.662-1.758,1.323-2.607,1.907l-2.822,1.725-6.1-10.546a1.353,1.353,0,0,0-1.852-.493,56.241,56.241,0,0,1-13.69,5.668,1.356,1.356,0,0,0-.959,1.658l3.151,11.777-.023.007c-1.08.28-2.1.545-3.1.738l-4.622.715c-.264.036-.529.078-.795.12-.482.077-.966.153-1.4.194l-6.887.351-6.96-.348c-.5-.043-.986-.121-1.476-.2l-5.351-.823c-1.044-.2-2.118-.481-3.159-.753l3.15-11.765a1.346,1.346,0,0,0-.135-1.027,1.363,1.363,0,0,0-.822-.631A56.282,56.282,0,0,1,44.7,122.25a1.35,1.35,0,0,0-1.849.493l-6.1,10.547L33.988,131.6c-1.019-.7-2.01-1.445-3-2.188L28.437,127.5c-.357-.3-.7-.614-1.048-.929L23.355,122.9l-3.8-4.165c-.3-.335-.606-.671-.846-.947l-2.118-2.817c-.691-.923-1.381-1.844-1.99-2.73l-1.726-2.823,10.546-6.1a1.35,1.35,0,0,0,.494-1.85,56.254,56.254,0,0,1-5.682-13.69,1.351,1.351,0,0,0-1.658-.957L4.813,89.97c-.27-1.039-.549-2.113-.743-3.106l-.82-5.324c-.078-.507-.16-1.017-.2-1.518L2.7,73.154l.349-6.98c.036-.515.117-1.023.2-1.53l.811-5.276c.2-1.052.469-2.075.75-3.157l11.768,3.153a1.356,1.356,0,0,0,1.658-.959,56.235,56.235,0,0,1,5.682-13.69,1.352,1.352,0,0,0-.494-1.852l-10.546-6.1L14.567,34c.648-.948,1.342-1.872,2.036-2.8l2.054-2.74c.3-.348.607-.687.911-1.026l3.7-4.069,4.12-3.758c.346-.315.692-.63.989-.88l2.693-2.019c.962-.728,1.931-1.458,2.857-2.1l2.822-1.716,6.1,10.549a1.353,1.353,0,0,0,1.849.493,56.27,56.27,0,0,1,13.691-5.684,1.352,1.352,0,0,0,.958-1.658L56.2,4.826c1.039-.269,2.114-.548,3.11-.742l4.6-.725c.312-.039.627-.085.942-.133.443-.067.887-.134,1.29-.17L73.011,2.7l6.972.348c.437.038.875.105,1.312.171.32.048.637.1.911.128l4.595.723c1.044.2,2.06.466,3.136.744l.034.01L86.819,16.607a1.354,1.354,0,0,0,.959,1.656,56.233,56.233,0,0,1,13.69,5.67,1.356,1.356,0,0,0,1.852-.493l6.1-10.551,2.754,1.673c.879.609,1.73,1.251,2.583,1.893l2.962,2.225c.381.321.755.657,1.127.993l3.955,3.607,3.464,3.792c.415.456.828.907,1.181,1.324l1.405,1.849c.312.427.631.852.948,1.279.612.82,1.224,1.641,1.763,2.413l1.716,2.823-10.548,6.1a1.356,1.356,0,0,0-.493,1.853A55.757,55.757,0,0,1,127.919,58.4a1.356,1.356,0,0,0,1.659.959l11.768-3.153.025.095c.278,1.051.54,2.044.728,3.014l.712,4.6c.038.317.086.636.134.953.067.44.134.881.169,1.289l.352,6.869-.348,6.956c-.038.448-.107.889-.172,1.329-.048.318-.1.634-.128.91l-.707,4.589c-.2,1.015-.474,2.06-.741,3.071-.008.03-.016.059-.023.087l-11.768-3.15a1.353,1.353,0,1,0-.7,2.613l13.087,3.506a1.355,1.355,0,0,0,1.664-.979c.115-.462.237-.924.358-1.386.279-1.053.566-2.142.789-3.3l.723-4.683c.037-.292.081-.585.126-.877.074-.5.148-1,.194-1.537l.353-7.151-.355-7.063c-.043-.5-.117-1-.191-1.5-.044-.293-.089-.586-.13-.922l-.727-4.689c-.213-1.11-.5-2.194-.778-3.242-.122-.463-.245-.926-.36-1.391a1.355,1.355,0,0,0-1.664-.979L130.17,56.4a58.556,58.556,0,0,0-4.924-11.867l10.585-6.121a1.353,1.353,0,0,0,.479-1.876l-2.481-4.074c-.6-.865-1.23-1.712-1.859-2.555-.314-.42-.626-.84-.949-1.282l-1.463-1.92c-.418-.5-.853-.975-1.294-1.457l-3.55-3.879-4.059-3.71c-.395-.355-.791-.712-1.252-1.1L116.386,14.3c-.882-.665-1.761-1.326-2.736-2l-4.006-2.436a1.358,1.358,0,0,0-1.876.48l-6.123,10.588A58.9,58.9,0,0,0,89.78,16.012L92.938,4.2a1.353,1.353,0,0,0-.983-1.662q-.671-.167-1.339-.344c-1.069-.278-2.175-.564-3.348-.789L82.582.671c-.294-.036-.589-.08-.882-.124C81.205.473,80.712.4,80.171.353Z" fill="#fff"/>
    </clipPath>
    <clipPath id="clip-path-2">
      <path id="Trazado_102214" data-name="Trazado 102214" d="M46.376,64.491A18.11,18.11,0,1,1,64.485,82.6a18.13,18.13,0,0,1-18.109-18.11m-2.706,0A20.817,20.817,0,1,0,64.485,43.675,20.84,20.84,0,0,0,43.67,64.491" transform="translate(-43.67 -43.675)" fill="#fff"/>
    </clipPath>
    <clipPath id="clip-path-3">
      <path id="Trazado_102215" data-name="Trazado 102215" d="M59.931,23.857V49.2a1.354,1.354,0,0,0,2.707,0V23.857a1.354,1.354,0,1,0-2.707,0" transform="translate(-59.931 -22.503)" fill="#fff"/>
    </clipPath>
    <clipPath id="clip-path-4">
      <path id="Trazado_102216" data-name="Trazado 102216" d="M29.137,67.353a38.254,38.254,0,0,0,38.21,38.212,1.353,1.353,0,1,0,0-2.706,35.505,35.505,0,0,1,0-71.01,1.353,1.353,0,1,0,0-2.706,38.254,38.254,0,0,0-38.21,38.211" transform="translate(-29.137 -29.142)" fill="#fff"/>
    </clipPath>
    <clipPath id="clip-path-5">
      <path id="Trazado_102217" data-name="Trazado 102217" d="M74.194,68.745a1.352,1.352,0,0,0,.494,1.849L119.906,96.71a1.328,1.328,0,0,0,.675.182,1.353,1.353,0,0,0,.677-2.524L76.042,68.251a1.348,1.348,0,0,0-1.848.494" transform="translate(-74.012 -68.068)" fill="#fff"/>
    </clipPath>
    <clipPath id="clip-path-6">
      <path id="Trazado_102218" data-name="Trazado 102218" d="M81.866,38.387A1.353,1.353,0,0,0,81.88,40.3,35.48,35.48,0,0,1,87.706,83.32a1.353,1.353,0,1,0,2.341,1.357,38.185,38.185,0,0,0-6.268-46.3,1.352,1.352,0,0,0-1.913.014" transform="translate(-81.477 -37.984)" fill="#fff"/>
    </clipPath>
    <clipPath id="clip-path-7">
      <path id="Trazado_102219" data-name="Trazado 102219" d="M55.675,21.746A6.448,6.448,0,1,0,62.123,15.3a6.447,6.447,0,0,0-6.448,6.446" transform="translate(-55.675 -15.3)" fill="#fff"/>
    </clipPath>
    <clipPath id="clip-path-8">
      <path id="Trazado_102220" data-name="Trazado 102220" d="M77.22,39.737a6.448,6.448,0,1,0,6.448-6.448,6.448,6.448,0,0,0-6.448,6.448" transform="translate(-77.22 -33.289)" fill="#fff"/>
    </clipPath>
    <clipPath id="clip-path-9">
      <path id="Trazado_102221" data-name="Trazado 102221" d="M55.675,93.21a6.448,6.448,0,1,0,6.448-6.448,6.448,6.448,0,0,0-6.448,6.448" transform="translate(-55.675 -86.762)" fill="#fff"/>
    </clipPath>
  </defs>
  <g id="Grupo_59298" data-name="Grupo 59298" transform="translate(-484.397 -1366)">
    <g id="Grupo_59295" data-name="Grupo 59295" transform="translate(278.11 178.382)">
      <path id="Trazado_103483" data-name="Trazado 103483" d="M217.791,372.922A95.893,95.893,0,1,1,121.9,277.029a95.893,95.893,0,0,1,95.893,95.893" transform="translate(180.282 910.589)" fill="#eac8f8"/>
      <path id="Trazado_102224" data-name="Trazado 102224" d="M200.838,364.446a87.417,87.417,0,1,1-87.417-87.417,87.417,87.417,0,0,1,87.417,87.417" transform="translate(188.759 919.065)" fill="#70089b"/>
      <g id="Grupo_53896" data-name="Grupo 53896" transform="translate(-43.404 106.925)" opacity="0.14">
        <g id="Grupo_53878" data-name="Grupo 53878" transform="translate(272.5 1103.495)">
          <g id="Grupo_53861" data-name="Grupo 53861">
            <g id="Grupo_53860" data-name="Grupo 53860" clip-path="url(#clip-path)">
              <rect id="Rectángulo_5891" data-name="Rectángulo 5891" width="156.58" height="156.568" transform="matrix(0.074, -0.997, 0.997, 0.074, -10.769, 145.384)" fill="#fff"/>
            </g>
          </g>
          <g id="Grupo_53863" data-name="Grupo 53863" transform="translate(52.268 52.274)">
            <g id="Grupo_53862" data-name="Grupo 53862" clip-path="url(#clip-path-2)">
              <rect id="Rectángulo_5892" data-name="Rectángulo 5892" width="44.596" height="44.596" transform="translate(-3.067 41.407) rotate(-85.764)" fill="#fff"/>
            </g>
          </g>
          <g id="Grupo_53865" data-name="Grupo 53865" transform="translate(71.731 26.934)">
            <g id="Grupo_53864" data-name="Grupo 53864" clip-path="url(#clip-path-3)">
              <rect id="Rectángulo_5893" data-name="Rectángulo 5893" width="28.17" height="4.772" transform="translate(-2.066 27.894) rotate(-85.764)" fill="#fff"/>
            </g>
          </g>
          <g id="Grupo_53867" data-name="Grupo 53867" transform="translate(34.874 34.88)">
            <g id="Grupo_53866" data-name="Grupo 53866" clip-path="url(#clip-path-4)">
              <rect id="Rectángulo_5894" data-name="Rectángulo 5894" width="79.136" height="45.102" transform="translate(-5.63 76.006) rotate(-85.764)" fill="#fff"/>
            </g>
          </g>
          <g id="Grupo_53869" data-name="Grupo 53869" transform="translate(88.584 81.47)">
            <g id="Grupo_53868" data-name="Grupo 53868" clip-path="url(#clip-path-5)">
              <rect id="Rectángulo_5895" data-name="Rectángulo 5895" width="32.313" height="50.306" transform="translate(-2.316 28.666) rotate(-85.764)" fill="#fff"/>
            </g>
          </g>
          <g id="Grupo_53871" data-name="Grupo 53871" transform="translate(97.519 45.463)">
            <g id="Grupo_53870" data-name="Grupo 53870" clip-path="url(#clip-path-6)">
              <rect id="Rectángulo_5896" data-name="Rectángulo 5896" width="48.26" height="17.287" transform="matrix(0.074, -0.997, 0.997, 0.074, -3.625, 47.11)" fill="#fff"/>
            </g>
          </g>
          <g id="Grupo_53873" data-name="Grupo 53873" transform="translate(66.637 18.312)">
            <g id="Grupo_53872" data-name="Grupo 53872" clip-path="url(#clip-path-7)">
              <rect id="Rectángulo_5897" data-name="Rectángulo 5897" width="13.811" height="13.813" transform="translate(-0.95 12.824) rotate(-85.764)" fill="#fff"/>
            </g>
          </g>
          <g id="Grupo_53875" data-name="Grupo 53875" transform="translate(92.424 39.843)">
            <g id="Grupo_53874" data-name="Grupo 53874" clip-path="url(#clip-path-8)">
              <rect id="Rectángulo_5898" data-name="Rectángulo 5898" width="13.813" height="13.813" transform="translate(-0.95 12.825) rotate(-85.764)" fill="#fff"/>
            </g>
          </g>
          <g id="Grupo_53877" data-name="Grupo 53877" transform="translate(66.637 103.845)">
            <g id="Grupo_53876" data-name="Grupo 53876" clip-path="url(#clip-path-9)">
              <rect id="Rectángulo_5899" data-name="Rectángulo 5899" width="13.811" height="13.813" transform="matrix(0.074, -0.997, 0.997, 0.074, -0.95, 12.824)" fill="#fff"/>
            </g>
          </g>
        </g>
      </g>
    </g>
    <path id="Trazado_106663" data-name="Trazado 106663" d="M7.09,0H1.963V-21.328H7.09Zm8.716-7.236V0H10.664V-21.328h8.511a9.913,9.913,0,0,1,4.329.9,6.789,6.789,0,0,1,2.915,2.563,7,7,0,0,1,1.033,3.772A6.171,6.171,0,0,1,25.217-9.1a9.269,9.269,0,0,1-6.13,1.868Zm0-3.97h3.369a3.177,3.177,0,0,0,2.278-.747,2.776,2.776,0,0,0,.784-2.109,3.431,3.431,0,0,0-.806-2.388,2.853,2.853,0,0,0-2.2-.908H15.806ZM47.446-7.222a7.789,7.789,0,0,1-1.2,3.933A7.249,7.249,0,0,1,43.162-.645a10.5,10.5,0,0,1-4.534.938,8.375,8.375,0,0,1-6.621-2.739Q29.59-5.186,29.59-10.181v-1.055a12.91,12.91,0,0,1,1.091-5.486,8.269,8.269,0,0,1,3.142-3.633,8.767,8.767,0,0,1,4.746-1.282,9.193,9.193,0,0,1,6.24,2.043A8.074,8.074,0,0,1,47.49-13.96H42.363a3.82,3.82,0,0,0-.981-2.8,4.037,4.037,0,0,0-2.812-.85,3.071,3.071,0,0,0-2.812,1.436,9.226,9.226,0,0,0-.937,4.585v1.509A10.209,10.209,0,0,0,35.676-5.2a3.136,3.136,0,0,0,2.952,1.465,3.948,3.948,0,0,0,2.71-.835,3.544,3.544,0,0,0,1-2.651ZM68.965-21.636v3.882h-.22A7.411,7.411,0,0,0,64.2-16.428a5.6,5.6,0,0,0-2.19,3.684,5.773,5.773,0,0,1,4.219-1.641,5.385,5.385,0,0,1,4.409,2.021,8.153,8.153,0,0,1,1.641,5.3,7.466,7.466,0,0,1-.959,3.735A6.846,6.846,0,0,1,68.635-.667a7.7,7.7,0,0,1-3.816.959A7.961,7.961,0,0,1,60.762-.74a7.1,7.1,0,0,1-2.783-2.952,9.719,9.719,0,0,1-1.025-4.424v-1.978a12.312,12.312,0,0,1,1.414-5.925A10.248,10.248,0,0,1,62.4-20.142a11.538,11.538,0,0,1,5.815-1.494Zm-4.453,11.06a2.833,2.833,0,0,0-1.641.452,2.875,2.875,0,0,0-.981,1.109v1.473q0,4.026,2.8,4.026A2.272,2.272,0,0,0,66.57-4.522a4.09,4.09,0,0,0,.754-2.524,4.015,4.015,0,0,0-.769-2.546A2.463,2.463,0,0,0,64.512-10.576ZM85.356,0H80.405V-15.762l-4.863,1.421v-3.75l9.36-3.237h.454ZM106.6-8.716a10.184,10.184,0,0,1-1.941,6.665A6.707,6.707,0,0,1,99.185.293a6.743,6.743,0,0,1-5.508-2.358,10.168,10.168,0,0,1-1.948-6.65v-3.9a10.184,10.184,0,0,1,1.941-6.665,6.724,6.724,0,0,1,5.486-2.344,6.726,6.726,0,0,1,5.493,2.358A10.193,10.193,0,0,1,106.6-12.6Zm-4.937-4.526a7.607,7.607,0,0,0-.6-3.435,2.008,2.008,0,0,0-1.9-1.135A1.96,1.96,0,0,0,97.3-16.758a7.166,7.166,0,0,0-.623,3.193v5.449a7.664,7.664,0,0,0,.6,3.494,2.015,2.015,0,0,0,1.9,1.106,1.988,1.988,0,0,0,1.86-1.077,7.317,7.317,0,0,0,.615-3.376Z" transform="translate(526.01 1472.564)" fill="#fff"/>
  </g>
</svg>
