<svg xmlns="http://www.w3.org/2000/svg" width="55.101" height="53.484" viewBox="0 0 55.101 53.484">
  <g id="Grupo_53888" data-name="Grupo 53888" opacity="0.4">
    <g id="Grupo_53887" data-name="Grupo 53887" transform="translate(0 0)">
      <g id="Grupo_53885" data-name="Grupo 53885" transform="translate(0 0)">
        <path id="Trazado_102241" data-name="Trazado 102241" d="M1380.616,159.576a15.839,15.839,0,0,1-3.658-.519l-.64-.149-.869-5.229c-.449-.165-.889-.35-1.314-.554l-4.3,3.068-.911-.581a11.622,11.622,0,0,1-2.435-1.9,12.148,12.148,0,0,1-2.032-2.64l-.537-.859,3.081-4.311c-.192-.413-.366-.838-.52-1.27l-5.217-.869-.145-.645a13.2,13.2,0,0,1,0-7.12l.145-.645,5.217-.869c.154-.432.328-.857.52-1.27l-3.081-4.311.537-.859a12.145,12.145,0,0,1,2.032-2.64,11.624,11.624,0,0,1,2.433-1.9l.913-.582,4.3,3.068c.426-.2.865-.389,1.314-.554l.869-5.229.64-.148a13.2,13.2,0,0,1,7.12-.059l.65.142.869,5.2a14.978,14.978,0,0,1,1.393.565l4.31-3.081.861.538a12.137,12.137,0,0,1,2.639,2.032,11.623,11.623,0,0,1,1.9,2.437l.579.909-3.068,4.3a15.03,15.03,0,0,1,.6,1.437l5.217.869.145.645a13.2,13.2,0,0,1,0,7.12l-.145.645-5.217.869a15.039,15.039,0,0,1-.6,1.437l3.068,4.3-.579.909a11.622,11.622,0,0,1-1.9,2.437,12.137,12.137,0,0,1-2.639,2.032l-.861.538-4.31-3.081c-.455.212-.921.4-1.393.565l-.869,5.2-.65.142a15.914,15.914,0,0,1-3.462.46m-2.574-2.291a10.27,10.27,0,0,0,4.967.046l.847-5.077.585-.176a13.08,13.08,0,0,0,2.194-.888l.533-.275,4.206,3.006a9.53,9.53,0,0,0,2.036-1.6,9.137,9.137,0,0,0,1.5-1.893l-3-4.2.286-.538a13.046,13.046,0,0,0,.929-2.229l.18-.577,5.086-.847a10.269,10.269,0,0,0,0-4.967l-5.086-.847-.18-.577a13.045,13.045,0,0,0-.929-2.229l-.285-.538,3-4.2a9.149,9.149,0,0,0-1.5-1.893,9.53,9.53,0,0,0-2.036-1.6l-4.206,3.006-.533-.274a13.041,13.041,0,0,0-2.194-.888l-.585-.177-.847-5.077a10.276,10.276,0,0,0-4.967.046l-.847,5.1-.571.184a13,13,0,0,0-2.116.892l-.537.286-4.2-3a9.121,9.121,0,0,0-1.893,1.5,9.511,9.511,0,0,0-1.6,2.035l3.007,4.206-.275.534a13.048,13.048,0,0,0-.852,2.081l-.18.577-5.087.847a10.275,10.275,0,0,0,0,4.967l5.087.847.18.578a13.006,13.006,0,0,0,.852,2.08l.275.534-3.007,4.206a9.522,9.522,0,0,0,1.6,2.035,9.108,9.108,0,0,0,1.893,1.5l4.2-3,.537.286a12.962,12.962,0,0,0,2.116.892l.571.184Z" transform="translate(-1353.119 -112.843)" fill="#040735"/>
        <path id="Trazado_102242" data-name="Trazado 102242" d="M1393.97,162.957a10.073,10.073,0,1,1,7.121-2.95,10,10,0,0,1-7.121,2.95m0-18.177a8.1,8.1,0,1,0,5.731,2.374,8.052,8.052,0,0,0-5.731-2.374" transform="translate(-1366.443 -126.167)" fill="#040735"/>
        <path id="Trazado_102243" data-name="Trazado 102243" d="M1410.955,149.783a.983.983,0,0,1-.695-1.679A24.758,24.758,0,0,0,1383.1,107.8a.983.983,0,1,1-.766-1.811,26.726,26.726,0,0,1,31.782,40.665l4.88-1.7a.983.983,0,1,1,.648,1.856l-8.368,2.923a.978.978,0,0,1-.324.055" transform="translate(-1365.205 -103.859)" fill="#040735"/>
        <path id="Trazado_102244" data-name="Trazado 102244" d="M1370.57,167.474a26.742,26.742,0,0,1-20.952-43.291l-5.364,1.235a.983.983,0,1,1-.441-1.916l8.369-1.926a.983.983,0,0,1,.916,1.653,24.758,24.758,0,0,0,27.156,40.306.983.983,0,1,1,.766,1.811,26.8,26.8,0,0,1-10.45,2.129" transform="translate(-1343.051 -113.99)" fill="#040735"/>
      </g>
    </g>
  </g>
</svg>
