<svg xmlns="http://www.w3.org/2000/svg" width="53.484" height="53.484" viewBox="0 0 53.484 53.484">
  <g id="Grupo_53891" data-name="Grupo 53891" transform="translate(-563.578 -1877.952)" opacity="0.45">
    <path id="Trazado_102229" data-name="Trazado 102229" d="M661.529,777.3a.825.825,0,0,1-.585-.242l-7.6-7.6a.827.827,0,0,1,1.17-1.17l7.6,7.6a.827.827,0,0,1-.585,1.412" transform="translate(-88.749 1153.362)" fill="#0155a0"/>
    <path id="Trazado_102230" data-name="Trazado 102230" d="M658.064,781.82a.824.824,0,0,1-.585-.242l-6.313-6.313a.827.827,0,0,1,1.17-1.17l6.314,6.313a.827.827,0,0,1-.585,1.412" transform="translate(-87.345 1149.617)" fill="#0155a0"/>
    <path id="Trazado_102231" data-name="Trazado 102231" d="M674.658,715.023a.826.826,0,0,1-.585-.242l-8.693-8.693a.827.827,0,0,1-.116-1.024l2.8-4.472a11.174,11.174,0,0,0,1.652-6.132,16.262,16.262,0,1,1,15.853,15.986,10.915,10.915,0,0,0-6.041,1.684L675.1,714.9a.826.826,0,0,1-.438.126m-7.643-9.64,7.763,7.762,3.867-2.418a12.5,12.5,0,0,1,6.96-1.935,14.6,14.6,0,0,0,10.438-25.174,14.6,14.6,0,0,0-24.677,10.814,12.828,12.828,0,0,1-1.9,7.036Zm29.865-.276h0Z" transform="translate(-96.513 1211.47)" fill="#0155a0"/>
    <path id="Trazado_102232" data-name="Trazado 102232" d="M669.327,768.405a.825.825,0,0,1-.585-.242l-8.5-8.5a.827.827,0,0,1,1.17-1.17l8.5,8.5a.827.827,0,0,1-.585,1.412" transform="translate(-93.196 1159.681)" fill="#0155a0"/>
    <path id="Trazado_102233" data-name="Trazado 102233" d="M664.972,772.76a.826.826,0,0,1-.585-.242l-8.5-8.5a.827.827,0,0,1,1.17-1.17l8.5,8.5a.827.827,0,0,1-.585,1.412" transform="translate(-90.387 1156.873)" fill="#0155a0"/>
    <path id="Trazado_102234" data-name="Trazado 102234" d="M675.5,729.548a.827.827,0,0,1-.585-1.412L686.35,716.7l-1.459-1.46a3.719,3.719,0,1,1,5.259,0l-14.062,14.061a.824.824,0,0,1-.585.242m12.017-19a2.064,2.064,0,0,0-1.46,3.523l1.46,1.459,1.46-1.459a2.063,2.063,0,0,0-1.46-3.523" transform="translate(-102.664 1191.509)" fill="#0155a0"/>
    <path id="Trazado_102235" data-name="Trazado 102235" d="M680.621,742.091a.827.827,0,0,1-.585-1.412l11.432-11.432-1.5-1.505a.827.827,0,0,1,1.17-1.17l1.505,1.505,1.46-1.46a3.719,3.719,0,1,1,0,5.259l-1.46-1.46-11.433,11.432a.824.824,0,0,1-.585.242m13.187-12.845,1.46,1.46a2.064,2.064,0,1,0,0-2.919Z" transform="translate(-105.965 1180.783)" fill="#0155a0"/>
    <path id="Trazado_102236" data-name="Trazado 102236" d="M760.262,675.52a.827.827,0,0,1-.585-1.412l4.9-4.9a.827.827,0,0,1,1.17,1.17l-4.9,4.9a.825.825,0,0,1-.585.243" transform="translate(-157.33 1217.262)" fill="#0155a0"/>
    <path id="Trazado_102237" data-name="Trazado 102237" d="M711.086,654.23a.827.827,0,0,1-.827-.827v-6.924a.827.827,0,0,1,1.654,0V653.4a.827.827,0,0,1-.827.827" transform="translate(-125.614 1232.301)" fill="#0155a0"/>
    <path id="Trazado_102238" data-name="Trazado 102238" d="M785.155,733.953H778.23a.827.827,0,0,1,0-1.654h6.924a.827.827,0,0,1,0,1.654" transform="translate(-168.919 1176.417)" fill="#0155a0"/>
    <path id="Trazado_102239" data-name="Trazado 102239" d="M752.819,779.314a.825.825,0,0,1-.585-.243l-4.9-4.9a.827.827,0,0,1,1.17-1.17l4.9,4.9a.827.827,0,0,1-.585,1.412" transform="translate(-149.372 1150.319)" fill="#0155a0"/>
    <path id="Trazado_102240" data-name="Trazado 102240" d="M662.09,688.585a.824.824,0,0,1-.585-.242l-4.9-4.9a.827.827,0,0,1,1.17-1.17l4.9,4.9a.827.827,0,0,1-.585,1.412" transform="translate(-90.855 1208.835)" fill="#0155a0"/>
  </g>
</svg>
