<svg xmlns="http://www.w3.org/2000/svg" width="50.567" height="54.485" viewBox="0 0 50.567 54.485">
  <g id="Grupo_53884" data-name="Grupo 53884" opacity="0.4">
    <path id="Trazado_102225" data-name="Trazado 102225" d="M29.589,98A17.767,17.767,0,1,1,47.356,80.236,17.787,17.787,0,0,1,29.589,98m0-33.354A15.587,15.587,0,1,0,45.176,80.236,15.6,15.6,0,0,0,29.589,64.649" transform="translate(-11.822 -62.47)" fill="#040735"/>
    <path id="Trazado_102226" data-name="Trazado 102226" d="M29.589,98A17.767,17.767,0,1,1,47.356,80.236,17.787,17.787,0,0,1,29.589,98m0-33.354A15.587,15.587,0,1,0,45.176,80.236,15.6,15.6,0,0,0,29.589,64.649" transform="translate(-11.822 -62.47)" fill="#040735"/>
    <path id="Trazado_102227" data-name="Trazado 102227" d="M25.259,84.3a1.091,1.091,0,0,1-1.044-1.4,13.055,13.055,0,0,1,12.427-9.24,1.09,1.09,0,1,1,0,2.179A10.86,10.86,0,0,0,26.3,83.52a1.091,1.091,0,0,1-1.044.777" transform="translate(-18.875 -68.858)" fill="#040735"/>
    <rect id="Rectángulo_5909" data-name="Rectángulo 5909" width="2.18" height="7.447" transform="translate(28.885 31.263) rotate(-40.63)" fill="#040735"/>
    <path id="Trazado_102228" data-name="Trazado 102228" d="M102.119,162.9a3.611,3.611,0,0,1-2.762-1.28l-10.8-12.774a3.615,3.615,0,0,1,5.521-4.67l10.8,12.774a3.615,3.615,0,0,1-2.759,5.95M91.313,145.074a1.435,1.435,0,0,0-1.1,2.363l10.8,12.773a1.436,1.436,0,0,0,2.193-1.855l-10.8-12.773a1.434,1.434,0,0,0-1.1-.508" transform="translate(-55.167 -108.414)" fill="#040735"/>
  </g>
</svg>
