<svg xmlns="http://www.w3.org/2000/svg" xmlns:xlink="http://www.w3.org/1999/xlink" width="868.896" height="503.005" viewBox="0 0 868.896 503.005">
  <defs>
    <clipPath id="clip-path">
      <rect id="Rectángulo_9006" data-name="Rectángulo 9006" width="173.507" height="19.158" fill="none"/>
    </clipPath>
    <clipPath id="clip-path-2">
      <rect id="Rectángulo_9011" data-name="Rectángulo 9011" width="257.928" height="84.082" fill="none"/>
    </clipPath>
    <clipPath id="clip-path-3">
      <path id="Trazado_106588" data-name="Trazado 106588" d="M265.212,224.711c0,23.22-57.736,42.043-128.962,42.043S7.283,247.93,7.283,224.711s57.741-42.039,128.967-42.039,128.962,18.821,128.962,42.039" transform="translate(-7.283 -182.672)" fill="none"/>
    </clipPath>
    <radialGradient id="radial-gradient" cx="0.5" cy="0.5" r="1.386" gradientTransform="matrix(0.326, 0, 0, -0.313, -0.044, 1.313)" gradientUnits="objectBoundingBox">
      <stop offset="0" stop-color="#abbeb9"/>
      <stop offset="1" stop-color="#fff"/>
    </radialGradient>
    <clipPath id="clip-path-4">
      <rect id="Rectángulo_9012" data-name="Rectángulo 9012" width="178.03" height="26.383" fill="none"/>
    </clipPath>
    <clipPath id="clip-path-5">
      <rect id="Rectángulo_9013" data-name="Rectángulo 9013" width="52.529" height="428.957" fill="none"/>
    </clipPath>
    <clipPath id="clip-path-6">
      <rect id="Rectángulo_9014" data-name="Rectángulo 9014" width="55.387" height="410.948" fill="none"/>
    </clipPath>
    <clipPath id="clip-path-7">
      <rect id="Rectángulo_9016" data-name="Rectángulo 9016" width="257.926" height="84.082" fill="none"/>
    </clipPath>
    <clipPath id="clip-path-8">
      <path id="Trazado_106600" data-name="Trazado 106600" d="M524.34,224.711c0,23.22-57.734,42.043-128.962,42.043S266.414,247.93,266.414,224.711s57.739-42.039,128.964-42.039S524.34,201.493,524.34,224.711" transform="translate(-266.414 -182.672)" fill="none"/>
    </clipPath>
    <radialGradient id="radial-gradient-2" r="1.386" gradientTransform="matrix(0.326, 0, 0, -0.313, -1.597, 1.313)" xlink:href="#radial-gradient"/>
    <clipPath id="clip-path-10">
      <rect id="Rectángulo_9018" data-name="Rectángulo 9018" width="52.531" height="428.957" fill="none"/>
    </clipPath>
    <clipPath id="clip-path-11">
      <rect id="Rectángulo_9019" data-name="Rectángulo 9019" width="55.386" height="410.948" fill="none"/>
    </clipPath>
    <clipPath id="clip-path-12">
      <rect id="Rectángulo_9021" data-name="Rectángulo 9021" width="9.789" height="34.663" fill="none"/>
    </clipPath>
    <clipPath id="clip-path-18">
      <rect id="Rectángulo_9027" data-name="Rectángulo 9027" width="9.789" height="34.664" fill="none"/>
    </clipPath>
    <clipPath id="clip-path-36">
      <rect id="Rectángulo_9045" data-name="Rectángulo 9045" width="7.536" height="26.684" fill="none"/>
    </clipPath>
    <clipPath id="clip-path-42">
      <rect id="Rectángulo_9051" data-name="Rectángulo 9051" width="7.538" height="26.684" fill="none"/>
    </clipPath>
    <clipPath id="clip-path-48">
      <rect id="Rectángulo_9057" data-name="Rectángulo 9057" width="9.79" height="34.664" fill="none"/>
    </clipPath>
    <clipPath id="clip-path-50">
      <rect id="Rectángulo_9059" data-name="Rectángulo 9059" width="9.788" height="34.664" fill="none"/>
    </clipPath>
  </defs>
  <g id="Grupo_59350" data-name="Grupo 59350" transform="translate(-365.897 -8029.331)">
    <g id="Grupo_59117" data-name="Grupo 59117" transform="translate(690.238 8186.383)" style="isolation: isolate">
      <path id="Trazado_106871" data-name="Trazado 106871" d="M1.27,0V-14.219H5.645A6.644,6.644,0,0,1,9-13.374a5.89,5.89,0,0,1,2.31,2.4,7.41,7.41,0,0,1,.83,3.54v.654a7.431,7.431,0,0,1-.815,3.525,5.84,5.84,0,0,1-2.3,2.393A6.694,6.694,0,0,1,5.674,0ZM4.2-11.846v9.492H5.615A3.181,3.181,0,0,0,8.242-3.477,5.075,5.075,0,0,0,9.17-6.689v-.752a5.156,5.156,0,0,0-.9-3.286,3.171,3.171,0,0,0-2.627-1.118ZM17.061,0H14.229V-10.566h2.832Zm-3-13.3a1.39,1.39,0,0,1,.425-1.045,1.6,1.6,0,0,1,1.157-.41,1.6,1.6,0,0,1,1.152.41,1.382,1.382,0,0,1,.43,1.045,1.386,1.386,0,0,1-.435,1.055,1.6,1.6,0,0,1-1.147.41,1.6,1.6,0,0,1-1.147-.41A1.386,1.386,0,0,1,14.063-13.3ZM20.156,0V-8.5H18.584v-2.07h1.572v-.9a3.648,3.648,0,0,1,1.021-2.759,3.952,3.952,0,0,1,2.856-.981,6.652,6.652,0,0,1,1.436.194l-.029,2.17a3.6,3.6,0,0,0-.859-.088q-1.592,0-1.592,1.507v.857h2.1V-8.5h-2.1V0ZM31.182.2A5.187,5.187,0,0,1,27.4-1.23a5.068,5.068,0,0,1-1.46-3.8V-5.3a6.383,6.383,0,0,1,.615-2.847A4.515,4.515,0,0,1,28.3-10.083a4.893,4.893,0,0,1,2.573-.679,4.385,4.385,0,0,1,3.413,1.367,5.555,5.555,0,0,1,1.245,3.877v1.152H28.8a2.622,2.622,0,0,0,.825,1.66,2.5,2.5,0,0,0,1.743.625,3.046,3.046,0,0,0,2.549-1.182L35.3-1.709a4.237,4.237,0,0,1-1.719,1.4A5.639,5.639,0,0,1,31.182.2Zm-.322-8.682a1.764,1.764,0,0,0-1.362.569,2.946,2.946,0,0,0-.669,1.628h3.926v-.226a2.1,2.1,0,0,0-.508-1.457A1.819,1.819,0,0,0,30.859-8.486Zm12.207.566A7.667,7.667,0,0,0,42.051-8a2.067,2.067,0,0,0-2.1,1.084V0H37.129V-10.566h2.666l.078,1.26a2.615,2.615,0,0,1,2.354-1.455,2.957,2.957,0,0,1,.879.127ZM49.1.2A5.187,5.187,0,0,1,45.317-1.23a5.068,5.068,0,0,1-1.46-3.8V-5.3a6.383,6.383,0,0,1,.615-2.847,4.515,4.515,0,0,1,1.743-1.934,4.893,4.893,0,0,1,2.573-.679A4.385,4.385,0,0,1,52.2-9.395a5.555,5.555,0,0,1,1.245,3.877v1.152H46.719a2.622,2.622,0,0,0,.825,1.66,2.5,2.5,0,0,0,1.743.625,3.046,3.046,0,0,0,2.549-1.182l1.387,1.553A4.237,4.237,0,0,1,51.5-.308,5.639,5.639,0,0,1,49.1.2Zm-.322-8.682a1.764,1.764,0,0,0-1.362.569,2.946,2.946,0,0,0-.669,1.628h3.926v-.226a2.1,2.1,0,0,0-.508-1.457A1.819,1.819,0,0,0,48.779-8.486Zm8.867-2.08.088,1.221a3.689,3.689,0,0,1,3.037-1.416,3.066,3.066,0,0,1,2.5.986,4.6,4.6,0,0,1,.84,2.949V0H61.289V-6.773A1.838,1.838,0,0,0,60.9-8.08a1.746,1.746,0,0,0-1.3-.406,1.941,1.941,0,0,0-1.787,1.018V0H54.99V-10.566Zm13,8.486a1.851,1.851,0,0,0,1.27-.43,1.506,1.506,0,0,0,.508-1.143h2.646a3.62,3.62,0,0,1-.586,1.968A3.866,3.866,0,0,1,72.905-.3,4.936,4.936,0,0,1,70.693.2a4.587,4.587,0,0,1-3.574-1.44,5.7,5.7,0,0,1-1.309-3.979V-5.41a5.635,5.635,0,0,1,1.3-3.9,4.534,4.534,0,0,1,3.564-1.455,4.444,4.444,0,0,1,3.179,1.128,3.994,3.994,0,0,1,1.216,3H72.422a1.939,1.939,0,0,0-.508-1.34,1.693,1.693,0,0,0-1.289-.515,1.7,1.7,0,0,0-1.489.719,4.166,4.166,0,0,0-.5,2.333v.293a4.219,4.219,0,0,0,.5,2.347A1.721,1.721,0,0,0,70.645-2.08ZM79.658,0H76.826V-10.566h2.832Zm-3-13.3a1.39,1.39,0,0,1,.425-1.045,1.6,1.6,0,0,1,1.157-.41,1.6,1.6,0,0,1,1.152.41,1.382,1.382,0,0,1,.43,1.045,1.386,1.386,0,0,1-.435,1.055,1.6,1.6,0,0,1-1.147.41,1.6,1.6,0,0,1-1.147-.41A1.386,1.386,0,0,1,76.66-13.3ZM88.105,0a3.134,3.134,0,0,1-.283-.947A3.415,3.415,0,0,1,85.156.2a3.752,3.752,0,0,1-2.573-.9,2.89,2.89,0,0,1-1.021-2.266,2.986,2.986,0,0,1,1.245-2.578,6.144,6.144,0,0,1,3.6-.908h1.3v-.605a1.741,1.741,0,0,0-.376-1.172,1.479,1.479,0,0,0-1.187-.439,1.682,1.682,0,0,0-1.118.342,1.161,1.161,0,0,0-.405.938H81.8a2.835,2.835,0,0,1,.566-1.7,3.744,3.744,0,0,1,1.6-1.226,5.837,5.837,0,0,1,2.324-.444,4.611,4.611,0,0,1,3.1.981,3.433,3.433,0,0,1,1.147,2.759v4.58a5.052,5.052,0,0,0,.42,2.275V0ZM85.771-1.963a2.431,2.431,0,0,0,1.152-.278,1.828,1.828,0,0,0,.781-.747V-4.8H86.65q-2.119,0-2.256,1.465l-.01.166a1.13,1.13,0,0,0,.371.869A1.441,1.441,0,0,0,85.771-1.963Zm11.475-3.4A6.368,6.368,0,0,1,98.354-9.3a3.6,3.6,0,0,1,3.032-1.465,3.236,3.236,0,0,1,2.549,1.152V-15h2.832V0h-2.549l-.137-1.123A3.321,3.321,0,0,1,101.367.2a3.587,3.587,0,0,1-2.993-1.47A6.573,6.573,0,0,1,97.246-5.361Zm2.822.2a4.194,4.194,0,0,0,.518,2.286,1.685,1.685,0,0,0,1.5.795,1.888,1.888,0,0,0,1.846-1.109V-7.378a1.861,1.861,0,0,0-1.826-1.109Q100.068-8.486,100.068-5.161ZM113.818.2a5.187,5.187,0,0,1-3.784-1.426,5.068,5.068,0,0,1-1.46-3.8V-5.3a6.383,6.383,0,0,1,.615-2.847,4.515,4.515,0,0,1,1.743-1.934,4.893,4.893,0,0,1,2.573-.679,4.385,4.385,0,0,1,3.413,1.367,5.555,5.555,0,0,1,1.245,3.877v1.152h-6.729a2.622,2.622,0,0,0,.825,1.66A2.5,2.5,0,0,0,114-2.08a3.046,3.046,0,0,0,2.549-1.182l1.387,1.553a4.237,4.237,0,0,1-1.719,1.4A5.639,5.639,0,0,1,113.818.2ZM113.5-8.486a1.764,1.764,0,0,0-1.362.569,2.946,2.946,0,0,0-.669,1.628h3.926v-.226a2.1,2.1,0,0,0-.508-1.457A1.819,1.819,0,0,0,113.5-8.486Zm20.762,3.3a6.337,6.337,0,0,1-1.108,3.911A3.554,3.554,0,0,1,130.156.2a3.292,3.292,0,0,1-2.588-1.113v4.98h-2.822V-10.566h2.617l.1,1.035a3.317,3.317,0,0,1,2.676-1.23,3.578,3.578,0,0,1,3.037,1.445,6.509,6.509,0,0,1,1.084,3.984ZM131.436-5.4a4.182,4.182,0,0,0-.522-2.282,1.7,1.7,0,0,0-1.519-.8,1.847,1.847,0,0,0-1.826,1.019v4.339a1.879,1.879,0,0,0,1.846,1.048Q131.436-2.08,131.436-5.4Zm4.131.02a6.267,6.267,0,0,1,.605-2.8,4.432,4.432,0,0,1,1.743-1.9,5.086,5.086,0,0,1,2.642-.674,4.812,4.812,0,0,1,3.491,1.309A5.252,5.252,0,0,1,145.557-5.9l.02.723a5.523,5.523,0,0,1-1.357,3.9A4.718,4.718,0,0,1,140.576.2a4.742,4.742,0,0,1-3.647-1.465,5.62,5.62,0,0,1-1.362-3.984Zm2.822.2a3.95,3.95,0,0,0,.566,2.3,1.868,1.868,0,0,0,1.621.8,1.873,1.873,0,0,0,1.6-.787,4.322,4.322,0,0,0,.576-2.518,3.91,3.91,0,0,0-.576-2.289,1.873,1.873,0,0,0-1.621-.812,1.842,1.842,0,0,0-1.6.807A4.395,4.395,0,0,0,138.389-5.181Zm12.3-7.984v2.6H152.5V-8.5h-1.807v5.273a1.259,1.259,0,0,0,.225.84,1.128,1.128,0,0,0,.859.254,4.5,4.5,0,0,0,.83-.068V-.059A5.81,5.81,0,0,1,150.9.2q-2.969,0-3.027-3V-8.5h-1.543v-2.07h1.543v-2.6ZM158.936.2a5.187,5.187,0,0,1-3.784-1.426,5.068,5.068,0,0,1-1.46-3.8V-5.3a6.383,6.383,0,0,1,.615-2.847,4.515,4.515,0,0,1,1.743-1.934,4.893,4.893,0,0,1,2.573-.679,4.385,4.385,0,0,1,3.413,1.367,5.555,5.555,0,0,1,1.245,3.877v1.152h-6.729a2.622,2.622,0,0,0,.825,1.66,2.5,2.5,0,0,0,1.743.625,3.046,3.046,0,0,0,2.549-1.182l1.387,1.553a4.237,4.237,0,0,1-1.719,1.4A5.639,5.639,0,0,1,158.936.2Zm-.322-8.682a1.764,1.764,0,0,0-1.362.569,2.946,2.946,0,0,0-.669,1.628h3.926v-.226A2.1,2.1,0,0,0,160-7.971,1.819,1.819,0,0,0,158.613-8.486Zm8.867-2.08.088,1.221a3.689,3.689,0,0,1,3.037-1.416,3.066,3.066,0,0,1,2.5.986,4.6,4.6,0,0,1,.84,2.949V0h-2.822V-6.773a1.838,1.838,0,0,0-.391-1.307,1.746,1.746,0,0,0-1.3-.406,1.941,1.941,0,0,0-1.787,1.018V0h-2.822V-10.566Zm13,8.486a1.851,1.851,0,0,0,1.27-.43,1.506,1.506,0,0,0,.508-1.143H184.9a3.62,3.62,0,0,1-.586,1.968A3.866,3.866,0,0,1,182.739-.3,4.936,4.936,0,0,1,180.527.2a4.587,4.587,0,0,1-3.574-1.44,5.7,5.7,0,0,1-1.309-3.979V-5.41a5.635,5.635,0,0,1,1.3-3.9,4.534,4.534,0,0,1,3.564-1.455,4.444,4.444,0,0,1,3.179,1.128,3.994,3.994,0,0,1,1.216,3h-2.646a1.939,1.939,0,0,0-.508-1.34,1.693,1.693,0,0,0-1.289-.515,1.7,1.7,0,0,0-1.489.719,4.166,4.166,0,0,0-.5,2.333v.293a4.219,4.219,0,0,0,.5,2.347A1.721,1.721,0,0,0,180.479-2.08ZM189.492,0H186.66V-10.566h2.832Zm-3-13.3a1.39,1.39,0,0,1,.425-1.045,1.6,1.6,0,0,1,1.157-.41,1.6,1.6,0,0,1,1.152.41,1.382,1.382,0,0,1,.43,1.045,1.386,1.386,0,0,1-.435,1.055,1.6,1.6,0,0,1-1.147.41,1.6,1.6,0,0,1-1.147-.41A1.386,1.386,0,0,1,186.494-13.3ZM197.939,0a3.134,3.134,0,0,1-.283-.947A3.415,3.415,0,0,1,194.99.2a3.752,3.752,0,0,1-2.573-.9A2.889,2.889,0,0,1,191.4-2.969a2.986,2.986,0,0,1,1.245-2.578,6.144,6.144,0,0,1,3.6-.908h1.3v-.605a1.741,1.741,0,0,0-.376-1.172,1.479,1.479,0,0,0-1.187-.439,1.682,1.682,0,0,0-1.118.342,1.161,1.161,0,0,0-.405.938h-2.822a2.835,2.835,0,0,1,.566-1.7,3.744,3.744,0,0,1,1.6-1.226,5.837,5.837,0,0,1,2.324-.444,4.611,4.611,0,0,1,3.1.981,3.433,3.433,0,0,1,1.147,2.759v4.58a5.052,5.052,0,0,0,.42,2.275V0Zm-2.334-1.963a2.431,2.431,0,0,0,1.152-.278,1.828,1.828,0,0,0,.781-.747V-4.8h-1.055q-2.119,0-2.256,1.465l-.01.166a1.13,1.13,0,0,0,.371.869A1.441,1.441,0,0,0,195.605-1.963ZM205.518,0h-2.832V-15h2.832Z" transform="translate(0 16.253)" fill="#12263f"/>
      <path id="Trazado_106872" data-name="Trazado 106872" d="M0,0H220.215V23.947H0Z" fill="none"/>
      <path id="Trazado_106873" data-name="Trazado 106873" d="M0,0H220.215V23.947H0Z" fill="none"/>
    </g>
    <g id="Grupo_59123" data-name="Grupo 59123" transform="translate(712.157 8236.788)" style="isolation: isolate">
      <path id="Trazado_106874" data-name="Trazado 106874" d="M2.93,0H1.43V-11.375h1.5ZM6.813-8.453l.047,1.063A3.08,3.08,0,0,1,9.391-8.609q2.68,0,2.7,3.023V0H10.648V-5.594a1.946,1.946,0,0,0-.418-1.352,1.675,1.675,0,0,0-1.277-.437,2.086,2.086,0,0,0-1.234.375,2.546,2.546,0,0,0-.828.984V0H5.445V-8.453ZM16.234-10.5v2.047h1.578v1.117H16.234v5.249a1.173,1.173,0,0,0,.211.763.888.888,0,0,0,.719.254,3.5,3.5,0,0,0,.688-.094V0a4.215,4.215,0,0,1-1.109.155A1.8,1.8,0,0,1,15.281-.43a2.517,2.517,0,0,1-.492-1.664V-7.336H13.25V-8.453h1.539V-10.5ZM23.008.156a3.693,3.693,0,0,1-2.8-1.129,4.19,4.19,0,0,1-1.078-3.02v-.266a5.073,5.073,0,0,1,.48-2.246,3.748,3.748,0,0,1,1.344-1.547,3.378,3.378,0,0,1,1.871-.559,3.166,3.166,0,0,1,2.563,1.086A4.7,4.7,0,0,1,26.3-4.414v.6H20.578a3,3,0,0,0,.73,2.02,2.3,2.3,0,0,0,1.777.77,2.517,2.517,0,0,0,1.3-.312,3.259,3.259,0,0,0,.93-.828l.883.688A3.55,3.55,0,0,1,23.008.156Zm-.18-7.578a1.928,1.928,0,0,0-1.469.637A3.1,3.1,0,0,0,20.625-5h4.234v-.109a2.753,2.753,0,0,0-.594-1.707A1.815,1.815,0,0,0,22.828-7.422Zm6.516-1.031.047,1.063a3.08,3.08,0,0,1,2.531-1.219q2.68,0,2.7,3.023V0H33.18V-5.594a1.946,1.946,0,0,0-.418-1.352,1.675,1.675,0,0,0-1.277-.437,2.086,2.086,0,0,0-1.234.375,2.546,2.546,0,0,0-.828.984V0H27.977V-8.453ZM41.727-2.242a1.064,1.064,0,0,0-.441-.91,4.249,4.249,0,0,0-1.539-.559A7.277,7.277,0,0,1,38-4.273a2.479,2.479,0,0,1-.953-.781,1.869,1.869,0,0,1-.309-1.078,2.193,2.193,0,0,1,.879-1.758,3.432,3.432,0,0,1,2.246-.719,3.532,3.532,0,0,1,2.332.742,2.357,2.357,0,0,1,.895,1.9H41.641a1.3,1.3,0,0,0-.5-1.023,1.888,1.888,0,0,0-1.27-.43,1.976,1.976,0,0,0-1.234.344,1.082,1.082,0,0,0-.445.9.877.877,0,0,0,.414.789,5.1,5.1,0,0,0,1.5.508,7.8,7.8,0,0,1,1.754.578,2.558,2.558,0,0,1,1,.809,1.988,1.988,0,0,1,.324,1.152,2.163,2.163,0,0,1-.906,1.816,3.8,3.8,0,0,1-2.352.684,4.257,4.257,0,0,1-1.8-.359,2.922,2.922,0,0,1-1.223-1A2.42,2.42,0,0,1,36.453-2.6H37.9a1.5,1.5,0,0,0,.582,1.152,2.258,2.258,0,0,0,1.434.426,2.331,2.331,0,0,0,1.316-.332A1.02,1.02,0,0,0,41.727-2.242ZM46.625,0H45.18V-8.453h1.445ZM45.063-10.7a.863.863,0,0,1,.215-.594.807.807,0,0,1,.637-.242.819.819,0,0,1,.641.242.854.854,0,0,1,.219.594.826.826,0,0,1-.219.586.834.834,0,0,1-.641.234.821.821,0,0,1-.637-.234A.834.834,0,0,1,45.063-10.7Zm3.523,6.4a4.952,4.952,0,0,1,.922-3.129,2.915,2.915,0,0,1,2.414-1.184,2.932,2.932,0,0,1,2.352,1.016V-12h1.445V0H54.391l-.07-.906A2.943,2.943,0,0,1,51.906.156a2.887,2.887,0,0,1-2.395-1.2,5.008,5.008,0,0,1-.926-3.141Zm1.445.164a3.749,3.749,0,0,0,.594,2.25,1.92,1.92,0,0,0,1.641.813A2.108,2.108,0,0,0,54.273-2.3V-6.187a2.125,2.125,0,0,0-1.992-1.2,1.929,1.929,0,0,0-1.656.82A4.128,4.128,0,0,0,50.031-4.133ZM63.18,0a3.036,3.036,0,0,1-.2-.891A3.225,3.225,0,0,1,60.57.156,2.984,2.984,0,0,1,58.52-.551a2.287,2.287,0,0,1-.8-1.793,2.39,2.39,0,0,1,1-2.051,4.733,4.733,0,0,1,2.824-.73h1.406v-.664A1.623,1.623,0,0,0,62.5-7a1.821,1.821,0,0,0-1.336-.449,2.107,2.107,0,0,0-1.3.391,1.151,1.151,0,0,0-.523.945H57.891a2,2,0,0,1,.449-1.223,3.066,3.066,0,0,1,1.219-.934,4.1,4.1,0,0,1,1.691-.344,3.342,3.342,0,0,1,2.289.73A2.635,2.635,0,0,1,64.4-5.867v3.891a4.757,4.757,0,0,0,.3,1.852V0Zm-2.4-1.1a2.54,2.54,0,0,0,1.289-.352,2.127,2.127,0,0,0,.883-.914V-4.1H61.82q-2.656,0-2.656,1.555a1.316,1.316,0,0,0,.453,1.063A1.742,1.742,0,0,0,60.781-1.1Zm5.531-3.2a4.952,4.952,0,0,1,.922-3.129,2.915,2.915,0,0,1,2.414-1.184A2.932,2.932,0,0,1,72-7.594V-12h1.445V0H72.117l-.07-.906A2.943,2.943,0,0,1,69.633.156a2.887,2.887,0,0,1-2.395-1.2,5.008,5.008,0,0,1-.926-3.141Zm1.445.164a3.749,3.749,0,0,0,.594,2.25,1.92,1.92,0,0,0,1.641.813A2.109,2.109,0,0,0,72-2.3V-6.187a2.125,2.125,0,0,0-1.992-1.2,1.929,1.929,0,0,0-1.656.82A4.128,4.128,0,0,0,67.758-4.133ZM79.3-4.3a4.952,4.952,0,0,1,.922-3.129,2.915,2.915,0,0,1,2.414-1.184,2.932,2.932,0,0,1,2.352,1.016V-12H86.43V0H85.1l-.07-.906A2.943,2.943,0,0,1,82.617.156a2.887,2.887,0,0,1-2.395-1.2A5.008,5.008,0,0,1,79.3-4.187Zm1.445.164a3.749,3.749,0,0,0,.594,2.25,1.92,1.92,0,0,0,1.641.813A2.109,2.109,0,0,0,84.984-2.3V-6.187a2.125,2.125,0,0,0-1.992-1.2,1.929,1.929,0,0,0-1.656.82A4.128,4.128,0,0,0,80.742-4.133ZM92.18.156a3.693,3.693,0,0,1-2.8-1.129A4.19,4.19,0,0,1,88.3-3.992v-.266a5.073,5.073,0,0,1,.48-2.246,3.748,3.748,0,0,1,1.344-1.547A3.378,3.378,0,0,1,92-8.609a3.166,3.166,0,0,1,2.563,1.086,4.7,4.7,0,0,1,.914,3.109v.6H89.75a3,3,0,0,0,.73,2.02,2.3,2.3,0,0,0,1.777.77,2.517,2.517,0,0,0,1.3-.312,3.259,3.259,0,0,0,.93-.828l.883.688A3.55,3.55,0,0,1,92.18.156ZM92-7.422a1.928,1.928,0,0,0-1.469.637A3.1,3.1,0,0,0,89.8-5h4.234v-.109a2.753,2.753,0,0,0-.594-1.707A1.815,1.815,0,0,0,92-7.422Zm12.5,6.4a2.082,2.082,0,0,0,1.352-.469,1.649,1.649,0,0,0,.641-1.172h1.367a2.621,2.621,0,0,1-.5,1.383,3.293,3.293,0,0,1-1.23,1.047A3.55,3.55,0,0,1,104.5.156,3.482,3.482,0,0,1,101.754-1a4.59,4.59,0,0,1-1.02-3.152v-.242a5.089,5.089,0,0,1,.453-2.2,3.451,3.451,0,0,1,1.3-1.492,3.7,3.7,0,0,1,2-.531,3.39,3.39,0,0,1,2.363.852,3.043,3.043,0,0,1,1,2.211h-1.367a1.992,1.992,0,0,0-.621-1.348,1.932,1.932,0,0,0-1.379-.527,2.023,2.023,0,0,0-1.707.793,3.724,3.724,0,0,0-.605,2.293v.273a3.65,3.65,0,0,0,.6,2.25A2.033,2.033,0,0,0,104.5-1.023ZM109.1-4.3a4.993,4.993,0,0,1,.488-2.234,3.643,3.643,0,0,1,1.359-1.531,3.7,3.7,0,0,1,1.988-.539,3.565,3.565,0,0,1,2.793,1.2,4.6,4.6,0,0,1,1.066,3.18v.1a5.036,5.036,0,0,1-.473,2.215,3.589,3.589,0,0,1-1.352,1.527,3.743,3.743,0,0,1-2.02.547,3.556,3.556,0,0,1-2.785-1.2A4.575,4.575,0,0,1,109.1-4.2Zm1.453.172a3.616,3.616,0,0,0,.652,2.258,2.088,2.088,0,0,0,1.746.852,2.075,2.075,0,0,0,1.75-.863,3.955,3.955,0,0,0,.648-2.418,3.61,3.61,0,0,0-.66-2.254,2.1,2.1,0,0,0-1.754-.863,2.075,2.075,0,0,0-1.727.852A3.925,3.925,0,0,0,110.555-4.133ZM122.7-7.156a4.331,4.331,0,0,0-.711-.055A1.9,1.9,0,0,0,120.055-6V0h-1.445V-8.453h1.406l.023.977a2.251,2.251,0,0,1,2.016-1.133,1.477,1.477,0,0,1,.641.109Zm5.414,0a4.331,4.331,0,0,0-.711-.055A1.9,1.9,0,0,0,125.469-6V0h-1.445V-8.453h1.406l.023.977a2.251,2.251,0,0,1,2.016-1.133,1.477,1.477,0,0,1,.641.109ZM131.008,0h-1.445V-8.453h1.445Zm-1.562-10.7a.863.863,0,0,1,.215-.594.807.807,0,0,1,.637-.242.819.819,0,0,1,.641.242.854.854,0,0,1,.219.594.826.826,0,0,1-.219.586.834.834,0,0,1-.641.234.821.821,0,0,1-.637-.234A.834.834,0,0,1,129.445-10.7ZM136.828.156a3.693,3.693,0,0,1-2.8-1.129,4.19,4.19,0,0,1-1.078-3.02v-.266a5.073,5.073,0,0,1,.48-2.246,3.748,3.748,0,0,1,1.344-1.547,3.378,3.378,0,0,1,1.871-.559,3.166,3.166,0,0,1,2.563,1.086,4.7,4.7,0,0,1,.914,3.109v.6H134.4a3,3,0,0,0,.73,2.02,2.3,2.3,0,0,0,1.777.77,2.517,2.517,0,0,0,1.3-.312,3.258,3.258,0,0,0,.93-.828l.883.688A3.55,3.55,0,0,1,136.828.156Zm-.18-7.578a1.928,1.928,0,0,0-1.469.637A3.1,3.1,0,0,0,134.445-5h4.234v-.109a2.753,2.753,0,0,0-.594-1.707A1.815,1.815,0,0,0,136.648-7.422Zm6.516-1.031.047,1.063a3.08,3.08,0,0,1,2.531-1.219q2.68,0,2.7,3.023V0H147V-5.594a1.946,1.946,0,0,0-.418-1.352,1.675,1.675,0,0,0-1.277-.437,2.086,2.086,0,0,0-1.234.375,2.546,2.546,0,0,0-.828.984V0H141.8V-8.453Zm9.422-2.047v2.047h1.578v1.117h-1.578v5.249a1.173,1.173,0,0,0,.211.763.888.888,0,0,0,.719.254,3.5,3.5,0,0,0,.688-.094V0a4.215,4.215,0,0,1-1.109.155,1.8,1.8,0,0,1-1.461-.586,2.517,2.517,0,0,1-.492-1.664V-7.336H149.6V-8.453h1.539V-10.5ZM159.359.156a3.693,3.693,0,0,1-2.8-1.129,4.19,4.19,0,0,1-1.078-3.02v-.266a5.073,5.073,0,0,1,.48-2.246,3.748,3.748,0,0,1,1.344-1.547,3.378,3.378,0,0,1,1.871-.559,3.166,3.166,0,0,1,2.563,1.086,4.7,4.7,0,0,1,.914,3.109v.6H156.93a3,3,0,0,0,.73,2.02,2.3,2.3,0,0,0,1.777.77,2.517,2.517,0,0,0,1.3-.312,3.258,3.258,0,0,0,.93-.828l.883.688A3.55,3.55,0,0,1,159.359.156Zm-.18-7.578a1.928,1.928,0,0,0-1.469.637A3.1,3.1,0,0,0,156.977-5h4.234v-.109a2.753,2.753,0,0,0-.594-1.707A1.815,1.815,0,0,0,159.18-7.422Z" transform="translate(0 13.201)" fill="#12263f"/>
      <path id="Trazado_106875" data-name="Trazado 106875" d="M0,0H173.507V19.158H0Z" fill="none"/>
      <path id="Trazado_106876" data-name="Trazado 106876" d="M0,0H173.507V19.158H0Z" fill="none"/>
    </g>
    <g id="Grupo_59330" data-name="Grupo 59330" transform="translate(712.157 8497.788)" style="isolation: isolate">
      <g id="Grupo_59122" data-name="Grupo 59122">
        <g id="Grupo_59331" data-name="Grupo 59331">
          <g id="Grupo_59120" data-name="Grupo 59120" transform="translate(51 -1)" style="isolation: isolate">
            <g id="Grupo_59119" data-name="Grupo 59119">
              <g id="Grupo_59118" data-name="Grupo 59118" clip-path="url(#clip-path)">
                <path id="Trazado_106877" data-name="Trazado 106877" d="M5.492-4.6H2.82V0H1.313V-11.375H5.078a4.457,4.457,0,0,1,2.957.875A3.148,3.148,0,0,1,9.07-7.953,3.062,3.062,0,0,1,8.5-6.1a3.428,3.428,0,0,1-1.6,1.18L9.57-.094V0H7.961ZM2.82-5.828h2.3A2.6,2.6,0,0,0,6.9-6.407a1.959,1.959,0,0,0,.66-1.55,2.062,2.062,0,0,0-.629-1.62,2.663,2.663,0,0,0-1.816-.571H2.82ZM14.453.156a3.693,3.693,0,0,1-2.8-1.129,4.19,4.19,0,0,1-1.078-3.02v-.266a5.073,5.073,0,0,1,.48-2.246A3.748,3.748,0,0,1,12.4-8.051a3.378,3.378,0,0,1,1.871-.559,3.166,3.166,0,0,1,2.563,1.086,4.7,4.7,0,0,1,.914,3.109v.6H12.023a3,3,0,0,0,.73,2.02,2.3,2.3,0,0,0,1.777.77,2.517,2.517,0,0,0,1.3-.312,3.259,3.259,0,0,0,.93-.828l.883.688A3.55,3.55,0,0,1,14.453.156Zm-.18-7.578a1.928,1.928,0,0,0-1.469.637A3.1,3.1,0,0,0,12.07-5H16.3v-.109a2.753,2.753,0,0,0-.594-1.707A1.815,1.815,0,0,0,14.273-7.422Zm10.07,5.18a1.064,1.064,0,0,0-.441-.91,4.249,4.249,0,0,0-1.539-.559,7.277,7.277,0,0,1-1.742-.562,2.479,2.479,0,0,1-.953-.781,1.869,1.869,0,0,1-.309-1.078,2.193,2.193,0,0,1,.879-1.758,3.432,3.432,0,0,1,2.246-.719,3.532,3.532,0,0,1,2.332.742,2.357,2.357,0,0,1,.895,1.9H24.258a1.3,1.3,0,0,0-.5-1.023,1.888,1.888,0,0,0-1.27-.43,1.976,1.976,0,0,0-1.234.344,1.082,1.082,0,0,0-.445.9.877.877,0,0,0,.414.789,5.1,5.1,0,0,0,1.5.508,7.8,7.8,0,0,1,1.754.578,2.558,2.558,0,0,1,1,.809,1.988,1.988,0,0,1,.324,1.152,2.163,2.163,0,0,1-.906,1.816,3.8,3.8,0,0,1-2.352.684,4.257,4.257,0,0,1-1.8-.359,2.922,2.922,0,0,1-1.223-1A2.42,2.42,0,0,1,19.07-2.6h1.445A1.5,1.5,0,0,0,21.1-1.449a2.258,2.258,0,0,0,1.434.426,2.331,2.331,0,0,0,1.316-.332A1.02,1.02,0,0,0,24.344-2.242ZM29.242,0H27.8V-8.453h1.445ZM27.68-10.7a.863.863,0,0,1,.215-.594.807.807,0,0,1,.637-.242.819.819,0,0,1,.641.242.854.854,0,0,1,.219.594.826.826,0,0,1-.219.586.834.834,0,0,1-.641.234.821.821,0,0,1-.637-.234A.834.834,0,0,1,27.68-10.7Zm8.8,8.453a1.064,1.064,0,0,0-.441-.91A4.249,4.249,0,0,0,34.5-3.711a7.277,7.277,0,0,1-1.742-.562,2.479,2.479,0,0,1-.953-.781,1.869,1.869,0,0,1-.309-1.078,2.193,2.193,0,0,1,.879-1.758,3.432,3.432,0,0,1,2.246-.719,3.532,3.532,0,0,1,2.332.742,2.357,2.357,0,0,1,.895,1.9H36.391a1.3,1.3,0,0,0-.5-1.023,1.888,1.888,0,0,0-1.27-.43,1.976,1.976,0,0,0-1.234.344,1.082,1.082,0,0,0-.445.9.877.877,0,0,0,.414.789,5.1,5.1,0,0,0,1.5.508A7.8,7.8,0,0,1,36.6-4.3a2.558,2.558,0,0,1,1,.809,1.988,1.988,0,0,1,.324,1.152,2.163,2.163,0,0,1-.906,1.816,3.8,3.8,0,0,1-2.352.684,4.257,4.257,0,0,1-1.8-.359,2.922,2.922,0,0,1-1.223-1A2.42,2.42,0,0,1,31.2-2.6h1.445a1.5,1.5,0,0,0,.582,1.152,2.258,2.258,0,0,0,1.434.426,2.331,2.331,0,0,0,1.316-.332A1.02,1.02,0,0,0,36.477-2.242ZM41.766-10.5v2.047h1.578v1.117H41.766v5.249a1.173,1.173,0,0,0,.211.763.888.888,0,0,0,.719.254,3.5,3.5,0,0,0,.688-.094V0a4.215,4.215,0,0,1-1.109.155A1.8,1.8,0,0,1,40.813-.43a2.517,2.517,0,0,1-.492-1.664V-7.336H38.781V-8.453H40.32V-10.5ZM48.539.156a3.693,3.693,0,0,1-2.8-1.129,4.19,4.19,0,0,1-1.078-3.02v-.266a5.073,5.073,0,0,1,.48-2.246,3.748,3.748,0,0,1,1.344-1.547,3.378,3.378,0,0,1,1.871-.559,3.166,3.166,0,0,1,2.563,1.086,4.7,4.7,0,0,1,.914,3.109v.6H46.109a3,3,0,0,0,.73,2.02,2.3,2.3,0,0,0,1.777.77,2.517,2.517,0,0,0,1.3-.312,3.259,3.259,0,0,0,.93-.828l.883.688A3.55,3.55,0,0,1,48.539.156Zm-.18-7.578a1.928,1.928,0,0,0-1.469.637A3.1,3.1,0,0,0,46.156-5h4.234v-.109A2.753,2.753,0,0,0,49.8-6.816,1.815,1.815,0,0,0,48.359-7.422Zm6.516-1.031.047,1.063a3.08,3.08,0,0,1,2.531-1.219q2.68,0,2.7,3.023V0H58.711V-5.594a1.946,1.946,0,0,0-.418-1.352,1.675,1.675,0,0,0-1.277-.437,2.086,2.086,0,0,0-1.234.375,2.546,2.546,0,0,0-.828.984V0H53.508V-8.453Zm10.852,7.43a2.082,2.082,0,0,0,1.352-.469,1.649,1.649,0,0,0,.641-1.172h1.367a2.621,2.621,0,0,1-.5,1.383,3.293,3.293,0,0,1-1.23,1.047,3.55,3.55,0,0,1-1.629.391A3.482,3.482,0,0,1,62.98-1a4.59,4.59,0,0,1-1.02-3.152v-.242a5.089,5.089,0,0,1,.453-2.2,3.451,3.451,0,0,1,1.3-1.492,3.7,3.7,0,0,1,2-.531,3.39,3.39,0,0,1,2.363.852,3.043,3.043,0,0,1,1,2.211H67.719A1.992,1.992,0,0,0,67.1-6.895a1.932,1.932,0,0,0-1.379-.527,2.023,2.023,0,0,0-1.707.793,3.724,3.724,0,0,0-.605,2.293v.273a3.65,3.65,0,0,0,.6,2.25A2.033,2.033,0,0,0,65.727-1.023ZM72.281,0H70.836V-8.453h1.445ZM70.719-10.7a.863.863,0,0,1,.215-.594.807.807,0,0,1,.637-.242.819.819,0,0,1,.641.242.854.854,0,0,1,.219.594.826.826,0,0,1-.219.586.834.834,0,0,1-.641.234.821.821,0,0,1-.637-.234A.834.834,0,0,1,70.719-10.7ZM79.813,0a3.036,3.036,0,0,1-.2-.891A3.225,3.225,0,0,1,77.2.156a2.984,2.984,0,0,1-2.051-.707,2.288,2.288,0,0,1-.8-1.793,2.39,2.39,0,0,1,1-2.051,4.733,4.733,0,0,1,2.824-.73h1.406v-.664A1.623,1.623,0,0,0,79.133-7,1.821,1.821,0,0,0,77.8-7.445a2.108,2.108,0,0,0-1.3.391,1.151,1.151,0,0,0-.523.945H74.523a2,2,0,0,1,.449-1.223,3.066,3.066,0,0,1,1.219-.934,4.1,4.1,0,0,1,1.691-.344,3.342,3.342,0,0,1,2.289.73,2.635,2.635,0,0,1,.859,2.012v3.891a4.757,4.757,0,0,0,.3,1.852V0Zm-2.4-1.1A2.54,2.54,0,0,0,78.7-1.453a2.127,2.127,0,0,0,.883-.914V-4.1H78.453Q75.8-4.1,75.8-2.547a1.316,1.316,0,0,0,.453,1.063A1.742,1.742,0,0,0,77.414-1.1Z" transform="translate(0 13.202)" fill="#12263f"/>
              </g>
            </g>
          </g>
        </g>
      </g>
    </g>
    <path id="Trazado_106863" data-name="Trazado 106863" d="M0,0H868.9V503.006H0Z" transform="translate(365.897 8029.331)" fill="none"/>
    <path id="Trazado_106870" data-name="Trazado 106870" d="M0,0H529.5V133.007H0Z" transform="translate(543.142 8316.693)" fill="#3dc5db"/>
    <g id="Grupo_59130" data-name="Grupo 59130" transform="translate(382.6 8448.254)" style="mix-blend-mode: multiply;isolation: isolate">
      <g id="Grupo_59129" data-name="Grupo 59129">
        <g id="Grupo_59128" data-name="Grupo 59128" clip-path="url(#clip-path-2)">
          <g id="Grupo_59127" data-name="Grupo 59127" transform="translate(0)">
            <g id="Grupo_59126" data-name="Grupo 59126" clip-path="url(#clip-path-3)">
              <rect id="Rectángulo_9010" data-name="Rectángulo 9010" width="257.929" height="84.082" transform="translate(0)" fill="url(#radial-gradient)"/>
            </g>
          </g>
        </g>
      </g>
    </g>
    <path id="Trazado_106589" data-name="Trazado 106589" d="M136.918,0H0S3.406,381.359,14.769,427.943s99.42,43.181,99.42,43.181,133.517,3.408,144.88-43.181S273.835,0,273.835,0Z" transform="translate(365.897 8029.331)" fill="#e5e3e0"/>
    <path id="Trazado_106590" data-name="Trazado 106590" d="M126.87,11.726H7.9s-1.86,353.615,8.2,395.339,88.033,38.674,88.033,38.674,123.428,3.052,133.491-38.674,8.2-395.339,8.2-395.339Z" transform="translate(375.945 8044.496)" fill="#a4b8b3"/>
    <path id="Trazado_106591" data-name="Trazado 106591" d="M127.961,9.084H6.725S7.138,362.7,17.2,404.421,105.234,443.1,105.234,443.1s123.428,3.052,133.491-38.674S249.2,9.084,249.2,9.084Z" transform="translate(374.594 8041.079)" fill="#fff"/>
    <path id="Trazado_106592" data-name="Trazado 106592" d="M136.918,5.3H273.312c.337-3.435.523-5.3.523-5.3H0S.183,1.869.525,5.3Z" transform="translate(365.897 8029.331)" fill="#f2ecea"/>
    <path id="Trazado_106593" data-name="Trazado 106593" d="M215.419,25.053c-9.643,1.786-21.071,4.165-34.452,7.313C129.457,44.487,48.4,28.58,48.4,28.58L30.223,40.7l179.5,39.433c2.19-20.715,4.142-39.766,5.692-55.078" transform="translate(404.985 8061.732)" fill="#96dbf1"/>
    <path id="Trazado_106594" data-name="Trazado 106594" d="M89.748,29.4C46.939,22.69,21,27.923,8.8,31.946c7.238,71.129-1.316,320.114,5.979,350.367,10.058,41.727,88.031,38.674,88.031,38.674S226.239,424.04,236.3,382.313c6.742-27.958-3.371-259.566,4.217-333.165C202.864,49.1,140.208,37.3,89.748,29.4" transform="translate(377.277 8063.187)" fill="#3dc5db"/>
    <path id="Trazado_106595" data-name="Trazado 106595" d="M227.336,185.95c-19.677-2.415-93.978-4-132.959-2.215-39.184,1.8-64.538,5.3-80.376,8.485,21.02,28.373,82.08,25.988,82.08,25.988s115.161,2.724,131.255-32.258" transform="translate(384.004 8265.967)" fill="#2eacc2"/>
    <g id="Grupo_59133" data-name="Grupo 59133" transform="translate(420.042 8453.175)" style="mix-blend-mode: multiply;isolation: isolate">
      <g id="Grupo_59132" data-name="Grupo 59132">
        <g id="Grupo_59131" data-name="Grupo 59131" clip-path="url(#clip-path-4)">
          <path id="Trazado_106596" data-name="Trazado 106596" d="M201.638,195.106c.312,7.107-51.84,14.166-88.448,15.769s-89.267-2.86-89.579-9.967,51.84-14.163,88.448-15.764,89.267,2.857,89.579,9.962" transform="translate(-23.61 -184.818)" fill="#96dbf1"/>
        </g>
      </g>
    </g>
    <g id="Grupo_59136" data-name="Grupo 59136" transform="translate(571.262 8050.163)" style="mix-blend-mode: multiply;isolation: isolate">
      <g id="Grupo_59135" data-name="Grupo 59135">
        <g id="Grupo_59134" data-name="Grupo 59134" clip-path="url(#clip-path-5)">
          <path id="Trazado_106597" data-name="Trazado 106597" d="M103.5,9.084c-3.883,48.068.154,387.67-13.955,428.957,18.915-4.96,37.489-14.675,42.057-33.62C141.668,362.7,142.078,9.084,142.078,9.084Z" transform="translate(-89.55 -9.084)" fill="#96dbf1"/>
        </g>
      </g>
    </g>
    <path id="Trazado_106598" data-name="Trazado 106598" d="M141.519,18.175c54.645-.7,87.737-3.665,107.533-9.091H6.837s.037.388.11,1.131c15.4,4.369,52.923,9.006,134.571,7.96" transform="translate(374.739 8041.079)" fill="#f2ecea"/>
    <g id="Grupo_59139" data-name="Grupo 59139" transform="translate(391.175 8050.163)" opacity="0.5">
      <g id="Grupo_59138" data-name="Grupo 59138">
        <g id="Grupo_59137" data-name="Grupo 59137" clip-path="url(#clip-path-6)">
          <path id="Trazado_106599" data-name="Trazado 106599" d="M24.746,395.745c11.361,26.513,41.663,24.238,41.663,24.238l-.05-410.9H11.023c5.648,53.634,3.938,363.831,13.723,386.661" transform="translate(-11.022 -9.084)" fill="#fff"/>
        </g>
      </g>
    </g>
    <g id="Grupo_59144" data-name="Grupo 59144" transform="translate(976.867 8448.254)" style="mix-blend-mode: multiply;isolation: isolate">
      <g id="Grupo_59143" data-name="Grupo 59143">
        <g id="Grupo_59142" data-name="Grupo 59142" clip-path="url(#clip-path-7)">
          <g id="Grupo_59141" data-name="Grupo 59141">
            <g id="Grupo_59140" data-name="Grupo 59140" clip-path="url(#clip-path-8)">
              <rect id="Rectángulo_9015" data-name="Rectángulo 9015" width="257.926" height="84.082" transform="translate(0)" fill="url(#radial-gradient-2)"/>
            </g>
          </g>
        </g>
      </g>
    </g>
    <path id="Trazado_106601" data-name="Trazado 106601" d="M396.049,0H259.131s3.406,381.359,14.769,427.943,99.42,43.181,99.42,43.181,133.517,3.408,144.88-43.181S532.966,0,532.966,0Z" transform="translate(701.034 8029.331)" fill="#e5e3e0"/>
    <path id="Trazado_106602" data-name="Trazado 106602" d="M386,11.726H267.035s-1.86,353.615,8.2,395.339,88.033,38.674,88.033,38.674,123.428,3.052,133.491-38.674,8.2-395.339,8.2-395.339Z" transform="translate(711.082 8044.496)" fill="#a4b8b3"/>
    <path id="Trazado_106603" data-name="Trazado 106603" d="M387.091,9.084H265.855s.413,353.612,10.476,395.337S364.364,443.1,364.364,443.1s123.428,3.052,133.491-38.674S508.327,9.084,508.327,9.084Z" transform="translate(709.73 8041.079)" fill="#fff"/>
    <path id="Trazado_106604" data-name="Trazado 106604" d="M396.049,5.3H532.443c.337-3.435.523-5.3.523-5.3H259.131s.183,1.869.525,5.3Z" transform="translate(701.034 8029.331)" fill="#f2ecea"/>
    <path id="Trazado_106605" data-name="Trazado 106605" d="M474.549,25.053c-9.643,1.786-21.071,4.165-34.452,7.313-51.51,12.12-132.563-3.786-132.563-3.786L289.353,40.7l179.5,39.433c2.19-20.715,4.142-39.766,5.692-55.078" transform="translate(740.121 8061.732)" fill="#96dbf1"/>
    <path id="Trazado_106606" data-name="Trazado 106606" d="M348.878,29.4c-42.809-6.706-68.747-1.472-80.949,2.55,7.238,71.129-1.316,320.114,5.979,350.367,10.058,41.727,88.031,38.674,88.031,38.674s123.43,3.052,133.491-38.674c6.742-27.958-3.371-259.566,4.217-333.165C461.994,49.1,399.338,37.3,348.878,29.4" transform="translate(712.413 8063.187)" fill="#3dc5db"/>
    <path id="Trazado_106607" data-name="Trazado 106607" d="M486.467,185.95c-19.677-2.415-93.975-4-132.962-2.215-39.181,1.8-64.536,5.3-80.374,8.485,21.02,28.373,82.08,25.988,82.08,25.988s115.161,2.724,131.255-32.258" transform="translate(719.141 8265.967)" fill="#2eacc2"/>
    <g id="Grupo_59147" data-name="Grupo 59147" transform="translate(1014.308 8453.175)" style="mix-blend-mode: multiply;isolation: isolate">
      <g id="Grupo_59146" data-name="Grupo 59146">
        <g id="Grupo_59145" data-name="Grupo 59145" clip-path="url(#clip-path-4)">
          <path id="Trazado_106608" data-name="Trazado 106608" d="M460.769,195.106c.312,7.107-51.84,14.166-88.448,15.769s-89.267-2.86-89.579-9.967,51.84-14.163,88.451-15.764,89.265,2.857,89.577,9.962" transform="translate(-282.74 -184.818)" fill="#96dbf1"/>
        </g>
      </g>
    </g>
    <g id="Grupo_59150" data-name="Grupo 59150" transform="translate(1165.529 8050.163)" style="mix-blend-mode: multiply;isolation: isolate">
      <g id="Grupo_59149" data-name="Grupo 59149">
        <g id="Grupo_59148" data-name="Grupo 59148" clip-path="url(#clip-path-10)">
          <path id="Trazado_106609" data-name="Trazado 106609" d="M362.635,9.084c-3.883,48.068.154,387.67-13.955,428.957,18.915-4.96,37.489-14.675,42.057-33.62C400.8,362.7,401.208,9.084,401.208,9.084Z" transform="translate(-348.68 -9.084)" fill="#96dbf1"/>
        </g>
      </g>
    </g>
    <path id="Trazado_106610" data-name="Trazado 106610" d="M400.65,18.175c54.645-.7,87.737-3.665,107.533-9.091H265.968s.037.388.11,1.131c15.4,4.369,52.923,9.006,134.572,7.96" transform="translate(709.876 8041.079)" fill="#f2ecea"/>
    <g id="Grupo_59153" data-name="Grupo 59153" transform="translate(985.442 8050.163)" opacity="0.5">
      <g id="Grupo_59152" data-name="Grupo 59152">
        <g id="Grupo_59151" data-name="Grupo 59151" clip-path="url(#clip-path-11)">
          <path id="Trazado_106611" data-name="Trazado 106611" d="M283.876,395.745c11.361,26.513,41.663,24.238,41.663,24.238l-.05-410.9H270.153c5.648,53.634,3.938,363.831,13.723,386.661" transform="translate(-270.153 -9.084)" fill="#fff"/>
        </g>
      </g>
    </g>
    <path id="Trazado_106864" data-name="Trazado 106864" d="M0,0H331.237" transform="translate(634.33 8310.977)" fill="#f2ecea"/>
    <path id="Trazado_106865" data-name="Trazado 106865" d="M0,0H331.237" transform="translate(634.33 8310.977)" fill="none" stroke="#e5e3e0" stroke-width="4"/>
    <path id="Trazado_106866" data-name="Trazado 106866" d="M0,0H358.431" transform="translate(621.912 8455.417)" fill="#f2ecea"/>
    <path id="Trazado_106867" data-name="Trazado 106867" d="M0,0H358.431" transform="translate(621.912 8455.417)" fill="none" stroke="#e5e3e0" stroke-width="4"/>
    <path id="Trazado_106612" data-name="Trazado 106612" d="M63.844,95.212a21.889,21.889,0,0,1-22.511,21.88A22.128,22.128,0,0,1,20.072,95.833a21.893,21.893,0,1,1,43.777-.622" transform="translate(391.845 8124.159)" fill="#4472c4"/>
    <path id="Trazado_106613" data-name="Trazado 106613" d="M94.953,95.212a21.889,21.889,0,0,1-22.511,21.88A22.128,22.128,0,0,1,51.181,95.833a21.891,21.891,0,1,1,43.772-.622" transform="translate(432.079 8124.159)" fill="#4472c4"/>
    <path id="Trazado_106614" data-name="Trazado 106614" d="M123.263,95.212a21.889,21.889,0,0,1-22.511,21.88A22.128,22.128,0,0,1,79.491,95.833a21.893,21.893,0,1,1,43.777-.622" transform="translate(468.692 8124.159)" fill="#4472c4"/>
    <g id="Grupo_59159" data-name="Grupo 59159" transform="translate(565.04 8201.263)" style="isolation: isolate">
      <g id="Grupo_59158" data-name="Grupo 59158">
        <g id="Grupo_59157" data-name="Grupo 59157" clip-path="url(#clip-path-12)">
          <g id="Grupo_59156" data-name="Grupo 59156" style="isolation: isolate">
            <g id="Grupo_59155" data-name="Grupo 59155">
              <g id="Grupo_59154" data-name="Grupo 59154" clip-path="url(#clip-path-12)">
                <text id="_-" data-name="-" transform="translate(0 22.878)" fill="#fff" font-size="27" font-family="MyriadPro-Regular, Myriad Pro"><tspan x="0" y="0">-</tspan></text>
              </g>
            </g>
          </g>
        </g>
      </g>
    </g>
    <g id="Grupo_59165" data-name="Grupo 59165" transform="translate(500.124 8201.263)" style="isolation: isolate">
      <g id="Grupo_59164" data-name="Grupo 59164">
        <g id="Grupo_59163" data-name="Grupo 59163" clip-path="url(#clip-path-12)">
          <g id="Grupo_59162" data-name="Grupo 59162" style="isolation: isolate">
            <g id="Grupo_59161" data-name="Grupo 59161">
              <g id="Grupo_59160" data-name="Grupo 59160" clip-path="url(#clip-path-12)">
                <text id="_--2" data-name="-" transform="translate(0 22.878)" fill="#fff" font-size="27" font-family="MyriadPro-Regular, Myriad Pro"><tspan x="0" y="0">-</tspan></text>
              </g>
            </g>
          </g>
        </g>
      </g>
    </g>
    <g id="Grupo_59171" data-name="Grupo 59171" transform="translate(428.865 8201.263)" style="isolation: isolate">
      <g id="Grupo_59170" data-name="Grupo 59170">
        <g id="Grupo_59169" data-name="Grupo 59169" clip-path="url(#clip-path-12)">
          <g id="Grupo_59168" data-name="Grupo 59168" style="isolation: isolate">
            <g id="Grupo_59167" data-name="Grupo 59167">
              <g id="Grupo_59166" data-name="Grupo 59166" clip-path="url(#clip-path-12)">
                <text id="_--3" data-name="-" transform="translate(0.001 22.878)" fill="#fff" font-size="27" font-family="MyriadPro-Regular, Myriad Pro"><tspan x="0" y="0">-</tspan></text>
              </g>
            </g>
          </g>
        </g>
      </g>
    </g>
    <path id="Trazado_106615" data-name="Trazado 106615" d="M63.844,127.619A21.89,21.89,0,0,1,41.333,149.5,22.131,22.131,0,0,1,20.072,128.24a21.891,21.891,0,1,1,43.772-.621" transform="translate(391.845 8166.068)" fill="#4472c4"/>
    <path id="Trazado_106616" data-name="Trazado 106616" d="M94.953,127.619A21.89,21.89,0,0,1,72.442,149.5a22.132,22.132,0,0,1-21.261-21.261,21.891,21.891,0,1,1,43.772-.619" transform="translate(432.079 8166.068)" fill="#4472c4"/>
    <path id="Trazado_106617" data-name="Trazado 106617" d="M123.263,127.619a21.89,21.89,0,0,1-22.511,21.88A22.131,22.131,0,0,1,79.491,128.24a21.891,21.891,0,1,1,43.772-.621" transform="translate(468.692 8166.068)" fill="#4472c4"/>
    <g id="Grupo_59177" data-name="Grupo 59177" transform="translate(565.04 8275.575)" style="isolation: isolate">
      <g id="Grupo_59176" data-name="Grupo 59176">
        <g id="Grupo_59175" data-name="Grupo 59175" clip-path="url(#clip-path-18)">
          <g id="Grupo_59174" data-name="Grupo 59174" style="isolation: isolate">
            <g id="Grupo_59173" data-name="Grupo 59173">
              <g id="Grupo_59172" data-name="Grupo 59172" clip-path="url(#clip-path-18)">
                <text id="_--4" data-name="-" transform="translate(0 22.878)" fill="#fff" font-size="27" font-family="MyriadPro-Regular, Myriad Pro"><tspan x="0" y="0">-</tspan></text>
              </g>
            </g>
          </g>
        </g>
      </g>
    </g>
    <g id="Grupo_59183" data-name="Grupo 59183" transform="translate(500.124 8275.575)" style="isolation: isolate">
      <g id="Grupo_59182" data-name="Grupo 59182">
        <g id="Grupo_59181" data-name="Grupo 59181" clip-path="url(#clip-path-18)">
          <g id="Grupo_59180" data-name="Grupo 59180" style="isolation: isolate">
            <g id="Grupo_59179" data-name="Grupo 59179">
              <g id="Grupo_59178" data-name="Grupo 59178" clip-path="url(#clip-path-18)">
                <text id="_--5" data-name="-" transform="translate(0 22.878)" fill="#fff" font-size="27" font-family="MyriadPro-Regular, Myriad Pro"><tspan x="0" y="0">-</tspan></text>
              </g>
            </g>
          </g>
        </g>
      </g>
    </g>
    <g id="Grupo_59189" data-name="Grupo 59189" transform="translate(428.865 8275.575)" style="isolation: isolate">
      <g id="Grupo_59188" data-name="Grupo 59188">
        <g id="Grupo_59187" data-name="Grupo 59187" clip-path="url(#clip-path-18)">
          <g id="Grupo_59186" data-name="Grupo 59186" style="isolation: isolate">
            <g id="Grupo_59185" data-name="Grupo 59185">
              <g id="Grupo_59184" data-name="Grupo 59184" clip-path="url(#clip-path-18)">
                <text id="_--6" data-name="-" transform="translate(0.001 22.878)" fill="#fff" font-size="27" font-family="MyriadPro-Regular, Myriad Pro"><tspan x="0" y="0">-</tspan></text>
              </g>
            </g>
          </g>
        </g>
      </g>
    </g>
    <path id="Trazado_106618" data-name="Trazado 106618" d="M63.844,157.365A21.893,21.893,0,0,1,41.329,179.24a22.132,22.132,0,0,1-21.257-21.261,21.891,21.891,0,1,1,43.772-.615" transform="translate(391.845 8204.533)" fill="#4472c4"/>
    <path id="Trazado_106619" data-name="Trazado 106619" d="M94.953,157.365A21.891,21.891,0,0,1,72.437,179.24a22.133,22.133,0,0,1-21.257-21.266,21.891,21.891,0,1,1,43.772-.61" transform="translate(432.079 8204.533)" fill="#4472c4"/>
    <path id="Trazado_106620" data-name="Trazado 106620" d="M123.263,157.365a21.893,21.893,0,0,1-22.516,21.876,22.133,22.133,0,0,1-21.257-21.264,21.891,21.891,0,1,1,43.772-.612" transform="translate(468.692 8204.533)" fill="#4472c4"/>
    <g id="Grupo_59195" data-name="Grupo 59195" transform="translate(565.04 8343.783)" style="isolation: isolate">
      <g id="Grupo_59194" data-name="Grupo 59194">
        <g id="Grupo_59193" data-name="Grupo 59193" clip-path="url(#clip-path-18)">
          <g id="Grupo_59192" data-name="Grupo 59192" style="isolation: isolate">
            <g id="Grupo_59191" data-name="Grupo 59191">
              <g id="Grupo_59190" data-name="Grupo 59190" clip-path="url(#clip-path-18)">
                <text id="_--7" data-name="-" transform="translate(0 22.878)" fill="#fff" font-size="27" font-family="MyriadPro-Regular, Myriad Pro"><tspan x="0" y="0">-</tspan></text>
              </g>
            </g>
          </g>
        </g>
      </g>
    </g>
    <g id="Grupo_59201" data-name="Grupo 59201" transform="translate(500.124 8343.783)" style="isolation: isolate">
      <g id="Grupo_59200" data-name="Grupo 59200">
        <g id="Grupo_59199" data-name="Grupo 59199" clip-path="url(#clip-path-18)">
          <g id="Grupo_59198" data-name="Grupo 59198" style="isolation: isolate">
            <g id="Grupo_59197" data-name="Grupo 59197">
              <g id="Grupo_59196" data-name="Grupo 59196" clip-path="url(#clip-path-18)">
                <text id="_--8" data-name="-" transform="translate(0 22.878)" fill="#fff" font-size="27" font-family="MyriadPro-Regular, Myriad Pro"><tspan x="0" y="0">-</tspan></text>
              </g>
            </g>
          </g>
        </g>
      </g>
    </g>
    <g id="Grupo_59207" data-name="Grupo 59207" transform="translate(428.865 8343.783)" style="isolation: isolate">
      <g id="Grupo_59206" data-name="Grupo 59206">
        <g id="Grupo_59205" data-name="Grupo 59205" clip-path="url(#clip-path-18)">
          <g id="Grupo_59204" data-name="Grupo 59204" style="isolation: isolate">
            <g id="Grupo_59203" data-name="Grupo 59203">
              <g id="Grupo_59202" data-name="Grupo 59202" clip-path="url(#clip-path-18)">
                <text id="_--9" data-name="-" transform="translate(0.001 22.878)" fill="#fff" font-size="27" font-family="MyriadPro-Regular, Myriad Pro"><tspan x="0" y="0">-</tspan></text>
              </g>
            </g>
          </g>
        </g>
      </g>
    </g>
    <path id="Trazado_106621" data-name="Trazado 106621" d="M63.844,187.108a21.893,21.893,0,0,1-22.516,21.876,22.132,22.132,0,0,1-21.257-21.261,21.891,21.891,0,1,1,43.772-.615" transform="translate(391.845 8243)" fill="#4472c4"/>
    <path id="Trazado_106622" data-name="Trazado 106622" d="M94.953,187.108a21.892,21.892,0,0,1-22.516,21.876,22.133,22.133,0,0,1-21.257-21.266,21.891,21.891,0,1,1,43.772-.61" transform="translate(432.079 8243)" fill="#4472c4"/>
    <path id="Trazado_106623" data-name="Trazado 106623" d="M123.263,187.108a21.893,21.893,0,0,1-22.516,21.876,22.132,22.132,0,0,1-21.257-21.261,21.891,21.891,0,1,1,43.772-.615" transform="translate(468.692 8243)" fill="#4472c4"/>
    <g id="Grupo_59213" data-name="Grupo 59213" transform="translate(565.04 8411.996)" style="isolation: isolate">
      <g id="Grupo_59212" data-name="Grupo 59212">
        <g id="Grupo_59211" data-name="Grupo 59211" clip-path="url(#clip-path-18)">
          <g id="Grupo_59210" data-name="Grupo 59210" style="isolation: isolate">
            <g id="Grupo_59209" data-name="Grupo 59209">
              <g id="Grupo_59208" data-name="Grupo 59208" clip-path="url(#clip-path-18)">
                <text id="_--10" data-name="-" transform="translate(0 22.878)" fill="#fff" font-size="27" font-family="MyriadPro-Regular, Myriad Pro"><tspan x="0" y="0">-</tspan></text>
              </g>
            </g>
          </g>
        </g>
      </g>
    </g>
    <g id="Grupo_59219" data-name="Grupo 59219" transform="translate(500.124 8411.996)" style="isolation: isolate">
      <g id="Grupo_59218" data-name="Grupo 59218">
        <g id="Grupo_59217" data-name="Grupo 59217" clip-path="url(#clip-path-18)">
          <g id="Grupo_59216" data-name="Grupo 59216" style="isolation: isolate">
            <g id="Grupo_59215" data-name="Grupo 59215">
              <g id="Grupo_59214" data-name="Grupo 59214" clip-path="url(#clip-path-18)">
                <text id="_--11" data-name="-" transform="translate(0 22.878)" fill="#fff" font-size="27" font-family="MyriadPro-Regular, Myriad Pro"><tspan x="0" y="0">-</tspan></text>
              </g>
            </g>
          </g>
        </g>
      </g>
    </g>
    <g id="Grupo_59225" data-name="Grupo 59225" transform="translate(428.865 8411.996)" style="isolation: isolate">
      <g id="Grupo_59224" data-name="Grupo 59224">
        <g id="Grupo_59223" data-name="Grupo 59223" clip-path="url(#clip-path-18)">
          <g id="Grupo_59222" data-name="Grupo 59222" style="isolation: isolate">
            <g id="Grupo_59221" data-name="Grupo 59221">
              <g id="Grupo_59220" data-name="Grupo 59220" clip-path="url(#clip-path-18)">
                <text id="_--12" data-name="-" transform="translate(0.001 22.878)" fill="#fff" font-size="27" font-family="MyriadPro-Regular, Myriad Pro"><tspan x="0" y="0">-</tspan></text>
              </g>
            </g>
          </g>
        </g>
      </g>
    </g>
    <path id="Trazado_106624" data-name="Trazado 106624" d="M157.765,164.387a16.852,16.852,0,1,1-16.858-16.854,16.851,16.851,0,0,1,16.858,16.854" transform="translate(526.345 8220.137)" fill="#4472c4"/>
    <path id="Trazado_106625" data-name="Trazado 106625" d="M181.714,164.387a16.852,16.852,0,1,1-16.858-16.854,16.851,16.851,0,0,1,16.858,16.854" transform="translate(557.319 8220.137)" fill="#4472c4"/>
    <path id="Trazado_106626" data-name="Trazado 106626" d="M203.509,164.387a16.852,16.852,0,1,1-16.854-16.854,16.851,16.851,0,0,1,16.854,16.854" transform="translate(585.506 8220.137)" fill="#4472c4"/>
    <g id="Grupo_59231" data-name="Grupo 59231" transform="translate(768.295 8370.589)" style="isolation: isolate">
      <g id="Grupo_59230" data-name="Grupo 59230">
        <g id="Grupo_59229" data-name="Grupo 59229" clip-path="url(#clip-path-36)">
          <g id="Grupo_59228" data-name="Grupo 59228" style="isolation: isolate">
            <g id="Grupo_59227" data-name="Grupo 59227">
              <g id="Grupo_59226" data-name="Grupo 59226" clip-path="url(#clip-path-36)">
                <text id="_--13" data-name="-" transform="translate(0.001 17.615)" fill="#fff" font-size="21" font-family="MyriadPro-Regular, Myriad Pro"><tspan x="0" y="0">-</tspan></text>
              </g>
            </g>
          </g>
        </g>
      </g>
    </g>
    <g id="Grupo_59237" data-name="Grupo 59237" transform="translate(718.315 8370.589)" style="isolation: isolate">
      <g id="Grupo_59236" data-name="Grupo 59236">
        <g id="Grupo_59235" data-name="Grupo 59235" clip-path="url(#clip-path-36)">
          <g id="Grupo_59234" data-name="Grupo 59234" style="isolation: isolate">
            <g id="Grupo_59233" data-name="Grupo 59233">
              <g id="Grupo_59232" data-name="Grupo 59232" clip-path="url(#clip-path-36)">
                <text id="_--14" data-name="-" transform="translate(0.001 17.615)" fill="#fff" font-size="21" font-family="MyriadPro-Regular, Myriad Pro"><tspan x="0" y="0">-</tspan></text>
              </g>
            </g>
          </g>
        </g>
      </g>
    </g>
    <g id="Grupo_59243" data-name="Grupo 59243" transform="translate(663.458 8370.589)" style="isolation: isolate">
      <g id="Grupo_59242" data-name="Grupo 59242">
        <g id="Grupo_59241" data-name="Grupo 59241" clip-path="url(#clip-path-36)">
          <g id="Grupo_59240" data-name="Grupo 59240" style="isolation: isolate">
            <g id="Grupo_59239" data-name="Grupo 59239">
              <g id="Grupo_59238" data-name="Grupo 59238" clip-path="url(#clip-path-36)">
                <text id="_--15" data-name="-" transform="translate(0 17.615)" fill="#fff" font-size="21" font-family="MyriadPro-Regular, Myriad Pro"><tspan x="0" y="0">-</tspan></text>
              </g>
            </g>
          </g>
        </g>
      </g>
    </g>
    <path id="Trazado_106627" data-name="Trazado 106627" d="M226.509,164.387a16.852,16.852,0,1,1-16.858-16.854,16.851,16.851,0,0,1,16.858,16.854" transform="translate(615.252 8220.137)" fill="#4472c4"/>
    <path id="Trazado_106628" data-name="Trazado 106628" d="M250.459,164.387A16.852,16.852,0,1,1,233.6,147.533a16.851,16.851,0,0,1,16.858,16.854" transform="translate(646.227 8220.137)" fill="#4472c4"/>
    <path id="Trazado_106629" data-name="Trazado 106629" d="M272.254,164.387A16.852,16.852,0,1,1,255.4,147.533a16.851,16.851,0,0,1,16.858,16.854" transform="translate(674.415 8220.137)" fill="#4472c4"/>
    <g id="Grupo_59249" data-name="Grupo 59249" transform="translate(925.951 8370.589)" style="isolation: isolate">
      <g id="Grupo_59248" data-name="Grupo 59248">
        <g id="Grupo_59247" data-name="Grupo 59247" clip-path="url(#clip-path-42)">
          <g id="Grupo_59246" data-name="Grupo 59246" style="isolation: isolate">
            <g id="Grupo_59245" data-name="Grupo 59245">
              <g id="Grupo_59244" data-name="Grupo 59244" clip-path="url(#clip-path-42)">
                <text id="_--16" data-name="-" transform="translate(0.002 17.615)" fill="#fff" font-size="21" font-family="MyriadPro-Regular, Myriad Pro"><tspan x="0" y="0">-</tspan></text>
              </g>
            </g>
          </g>
        </g>
      </g>
    </g>
    <g id="Grupo_59255" data-name="Grupo 59255" transform="translate(875.973 8370.589)" style="isolation: isolate">
      <g id="Grupo_59254" data-name="Grupo 59254">
        <g id="Grupo_59253" data-name="Grupo 59253" clip-path="url(#clip-path-36)">
          <g id="Grupo_59252" data-name="Grupo 59252" style="isolation: isolate">
            <g id="Grupo_59251" data-name="Grupo 59251">
              <g id="Grupo_59250" data-name="Grupo 59250" clip-path="url(#clip-path-36)">
                <text id="_--17" data-name="-" transform="translate(0 17.615)" fill="#fff" font-size="21" font-family="MyriadPro-Regular, Myriad Pro"><tspan x="0" y="0">-</tspan></text>
              </g>
            </g>
          </g>
        </g>
      </g>
    </g>
    <g id="Grupo_59261" data-name="Grupo 59261" transform="translate(821.112 8370.589)" style="isolation: isolate">
      <g id="Grupo_59260" data-name="Grupo 59260">
        <g id="Grupo_59259" data-name="Grupo 59259" clip-path="url(#clip-path-42)">
          <g id="Grupo_59258" data-name="Grupo 59258" style="isolation: isolate">
            <g id="Grupo_59257" data-name="Grupo 59257">
              <g id="Grupo_59256" data-name="Grupo 59256" clip-path="url(#clip-path-42)">
                <text id="_--18" data-name="-" transform="translate(0 17.615)" fill="#fff" font-size="21" font-family="MyriadPro-Regular, Myriad Pro"><tspan x="0" y="0">-</tspan></text>
              </g>
            </g>
          </g>
        </g>
      </g>
    </g>
    <path id="Trazado_106630" data-name="Trazado 106630" d="M147.048,150.6V136.708H143.17V150.6h-4.412l6.352,9.448L151.4,150.6Z" transform="translate(545.353 8206.137)" fill="#fbb03b"/>
    <path id="Trazado_106631" data-name="Trazado 106631" d="M172.58,150.6V136.708H168.7V150.6h-4.415l6.355,9.448,6.293-9.448Z" transform="translate(578.374 8206.137)" fill="#fbb03b"/>
    <path id="Trazado_106632" data-name="Trazado 106632" d="M194.748,150.6V136.708h-3.876V150.6h-4.415l6.355,9.448L199.1,150.6Z" transform="translate(607.044 8206.137)" fill="#fbb03b"/>
    <path id="Trazado_106633" data-name="Trazado 106633" d="M217.225,150.6V136.708h-3.876V150.6h-4.415l6.352,9.448,6.3-9.448Z" transform="translate(636.115 8206.137)" fill="#fbb03b"/>
    <path id="Trazado_106634" data-name="Trazado 106634" d="M241.324,150.6V136.708h-3.876V150.6h-4.415l6.355,9.448,6.293-9.448Z" transform="translate(667.282 8206.137)" fill="#fbb03b"/>
    <path id="Trazado_106635" data-name="Trazado 106635" d="M237.952,171.679V185.57h3.876V171.679h4.415l-6.352-9.448-6.3,9.448Z" transform="translate(668.007 8239.146)" fill="#fbb03b"/>
    <path id="Trazado_106636" data-name="Trazado 106636" d="M262.65,150.6V136.708h-3.876V150.6H254.36l6.355,9.448,6.293-9.448Z" transform="translate(694.864 8206.137)" fill="#fbb03b"/>
    <path id="Trazado_106637" data-name="Trazado 106637" d="M259.278,171.679V185.57h3.876V171.679h4.415l-6.355-9.448-6.293,9.448Z" transform="translate(695.588 8239.146)" fill="#fbb03b"/>
    <path id="Trazado_106638" data-name="Trazado 106638" d="M212.421,171.679V185.57H216.3V171.679h4.415l-6.355-9.448-6.293,9.448Z" transform="translate(634.988 8239.146)" fill="#fbb03b"/>
    <path id="Trazado_106639" data-name="Trazado 106639" d="M190.25,171.679V185.57h3.876V171.679h4.415l-6.35-9.448-6.3,9.448Z" transform="translate(606.317 8239.146)" fill="#fbb03b"/>
    <path id="Trazado_106695" data-name="Trazado 106695" d="M190.25,171.679V185.57h3.876V171.679h4.415l-6.35-9.448-6.3,9.448Z" transform="translate(606.317 8305.22)" fill="#fbb03b"/>
    <path id="Trazado_106640" data-name="Trazado 106640" d="M167.775,171.679V185.57h3.876V171.679h4.415l-6.352-9.448-6.3,9.448Z" transform="translate(577.247 8239.146)" fill="#fbb03b"/>
    <path id="Trazado_106641" data-name="Trazado 106641" d="M143.675,171.679V185.57h3.876V171.679h4.415l-6.355-9.448-6.293,9.448Z" transform="translate(546.079 8239.146)" fill="#fbb03b"/>
    <path id="Trazado_106642" data-name="Trazado 106642" d="M126.4,150.6V136.708h-3.876V150.6H118.11l6.352,9.448,6.3-9.448Z" transform="translate(518.65 8206.137)" fill="#fbb03b"/>
    <path id="Trazado_106643" data-name="Trazado 106643" d="M123.027,171.679V185.57H126.9V171.679h4.415l-6.352-9.448-6.293,9.448Z" transform="translate(519.376 8239.146)" fill="#fbb03b"/>
    <path id="Trazado_106644" data-name="Trazado 106644" d="M140.892,143.4H127v3.876h13.891v4.415l9.448-6.352-9.448-6.3Z" transform="translate(530.15 8209.151)" fill="#dd8005"/>
    <path id="Trazado_106645" data-name="Trazado 106645" d="M140.892,170.306H127v3.876h13.891V178.6l9.448-6.355-9.448-6.293Z" transform="translate(530.15 8243.954)" fill="#dd8005"/>
    <path id="Trazado_106646" data-name="Trazado 106646" d="M163.936,143.4H150.045v3.876h13.891v4.415l9.448-6.352-9.448-6.3Z" transform="translate(559.952 8209.151)" fill="#dd8005"/>
    <path id="Trazado_106647" data-name="Trazado 106647" d="M163.936,170.306H150.045v3.876h13.891V178.6l9.448-6.355-9.448-6.293Z" transform="translate(559.952 8243.954)" fill="#dd8005"/>
    <path id="Trazado_106648" data-name="Trazado 106648" d="M187.618,143.4H173.727v3.876h13.891v4.415l9.448-6.352-9.448-6.3Z" transform="translate(590.58 8209.151)" fill="#dd8005"/>
    <path id="Trazado_106649" data-name="Trazado 106649" d="M187.618,170.305H173.727v3.876h13.891V178.6l9.448-6.355-9.448-6.291Z" transform="translate(590.58 8243.956)" fill="#dd8005"/>
    <path id="Trazado_106650" data-name="Trazado 106650" d="M208.955,143.4H195.065v3.876h13.891v4.415l9.448-6.352-9.448-6.3Z" transform="translate(618.176 8209.151)" fill="#dd8005"/>
    <path id="Trazado_106651" data-name="Trazado 106651" d="M208.955,170.306H195.065v3.876h13.891V178.6l9.451-6.352-9.448-6.3Z" transform="translate(618.176 8243.954)" fill="#dd8005"/>
    <path id="Trazado_106652" data-name="Trazado 106652" d="M232.9,143.4H219.014v3.876H232.9v4.415l9.448-6.352-9.448-6.3Z" transform="translate(649.15 8209.151)" fill="#dd8005"/>
    <path id="Trazado_106653" data-name="Trazado 106653" d="M232.9,170.306H219.014v3.876H232.9V178.6l9.448-6.355-9.448-6.293Z" transform="translate(649.15 8243.954)" fill="#dd8005"/>
    <path id="Trazado_106654" data-name="Trazado 106654" d="M255.537,143.4H241.647v3.876h13.891v4.415l9.448-6.352-9.448-6.3Z" transform="translate(678.421 8209.151)" fill="#dd8005"/>
    <path id="Trazado_106655" data-name="Trazado 106655" d="M255.537,170.306H241.647v3.876h13.891V178.6l9.448-6.355-9.448-6.293Z" transform="translate(678.421 8243.954)" fill="#dd8005"/>
    <path id="Trazado_106656" data-name="Trazado 106656" d="M325.429,187.538a21.89,21.89,0,1,1-21.9-21.892,21.89,21.89,0,0,1,21.9,21.892" transform="translate(730.158 8243.563)" fill="#4472c4"/>
    <path id="Trazado_106657" data-name="Trazado 106657" d="M356.537,187.541a21.89,21.89,0,1,1-21.9-21.9,21.888,21.888,0,0,1,21.9,21.9" transform="translate(770.39 8243.56)" fill="#4472c4"/>
    <path id="Trazado_106658" data-name="Trazado 106658" d="M384.846,187.538a21.89,21.89,0,1,1-21.9-21.892,21.89,21.89,0,0,1,21.9,21.892" transform="translate(807.002 8243.563)" fill="#4472c4"/>
    <g id="Grupo_59267" data-name="Grupo 59267" transform="translate(1164.934 8412.99)" style="isolation: isolate">
      <g id="Grupo_59266" data-name="Grupo 59266">
        <g id="Grupo_59265" data-name="Grupo 59265" clip-path="url(#clip-path-48)">
          <g id="Grupo_59264" data-name="Grupo 59264" style="isolation: isolate">
            <g id="Grupo_59263" data-name="Grupo 59263">
              <g id="Grupo_59262" data-name="Grupo 59262" clip-path="url(#clip-path-48)">
                <text id="_--19" data-name="-" transform="translate(0.002 22.878)" fill="#fff" font-size="27" font-family="MyriadPro-Regular, Myriad Pro"><tspan x="0" y="0">-</tspan></text>
              </g>
            </g>
          </g>
        </g>
      </g>
    </g>
    <g id="Grupo_59273" data-name="Grupo 59273" transform="translate(1100.022 8412.99)" style="isolation: isolate">
      <g id="Grupo_59272" data-name="Grupo 59272">
        <g id="Grupo_59271" data-name="Grupo 59271" clip-path="url(#clip-path-50)">
          <g id="Grupo_59270" data-name="Grupo 59270" style="isolation: isolate">
            <g id="Grupo_59269" data-name="Grupo 59269">
              <g id="Grupo_59268" data-name="Grupo 59268" clip-path="url(#clip-path-50)">
                <text id="_--20" data-name="-" transform="translate(0 22.878)" fill="#fff" font-size="27" font-family="MyriadPro-Regular, Myriad Pro"><tspan x="0" y="0">-</tspan></text>
              </g>
            </g>
          </g>
        </g>
      </g>
    </g>
    <g id="Grupo_59279" data-name="Grupo 59279" transform="translate(1028.762 8412.99)" style="isolation: isolate">
      <g id="Grupo_59278" data-name="Grupo 59278">
        <g id="Grupo_59277" data-name="Grupo 59277" clip-path="url(#clip-path-48)">
          <g id="Grupo_59276" data-name="Grupo 59276" style="isolation: isolate">
            <g id="Grupo_59275" data-name="Grupo 59275">
              <g id="Grupo_59274" data-name="Grupo 59274" clip-path="url(#clip-path-48)">
                <text id="_--21" data-name="-" transform="translate(0.002 22.878)" fill="#fff" font-size="27" font-family="MyriadPro-Regular, Myriad Pro"><tspan x="0" y="0">-</tspan></text>
              </g>
            </g>
          </g>
        </g>
      </g>
    </g>
    <path id="Trazado_106868" data-name="Trazado 106868" d="M0,0H868.9V503.006H0Z" transform="translate(365.897 8029.331)" fill="none"/>
    <path id="Trazado_106869" data-name="Trazado 106869" d="M0,0H868.9V503.006H0Z" transform="translate(365.897 8029.331)" fill="none"/>
  </g>
</svg>
